SplineFontDB: 3.2
FontName: hin58mukta
FullName: hin58mukta
FamilyName: hin58mukta
Weight: Book
Copyright: Copyright (c) 2014, Girish Dalvi, Ek Type. All rights reserved.
Version: 2.538;PS 1.001;hotconv 16.6.51;makeotf.lib2.5.65220; ttfautohint (v1.6)
ItalicAngle: 0
UnderlinePosition: -133
UnderlineWidth: 20
Ascent: 800
Descent: 200
InvalidEm: 0
sfntRevision: 0x000289ba
LayerCount: 2
Layer: 0 1 "Back" 1
Layer: 1 1 "Fore" 0
XUID: [1021 467 -1121320856 2096339]
StyleMap: 0x0040
FSType: 0
OS2Version: 3
OS2_WeightWidthSlopeOnly: 0
OS2_UseTypoMetrics: 0
CreationTime: 1495124280
ModificationTime: 1673346511
PfmFamily: 17
TTFWeight: 400
TTFWidth: 5
LineGap: 0
VLineGap: 0
Panose: 2 11 0 0 0 0 0 0 0 0
OS2TypoAscent: 1130
OS2TypoAOffset: 0
OS2TypoDescent: -532
OS2TypoDOffset: 0
OS2TypoLinegap: 0
OS2WinAscent: 1130
OS2WinAOffset: 0
OS2WinDescent: 532
OS2WinDOffset: 0
HheadAscent: 1130
HheadAOffset: 0
HheadDescent: -532
HheadDOffset: 0
OS2SubXSize: 650
OS2SubYSize: 600
OS2SubXOff: 0
OS2SubYOff: 75
OS2SupXSize: 650
OS2SupYSize: 600
OS2SupXOff: 0
OS2SupYOff: 350
OS2StrikeYSize: 20
OS2StrikeYPos: 280
OS2CapHeight: 630
OS2XHeight: 468
OS2Vendor: 'EKTF'
OS2CodePages: 20000093.00000000
OS2UnicodeRanges: a000802f.4000204b.00000000.00000000
Lookup: 1 0 0 "'onum' Oldstyle Figures lookup 0" { "'onum' Oldstyle Figures lookup 0 subtable" ("oldstyle") } ['onum' ('DFLT' <'dflt' > 'dev2' <'HIN ' 'MAR ' 'dflt' > 'deva' <'HIN ' 'MAR ' 'dflt' > 'latn' <'dflt' > ) ]
Lookup: 4 0 1 "'liga' Standard Ligatures lookup 1" { "'liga' Standard Ligatures lookup 1 subtable"  } ['liga' ('DFLT' <'dflt' > 'dev2' <'HIN ' 'MAR ' 'dflt' > 'deva' <'HIN ' 'MAR ' 'dflt' > 'latn' <'dflt' > ) ]
Lookup: 4 0 0 "'dlig' Discretionary Ligatures lookup 2" { "'dlig' Discretionary Ligatures lookup 2 subtable"  } ['dlig' ('DFLT' <'dflt' > 'dev2' <'HIN ' 'MAR ' 'dflt' > 'deva' <'HIN ' 'MAR ' 'dflt' > 'latn' <'dflt' > ) ]

StartChar: exclam
Encoding: 33 33 3
Width: 247
GlyphClass: 2
Flags: W
LayerCount: 2
Fore
SplineSet
77 710 m 1,0,-1
 171 710 l 1,1,-1
 159 209 l 1,2,-1
 87 209 l 1,3,-1
 77 710 l 1,0,-1
63 54 m 0,4,5
 63 80 63 80 81 98 c 128,-1,6
 99 116 99 116 124 116 c 256,7,8
 149 116 149 116 166.5 98 c 128,-1,9
 184 80 184 80 184 54 c 0,10,11
 184 25 184 25 166.5 8 c 128,-1,12
 149 -9 149 -9 124 -9 c 256,13,14
 99 -9 99 -9 81 8 c 128,-1,15
 63 25 63 25 63 54 c 0,4,5
EndSplineSet
EndChar

StartChar: quotedbl
Encoding: 34 34 4
Width: 324
GlyphClass: 2
Flags: W
LayerCount: 2
Fore
SplineSet
190 645 m 1,0,-1
 273 645 l 1,1,-1
 257 428 l 1,2,-1
 205 428 l 1,3,-1
 190 645 l 1,0,-1
51 645 m 1,4,-1
 134 645 l 1,5,-1
 119 428 l 1,6,-1
 67 428 l 1,7,-1
 51 645 l 1,4,-1
EndSplineSet
EndChar

StartChar: numbersign
Encoding: 35 35 5
Width: 620
GlyphClass: 2
Flags: W
LayerCount: 2
Fore
SplineSet
260 469 m 1,0,-1
 230 282 l 1,1,-1
 376 282 l 1,2,-1
 406 469 l 1,3,-1
 260 469 l 1,0,-1
450 740 m 1,4,-1
 517 740 l 1,5,-1
 484 537 l 1,6,-1
 586 537 l 1,7,-1
 586 469 l 1,8,-1
 474 469 l 1,9,-1
 443 282 l 1,10,-1
 552 282 l 1,11,-1
 552 214 l 1,12,-1
 434 214 l 1,13,-1
 399 0 l 1,14,-1
 331 0 l 1,15,-1
 365 214 l 1,16,-1
 220 214 l 1,17,-1
 185 0 l 1,18,-1
 118 0 l 1,19,-1
 151 214 l 1,20,-1
 35 214 l 1,21,-1
 35 282 l 1,22,-1
 163 282 l 1,23,-1
 193 469 l 1,24,-1
 70 469 l 1,25,-1
 70 537 l 1,26,-1
 205 537 l 1,27,-1
 237 740 l 1,28,-1
 304 740 l 1,29,-1
 271 536 l 1,30,-1
 418 536 l 1,31,-1
 450 740 l 1,4,-1
EndSplineSet
EndChar

StartChar: percent
Encoding: 37 37 6
Width: 820
GlyphClass: 2
Flags: W
LayerCount: 2
Fore
SplineSet
165 0 m 1,0,-1
 602 750 l 1,1,-1
 667 750 l 1,2,-1
 230 0 l 1,3,-1
 165 0 l 1,0,-1
789 178 m 256,4,5
 789 140 789 140 778.5 106 c 128,-1,6
 768 72 768 72 747 46.5 c 128,-1,7
 726 21 726 21 695 6 c 128,-1,8
 664 -9 664 -9 624 -9 c 0,9,10
 585 -9 585 -9 554.5 6 c 128,-1,11
 524 21 524 21 503.5 46.5 c 128,-1,12
 483 72 483 72 472.5 106 c 128,-1,13
 462 140 462 140 462 178 c 256,14,15
 462 216 462 216 473 249.5 c 128,-1,16
 484 283 484 283 505.5 308.5 c 128,-1,17
 527 334 527 334 557.5 349 c 128,-1,18
 588 364 588 364 627 364 c 256,19,20
 666 364 666 364 696 349 c 128,-1,21
 726 334 726 334 747 308.5 c 128,-1,22
 768 283 768 283 778.5 249.5 c 128,-1,23
 789 216 789 216 789 178 c 256,4,5
717 178 m 0,24,25
 717 204 717 204 712.5 228 c 128,-1,26
 708 252 708 252 697.5 271 c 128,-1,27
 687 290 687 290 669.5 301 c 128,-1,28
 652 312 652 312 627 312 c 0,29,30
 603 312 603 312 585 301 c 128,-1,31
 567 290 567 290 556 272 c 128,-1,32
 545 254 545 254 539.5 229.5 c 128,-1,33
 534 205 534 205 534 178 c 256,34,35
 534 151 534 151 539 126.5 c 128,-1,36
 544 102 544 102 554.5 83.5 c 128,-1,37
 565 65 565 65 582.5 54 c 128,-1,38
 600 43 600 43 624 43 c 0,39,40
 672 43 672 43 694.5 80.5 c 128,-1,41
 717 118 717 118 717 178 c 0,24,25
357 564 m 256,42,43
 357 526 357 526 346.5 492 c 128,-1,44
 336 458 336 458 315 432.5 c 128,-1,45
 294 407 294 407 263 392 c 128,-1,46
 232 377 232 377 192 377 c 0,47,48
 153 377 153 377 122.5 392 c 128,-1,49
 92 407 92 407 71.5 432.5 c 128,-1,50
 51 458 51 458 40.5 492 c 128,-1,51
 30 526 30 526 30 564 c 256,52,53
 30 602 30 602 41 635.5 c 128,-1,54
 52 669 52 669 73.5 694.5 c 128,-1,55
 95 720 95 720 125.5 735 c 128,-1,56
 156 750 156 750 195 750 c 256,57,58
 234 750 234 750 264 735 c 128,-1,59
 294 720 294 720 315 694.5 c 128,-1,60
 336 669 336 669 346.5 635.5 c 128,-1,61
 357 602 357 602 357 564 c 256,42,43
285 564 m 0,62,63
 285 590 285 590 280.5 614 c 128,-1,64
 276 638 276 638 265.5 657 c 128,-1,65
 255 676 255 676 237.5 687 c 128,-1,66
 220 698 220 698 195 698 c 0,67,68
 171 698 171 698 153 687 c 128,-1,69
 135 676 135 676 124 658 c 128,-1,70
 113 640 113 640 107.5 615.5 c 128,-1,71
 102 591 102 591 102 564 c 256,72,73
 102 537 102 537 107 512.5 c 128,-1,74
 112 488 112 488 122.5 469.5 c 128,-1,75
 133 451 133 451 150.5 440 c 128,-1,76
 168 429 168 429 192 429 c 0,77,78
 240 429 240 429 262.5 466.5 c 128,-1,79
 285 504 285 504 285 564 c 0,62,63
EndSplineSet
Substitution2: "'onum' Oldstyle Figures lookup 0 subtable" percentoldstyle
EndChar

StartChar: ampersand
Encoding: 38 38 7
Width: 658
GlyphClass: 2
Flags: W
LayerCount: 2
Fore
SplineSet
30 186 m 0,0,1
 30 223 30 223 42.5 253 c 128,-1,2
 55 283 55 283 76 307 c 128,-1,3
 97 331 97 331 125 349 c 128,-1,4
 153 367 153 367 185 380 c 1,5,6
 159 409 159 409 139.5 446.5 c 128,-1,7
 120 484 120 484 120 529 c 0,8,9
 120 562 120 562 133 588 c 128,-1,10
 146 614 146 614 168.5 632.5 c 128,-1,11
 191 651 191 651 221.5 660.5 c 128,-1,12
 252 670 252 670 286 670 c 256,13,14
 320 670 320 670 349.5 660 c 128,-1,15
 379 650 379 650 400.5 631.5 c 128,-1,16
 422 613 422 613 434 587 c 128,-1,17
 446 561 446 561 446 530 c 0,18,19
 446 477 446 477 419 442 c 128,-1,20
 392 407 392 407 348 385 c 1,21,-1
 307 434 l 1,22,23
 333 448 333 448 348.5 471 c 128,-1,24
 364 494 364 494 364 525 c 0,25,26
 364 560 364 560 341.5 582 c 128,-1,27
 319 604 319 604 284 604 c 0,28,29
 246 604 246 604 225 583 c 128,-1,30
 204 562 204 562 204 528 c 0,31,32
 204 483 204 483 229 445.5 c 128,-1,33
 254 408 254 408 301 361 c 2,34,-1
 469 191 l 1,35,36
 486 217 486 217 501 251.5 c 128,-1,37
 516 286 516 286 527 318 c 1,38,-1
 599 289 l 1,39,40
 583 244 583 244 563 205 c 128,-1,41
 543 166 543 166 523 136 c 1,42,-1
 658 0 l 1,43,-1
 550 0 l 1,44,-1
 474 78 l 1,45,46
 460 62 460 62 439.5 46.5 c 128,-1,47
 419 31 419 31 392 19 c 128,-1,48
 365 7 365 7 331.5 -0.5 c 128,-1,49
 298 -8 298 -8 258 -8 c 0,50,51
 206 -8 206 -8 164 6.5 c 128,-1,52
 122 21 122 21 92 47 c 128,-1,53
 62 73 62 73 46 108.5 c 128,-1,54
 30 144 30 144 30 186 c 0,0,1
116 188 m 0,55,56
 116 125 116 125 157.5 92.5 c 128,-1,57
 199 60 199 60 268 60 c 0,58,59
 289 60 289 60 311.5 65 c 128,-1,60
 334 70 334 70 355 79.5 c 128,-1,61
 376 89 376 89 393.5 102 c 128,-1,62
 411 115 411 115 423 131 c 1,63,-1
 227 330 l 1,64,65
 205 319 205 319 185 305 c 128,-1,66
 165 291 165 291 149.5 273.5 c 128,-1,67
 134 256 134 256 125 234.5 c 128,-1,68
 116 213 116 213 116 188 c 0,55,56
EndSplineSet
EndChar

StartChar: quotesingle
Encoding: 39 39 8
Width: 185
GlyphClass: 2
Flags: W
LayerCount: 2
Fore
SplineSet
51 645 m 1,0,-1
 134 645 l 1,1,-1
 118 428 l 1,2,-1
 66 428 l 1,3,-1
 51 645 l 1,0,-1
EndSplineSet
EndChar

StartChar: parenleft
Encoding: 40 40 9
Width: 301
GlyphClass: 2
Flags: W
LayerCount: 2
Fore
SplineSet
211 -153 m 1,0,1
 181 -112 181 -112 152 -65.5 c 128,-1,2
 123 -19 123 -19 100.5 34 c 128,-1,3
 78 87 78 87 64 147.5 c 128,-1,4
 50 208 50 208 50 279 c 0,5,6
 50 349 50 349 64.5 411.5 c 128,-1,7
 79 474 79 474 102 528.5 c 128,-1,8
 125 583 125 583 154 628.5 c 128,-1,9
 183 674 183 674 213 710 c 1,10,-1
 261 676 l 1,11,12
 206 592 206 592 171.5 494.5 c 128,-1,13
 137 397 137 397 137 279 c 0,14,15
 137 220 137 220 145.5 167.5 c 128,-1,16
 154 115 154 115 169.5 66.5 c 128,-1,17
 185 18 185 18 208 -29 c 128,-1,18
 231 -76 231 -76 261 -124 c 1,19,-1
 211 -153 l 1,0,1
EndSplineSet
Substitution2: "'sups' Superscript lookup 5 subtable" parenleft.superior
Substitution2: "'subs' Subscript lookup 4 subtable" parenleft.inferior
EndChar

StartChar: parenright
Encoding: 41 41 10
Width: 301
GlyphClass: 2
Flags: W
LayerCount: 2
Fore
SplineSet
90 710 m 1,0,1
 120 669 120 669 149 622.5 c 128,-1,2
 178 576 178 576 200.5 523 c 128,-1,3
 223 470 223 470 237 409 c 128,-1,4
 251 348 251 348 251 278 c 256,5,6
 251 208 251 208 236.5 145.5 c 128,-1,7
 222 83 222 83 199 28.5 c 128,-1,8
 176 -26 176 -26 147 -71.5 c 128,-1,9
 118 -117 118 -117 88 -153 c 1,10,-1
 40 -119 l 1,11,12
 95 -35 95 -35 129.5 62.5 c 128,-1,13
 164 160 164 160 164 278 c 0,14,15
 164 337 164 337 155.5 389.5 c 128,-1,16
 147 442 147 442 131.5 490.5 c 128,-1,17
 116 539 116 539 93 586 c 128,-1,18
 70 633 70 633 40 681 c 1,19,-1
 90 710 l 1,0,1
EndSplineSet
Substitution2: "'sups' Superscript lookup 5 subtable" parenright.superior
Substitution2: "'subs' Subscript lookup 4 subtable" parenright.inferior
EndChar

StartChar: asterisk
Encoding: 42 42 11
Width: 342
GlyphClass: 2
Flags: W
LayerCount: 2
Fore
SplineSet
57 412 m 1,0,-1
 96 464 l 1,1,-1
 153 517 l 1,2,-1
 75 527 l 1,3,-1
 14 546 l 1,4,-1
 32 601 l 1,5,-1
 92 583 l 1,6,-1
 164 545 l 1,7,-1
 146 622 l 1,8,-1
 146 684 l 1,9,-1
 206 684 l 1,10,-1
 206 622 l 1,11,-1
 189 545 l 1,12,-1
 260 583 l 1,13,-1
 320 601 l 1,14,-1
 338 546 l 1,15,-1
 277 527 l 1,16,-1
 199 517 l 1,17,-1
 256 464 l 1,18,-1
 294 412 l 1,19,-1
 246 377 l 1,20,-1
 209 429 l 1,21,-1
 176 500 l 1,22,-1
 143 429 l 1,23,-1
 104 377 l 1,24,-1
 57 412 l 1,0,-1
EndSplineSet
EndChar

StartChar: plus
Encoding: 43 43 12
Width: 562
GlyphClass: 2
Flags: W
LayerCount: 2
Fore
SplineSet
522 338 m 1,0,-1
 522 274 l 1,1,-1
 313 274 l 1,2,-1
 313 65 l 1,3,-1
 249 65 l 1,4,-1
 249 274 l 1,5,-1
 40 274 l 1,6,-1
 40 338 l 1,7,-1
 249 338 l 1,8,-1
 249 547 l 1,9,-1
 313 547 l 1,10,-1
 313 338 l 1,11,-1
 522 338 l 1,0,-1
EndSplineSet
EndChar

StartChar: comma
Encoding: 44 44 13
Width: 214
GlyphClass: 2
Flags: W
LayerCount: 2
Fore
SplineSet
101 -9 m 2,0,1
 75 -6 75 -6 62 13 c 128,-1,2
 49 32 49 32 49 55 c 0,3,4
 49 79 49 79 65.5 98 c 128,-1,5
 82 117 82 117 112 117 c 0,6,7
 124 117 124 117 136.5 113.5 c 128,-1,8
 149 110 149 110 159.5 99.5 c 128,-1,9
 170 89 170 89 177 70.5 c 128,-1,10
 184 52 184 52 184 22 c 0,11,12
 184 -32 184 -32 153 -77 c 128,-1,13
 122 -122 122 -122 74 -148 c 1,14,-1
 45 -108 l 1,15,16
 71 -94 71 -94 91.5 -70.5 c 128,-1,17
 112 -47 112 -47 119 -12 c 1,18,-1
 101 -9 l 2,0,1
EndSplineSet
EndChar

StartChar: hyphen
Encoding: 45 45 14
Width: 280
GlyphClass: 2
Flags: W
LayerCount: 2
Fore
SplineSet
250 333 m 1,0,-1
 250 254 l 1,1,-1
 30 254 l 1,2,-1
 30 333 l 1,3,-1
 250 333 l 1,0,-1
EndSplineSet
EndChar

StartChar: period
Encoding: 46 46 15
Width: 211
GlyphClass: 2
Flags: W
LayerCount: 2
Fore
SplineSet
54 54 m 0,0,1
 54 80 54 80 72 98 c 128,-1,2
 90 116 90 116 115 116 c 256,3,4
 140 116 140 116 157.5 98 c 128,-1,5
 175 80 175 80 175 54 c 0,6,7
 175 25 175 25 157.5 8 c 128,-1,8
 140 -9 140 -9 115 -9 c 256,9,10
 90 -9 90 -9 72 8 c 128,-1,11
 54 25 54 25 54 54 c 0,0,1
EndSplineSet
EndChar

StartChar: slash
Encoding: 47 47 16
Width: 375
GlyphClass: 2
Flags: W
LayerCount: 2
Fore
SplineSet
-1 -109 m 1,0,-1
 303 750 l 1,1,-1
 378 750 l 1,2,-1
 74 -109 l 1,3,-1
 -1 -109 l 1,0,-1
EndSplineSet
EndChar

StartChar: zero
Encoding: 48 48 17
Width: 575
GlyphClass: 2
Flags: W
LayerCount: 2
Fore
SplineSet
288 639 m 0,0,1
 340 639 340 639 385 620.5 c 128,-1,2
 430 602 430 602 463 563 c 128,-1,3
 496 524 496 524 514.5 462.5 c 128,-1,4
 533 401 533 401 533 315 c 256,5,6
 533 229 533 229 513 167.5 c 128,-1,7
 493 106 493 106 459 67 c 128,-1,8
 425 28 425 28 381 9.5 c 128,-1,9
 337 -9 337 -9 288 -9 c 0,10,11
 235 -9 235 -9 190.5 9.5 c 128,-1,12
 146 28 146 28 113 67 c 128,-1,13
 80 106 80 106 61.5 167.5 c 128,-1,14
 43 229 43 229 43 315 c 0,15,16
 43 397 43 397 63 458 c 128,-1,17
 83 519 83 519 116.5 559.5 c 128,-1,18
 150 600 150 600 194.5 619.5 c 128,-1,19
 239 639 239 639 288 639 c 0,0,1
135 315 m 0,20,21
 135 236 135 236 148 186.5 c 128,-1,22
 161 137 161 137 182 109 c 128,-1,23
 203 81 203 81 231 70.5 c 128,-1,24
 259 60 259 60 289 60 c 256,25,26
 319 60 319 60 346.5 71.5 c 128,-1,27
 374 83 374 83 395 112.5 c 128,-1,28
 416 142 416 142 428.5 191 c 128,-1,29
 441 240 441 240 441 315 c 0,30,31
 441 393 441 393 428 443 c 128,-1,32
 415 493 415 493 394 521 c 128,-1,33
 373 549 373 549 345 559.5 c 128,-1,34
 317 570 317 570 287 570 c 256,35,36
 257 570 257 570 229.5 558.5 c 128,-1,37
 202 547 202 547 181 517.5 c 128,-1,38
 160 488 160 488 147.5 439 c 128,-1,39
 135 390 135 390 135 315 c 0,20,21
EndSplineSet
Substitution2: "'tnum' Tabular Numbers lookup 8 subtable" tabularzero
Substitution2: "'numr' Numerators lookup 7 subtable" numzero
Substitution2: "'dnom' Denominators lookup 6 subtable" denozero
Substitution2: "'sups' Superscript lookup 5 subtable" zero.superior
Substitution2: "'subs' Subscript lookup 4 subtable" zero.inferior
Substitution2: "'onum' Oldstyle Figures lookup 0 subtable" oneoldstyle
EndChar

StartChar: one
Encoding: 49 49 18
Width: 364
GlyphClass: 2
Flags: W
LayerCount: 2
Fore
SplineSet
210 630 m 1,0,-1
 274 630 l 1,1,-1
 274 0 l 1,2,-1
 188 0 l 1,3,-1
 188 538 l 1,4,-1
 75 486 l 1,5,-1
 55 559 l 1,6,-1
 210 630 l 1,0,-1
EndSplineSet
Substitution2: "'tnum' Tabular Numbers lookup 8 subtable" tabularone
Substitution2: "'numr' Numerators lookup 7 subtable" numone
Substitution2: "'dnom' Denominators lookup 6 subtable" denoone
Substitution2: "'sups' Superscript lookup 5 subtable" onesuperior
Substitution2: "'subs' Subscript lookup 4 subtable" one.inferior
Substitution2: "'onum' Oldstyle Figures lookup 0 subtable" zerooldstyle
EndChar

StartChar: two
Encoding: 50 50 19
Width: 483
GlyphClass: 2
Flags: W
LayerCount: 2
Fore
SplineSet
224 567 m 0,0,1
 192 567 192 567 163 556 c 128,-1,2
 134 545 134 545 99 518 c 1,3,-1
 60 577 l 1,4,5
 105 615 105 615 145.5 627 c 128,-1,6
 186 639 186 639 224 639 c 0,7,8
 276 639 276 639 313.5 624.5 c 128,-1,9
 351 610 351 610 376 585 c 128,-1,10
 401 560 401 560 413 526 c 128,-1,11
 425 492 425 492 425 452 c 0,12,13
 425 416 425 416 410 378.5 c 128,-1,14
 395 341 395 341 367.5 301.5 c 128,-1,15
 340 262 340 262 301 219.5 c 128,-1,16
 262 177 262 177 213 130 c 2,17,-1
 154 73 l 1,18,-1
 440 73 l 1,19,-1
 440 0 l 1,20,-1
 61 0 l 1,21,-1
 45 63 l 1,22,-1
 128 146 l 2,23,24
 183 201 183 201 222.5 244 c 128,-1,25
 262 287 262 287 287 323 c 128,-1,26
 312 359 312 359 323.5 389 c 128,-1,27
 335 419 335 419 335 449 c 0,28,29
 335 500 335 500 307.5 533.5 c 128,-1,30
 280 567 280 567 224 567 c 0,0,1
EndSplineSet
Substitution2: "'tnum' Tabular Numbers lookup 8 subtable" tabulartwo
Substitution2: "'numr' Numerators lookup 7 subtable" numtwo
Substitution2: "'dnom' Denominators lookup 6 subtable" denotwo
Substitution2: "'sups' Superscript lookup 5 subtable" twosuperior
Substitution2: "'subs' Subscript lookup 4 subtable" two.inferior
Substitution2: "'onum' Oldstyle Figures lookup 0 subtable" twooldstyle
EndChar

StartChar: three
Encoding: 51 51 20
Width: 490
GlyphClass: 2
Flags: W
LayerCount: 2
Fore
SplineSet
53 592 m 1,0,1
 92 618 92 618 134 628.5 c 128,-1,2
 176 639 176 639 214 639 c 0,3,4
 256 639 256 639 291.5 627 c 128,-1,5
 327 615 327 615 352 593.5 c 128,-1,6
 377 572 377 572 391 542.5 c 128,-1,7
 405 513 405 513 405 478 c 0,8,9
 405 419 405 419 374.5 380 c 128,-1,10
 344 341 344 341 300 325 c 1,11,12
 355 313 355 313 391 272.5 c 128,-1,13
 427 232 427 232 427 175 c 0,14,15
 427 124 427 124 407 89 c 128,-1,16
 387 54 387 54 355 32.5 c 128,-1,17
 323 11 323 11 282.5 1 c 128,-1,18
 242 -9 242 -9 200 -9 c 256,19,20
 158 -9 158 -9 116 -1 c 128,-1,21
 74 7 74 7 42 22 c 1,22,-1
 62 90 l 1,23,24
 79 84 79 84 94 78.5 c 128,-1,25
 109 73 109 73 125 69.5 c 128,-1,26
 141 66 141 66 158.5 64 c 128,-1,27
 176 62 176 62 199 62 c 0,28,29
 224 62 224 62 248.5 68 c 128,-1,30
 273 74 273 74 292 88 c 128,-1,31
 311 102 311 102 323 123.5 c 128,-1,32
 335 145 335 145 335 177 c 0,33,34
 335 205 335 205 324.5 226 c 128,-1,35
 314 247 314 247 295.5 260 c 128,-1,36
 277 273 277 273 252 279.5 c 128,-1,37
 227 286 227 286 197 286 c 2,38,-1
 122 286 l 1,39,-1
 122 354 l 1,40,-1
 180 354 l 2,41,42
 238 354 238 354 276.5 382 c 128,-1,43
 315 410 315 410 315 468 c 0,44,45
 315 489 315 489 306.5 507.5 c 128,-1,46
 298 526 298 526 283.5 539.5 c 128,-1,47
 269 553 269 553 249.5 561 c 128,-1,48
 230 569 230 569 207 569 c 0,49,50
 175 569 175 569 147 561 c 128,-1,51
 119 553 119 553 81 531 c 1,52,-1
 53 592 l 1,0,1
EndSplineSet
Substitution2: "'tnum' Tabular Numbers lookup 8 subtable" tabularthree
Substitution2: "'numr' Numerators lookup 7 subtable" numthree
Substitution2: "'dnom' Denominators lookup 6 subtable" denothree
Substitution2: "'sups' Superscript lookup 5 subtable" threesuperior
Substitution2: "'subs' Subscript lookup 4 subtable" three.inferior
Substitution2: "'onum' Oldstyle Figures lookup 0 subtable" threeoldstyle
EndChar

StartChar: four
Encoding: 52 52 21
Width: 536
GlyphClass: 2
Flags: W
LayerCount: 2
Fore
SplineSet
323 630 m 1,0,-1
 402 630 l 1,1,-1
 402 233 l 1,2,-1
 501 233 l 1,3,-1
 501 160 l 1,4,-1
 402 160 l 1,5,-1
 402 0 l 1,6,-1
 320 0 l 1,7,-1
 320 160 l 1,8,-1
 20 160 l 1,9,-1
 20 215 l 1,10,-1
 323 630 l 1,0,-1
119 233 m 1,11,-1
 320 233 l 1,12,-1
 320 407 l 1,13,-1
 325 533 l 1,14,-1
 323 533 l 1,15,-1
 274 448 l 1,16,-1
 119 233 l 1,11,-1
EndSplineSet
Substitution2: "'tnum' Tabular Numbers lookup 8 subtable" tabularfour
Substitution2: "'numr' Numerators lookup 7 subtable" numfour
Substitution2: "'dnom' Denominators lookup 6 subtable" denofour
Substitution2: "'sups' Superscript lookup 5 subtable" four.superior
Substitution2: "'subs' Subscript lookup 4 subtable" four.inferior
Substitution2: "'onum' Oldstyle Figures lookup 0 subtable" fouroldstyle
EndChar

StartChar: five
Encoding: 53 53 22
Width: 517
GlyphClass: 2
Flags: W
LayerCount: 2
Fore
SplineSet
427 632 m 1,0,-1
 427 559 l 1,1,-1
 194 557 l 1,2,-1
 175 391 l 1,3,4
 187 393 187 393 202 394.5 c 128,-1,5
 217 396 217 396 234 396 c 0,6,7
 271 396 271 396 309.5 386 c 128,-1,8
 348 376 348 376 379 353.5 c 128,-1,9
 410 331 410 331 430 294.5 c 128,-1,10
 450 258 450 258 450 205 c 0,11,12
 450 160 450 160 434 121 c 128,-1,13
 418 82 418 82 386.5 53 c 128,-1,14
 355 24 355 24 308.5 7.5 c 128,-1,15
 262 -9 262 -9 201 -9 c 0,16,17
 166 -9 166 -9 129 -1 c 128,-1,18
 92 7 92 7 63 21 c 1,19,-1
 83 92 l 1,20,21
 107 80 107 80 137 72 c 128,-1,22
 167 64 167 64 199 64 c 0,23,24
 275 64 275 64 316.5 98.5 c 128,-1,25
 358 133 358 133 358 202 c 0,26,27
 358 235 358 235 346.5 259.5 c 128,-1,28
 335 284 335 284 314.5 300 c 128,-1,29
 294 316 294 316 266 324 c 128,-1,30
 238 332 238 332 205 332 c 0,31,32
 178 332 178 332 150 328.5 c 128,-1,33
 122 325 122 325 93 319 c 1,34,-1
 124 630 l 1,35,-1
 427 632 l 1,0,-1
EndSplineSet
Substitution2: "'tnum' Tabular Numbers lookup 8 subtable" tabularfive
Substitution2: "'numr' Numerators lookup 7 subtable" numfive
Substitution2: "'dnom' Denominators lookup 6 subtable" denofive
Substitution2: "'sups' Superscript lookup 5 subtable" five.superior
Substitution2: "'subs' Subscript lookup 4 subtable" five.inferior
Substitution2: "'onum' Oldstyle Figures lookup 0 subtable" fiveoldstyle
EndChar

StartChar: six
Encoding: 54 54 23
Width: 524
GlyphClass: 2
Flags: W
LayerCount: 2
Fore
SplineSet
315 639 m 0,0,1
 383 639 383 639 436 619 c 1,2,-1
 415 548 l 1,3,4
 394 557 394 557 370 562.5 c 128,-1,5
 346 568 346 568 318 568 c 0,6,7
 274 568 274 568 241 551.5 c 128,-1,8
 208 535 208 535 185.5 506 c 128,-1,9
 163 477 163 477 150.5 436 c 128,-1,10
 138 395 138 395 137 346 c 1,11,12
 165 381 165 381 204.5 397.5 c 128,-1,13
 244 414 244 414 286 414 c 256,14,15
 328 414 328 414 365 400.5 c 128,-1,16
 402 387 402 387 429.5 360.5 c 128,-1,17
 457 334 457 334 473 296 c 128,-1,18
 489 258 489 258 489 209 c 0,19,20
 489 159 489 159 472.5 119 c 128,-1,21
 456 79 456 79 426.5 50.5 c 128,-1,22
 397 22 397 22 357 6.5 c 128,-1,23
 317 -9 317 -9 269 -9 c 0,24,25
 226 -9 226 -9 186 7.5 c 128,-1,26
 146 24 146 24 114.5 60 c 128,-1,27
 83 96 83 96 64 152.5 c 128,-1,28
 45 209 45 209 45 289 c 0,29,30
 45 386 45 386 67.5 452.5 c 128,-1,31
 90 519 90 519 127.5 560.5 c 128,-1,32
 165 602 165 602 213.5 620.5 c 128,-1,33
 262 639 262 639 315 639 c 0,0,1
137 230 m 0,34,35
 137 194 137 194 146.5 163 c 128,-1,36
 156 132 156 132 174 109 c 128,-1,37
 192 86 192 86 217 72.5 c 128,-1,38
 242 59 242 59 272 59 c 0,39,40
 301 59 301 59 324.5 70 c 128,-1,41
 348 81 348 81 365 101 c 128,-1,42
 382 121 382 121 391.5 148 c 128,-1,43
 401 175 401 175 401 207 c 0,44,45
 401 278 401 278 365 311 c 128,-1,46
 329 344 329 344 269 344 c 0,47,48
 224 344 224 344 193.5 323 c 128,-1,49
 163 302 163 302 147 274 c 0,50,51
 141 263 141 263 139 252 c 128,-1,52
 137 241 137 241 137 230 c 0,34,35
EndSplineSet
Substitution2: "'tnum' Tabular Numbers lookup 8 subtable" tabularsix
Substitution2: "'numr' Numerators lookup 7 subtable" numsix
Substitution2: "'dnom' Denominators lookup 6 subtable" denosix
Substitution2: "'sups' Superscript lookup 5 subtable" six.superior
Substitution2: "'subs' Subscript lookup 4 subtable" six.inferior
Substitution2: "'onum' Oldstyle Figures lookup 0 subtable" sixoldstyle
EndChar

StartChar: seven
Encoding: 55 55 24
Width: 495
GlyphClass: 2
Flags: W
LayerCount: 2
Fore
SplineSet
449 630 m 1,0,-1
 449 568 l 1,1,-1
 177 -18 l 1,2,-1
 102 15 l 1,3,-1
 361 557 l 1,4,-1
 57 557 l 1,5,-1
 57 630 l 1,6,-1
 449 630 l 1,0,-1
EndSplineSet
Substitution2: "'tnum' Tabular Numbers lookup 8 subtable" tabularseven
Substitution2: "'numr' Numerators lookup 7 subtable" numseven
Substitution2: "'dnom' Denominators lookup 6 subtable" denoseven
Substitution2: "'sups' Superscript lookup 5 subtable" seven.superior
Substitution2: "'subs' Subscript lookup 4 subtable" seven.inferior
Substitution2: "'onum' Oldstyle Figures lookup 0 subtable" sevenoldstyle
EndChar

StartChar: eight
Encoding: 56 56 25
Width: 505
GlyphClass: 2
Flags: W
LayerCount: 2
Fore
SplineSet
254 639 m 256,0,1
 303 639 303 639 339.5 626 c 128,-1,2
 376 613 376 613 401 591 c 128,-1,3
 426 569 426 569 438.5 541 c 128,-1,4
 451 513 451 513 451 482 c 0,5,6
 451 437 451 437 421.5 397 c 128,-1,7
 392 357 392 357 331 333 c 1,8,9
 400 304 400 304 433.5 266.5 c 128,-1,10
 467 229 467 229 467 170 c 0,11,12
 467 126 467 126 451 93 c 128,-1,13
 435 60 435 60 406.5 37 c 128,-1,14
 378 14 378 14 339 2.5 c 128,-1,15
 300 -9 300 -9 254 -9 c 0,16,17
 209 -9 209 -9 169.5 3 c 128,-1,18
 130 15 130 15 101 37 c 128,-1,19
 72 59 72 59 55 90.5 c 128,-1,20
 38 122 38 122 38 162 c 0,21,22
 38 223 38 223 69.5 260 c 128,-1,23
 101 297 101 297 168 326 c 1,24,25
 117 349 117 349 88 386.5 c 128,-1,26
 59 424 59 424 59 473 c 0,27,28
 59 506 59 506 71 536 c 128,-1,29
 83 566 83 566 107.5 589 c 128,-1,30
 132 612 132 612 168.5 625.5 c 128,-1,31
 205 639 205 639 254 639 c 256,0,1
142 478 m 0,32,33
 142 455 142 455 151.5 437 c 128,-1,34
 161 419 161 419 176.5 405.5 c 128,-1,35
 192 392 192 392 213 381.5 c 128,-1,36
 234 371 234 371 257 363 c 1,37,38
 280 372 280 372 300 383 c 128,-1,39
 320 394 320 394 335 408.5 c 128,-1,40
 350 423 350 423 358.5 440.5 c 128,-1,41
 367 458 367 458 367 480 c 0,42,43
 367 501 367 501 358 518 c 128,-1,44
 349 535 349 535 333.5 547.5 c 128,-1,45
 318 560 318 560 297.5 566.5 c 128,-1,46
 277 573 277 573 254 573 c 0,47,48
 226 573 226 573 205 565 c 128,-1,49
 184 557 184 557 170 544 c 128,-1,50
 156 531 156 531 149 513.5 c 128,-1,51
 142 496 142 496 142 478 c 0,32,33
246 294 m 1,52,53
 193 277 193 277 160 247.5 c 128,-1,54
 127 218 127 218 127 165 c 0,55,56
 127 123 127 123 158.5 91 c 128,-1,57
 190 59 190 59 254 59 c 0,58,59
 283 59 283 59 306.5 67.5 c 128,-1,60
 330 76 330 76 346 91 c 128,-1,61
 362 106 362 106 370.5 125 c 128,-1,62
 379 144 379 144 379 165 c 0,63,64
 379 190 379 190 369 210.5 c 128,-1,65
 359 231 359 231 341 246.5 c 128,-1,66
 323 262 323 262 298.5 274 c 128,-1,67
 274 286 274 286 246 294 c 1,52,53
EndSplineSet
Substitution2: "'tnum' Tabular Numbers lookup 8 subtable" tabulareight
Substitution2: "'numr' Numerators lookup 7 subtable" numeight
Substitution2: "'dnom' Denominators lookup 6 subtable" denoeight
Substitution2: "'sups' Superscript lookup 5 subtable" eight.superior
Substitution2: "'subs' Subscript lookup 4 subtable" eight.inferior
Substitution2: "'onum' Oldstyle Figures lookup 0 subtable" eightoldstyle
EndChar

StartChar: nine
Encoding: 57 57 26
Width: 517
GlyphClass: 2
Flags: W
LayerCount: 2
Fore
SplineSet
206 -9 m 0,0,1
 161 -9 161 -9 129.5 -2.5 c 128,-1,2
 98 4 98 4 75 15 c 1,3,-1
 96 86 l 1,4,5
 117 77 117 77 140.5 69.5 c 128,-1,6
 164 62 164 62 203 62 c 0,7,8
 291 62 291 62 334 117.5 c 128,-1,9
 377 173 377 173 380 279 c 1,10,11
 355 250 355 250 316.5 233 c 128,-1,12
 278 216 278 216 236 216 c 256,13,14
 194 216 194 216 157.5 229.5 c 128,-1,15
 121 243 121 243 94.5 269.5 c 128,-1,16
 68 296 68 296 53 334 c 128,-1,17
 38 372 38 372 38 421 c 256,18,19
 38 470 38 470 54 510.5 c 128,-1,20
 70 551 70 551 99 579.5 c 128,-1,21
 128 608 128 608 167.5 623.5 c 128,-1,22
 207 639 207 639 255 639 c 0,23,24
 298 639 298 639 337 622.5 c 128,-1,25
 376 606 376 606 406 570 c 128,-1,26
 436 534 436 534 454 477.5 c 128,-1,27
 472 421 472 421 472 341 c 0,28,29
 472 244 472 244 451.5 177.5 c 128,-1,30
 431 111 431 111 395.5 69.5 c 128,-1,31
 360 28 360 28 311.5 9.5 c 128,-1,32
 263 -9 263 -9 206 -9 c 0,0,1
380 392 m 0,33,34
 380 428 380 428 370.5 460 c 128,-1,35
 361 492 361 492 344 517 c 128,-1,36
 327 542 327 542 302 556.5 c 128,-1,37
 277 571 277 571 247 571 c 0,38,39
 189 571 189 571 157.5 531.5 c 128,-1,40
 126 492 126 492 126 428 c 0,41,42
 126 357 126 357 160 321.5 c 128,-1,43
 194 286 194 286 254 286 c 0,44,45
 296 286 296 286 325 304.5 c 128,-1,46
 354 323 354 323 370 351 c 0,47,48
 376 362 376 362 378 371.5 c 128,-1,49
 380 381 380 381 380 392 c 0,33,34
EndSplineSet
Substitution2: "'tnum' Tabular Numbers lookup 8 subtable" tabularnine
Substitution2: "'numr' Numerators lookup 7 subtable" numnine
Substitution2: "'dnom' Denominators lookup 6 subtable" denonine
Substitution2: "'sups' Superscript lookup 5 subtable" nine.superior
Substitution2: "'subs' Subscript lookup 4 subtable" nine.inferior
Substitution2: "'onum' Oldstyle Figures lookup 0 subtable" nineoldstyle
EndChar

StartChar: colon
Encoding: 58 58 27
Width: 223
GlyphClass: 2
Flags: W
LayerCount: 2
Fore
SplineSet
51 54 m 0,0,1
 51 80 51 80 69 98 c 128,-1,2
 87 116 87 116 112 116 c 256,3,4
 137 116 137 116 154.5 98 c 128,-1,5
 172 80 172 80 172 54 c 0,6,7
 172 25 172 25 154.5 8 c 128,-1,8
 137 -9 137 -9 112 -9 c 256,9,10
 87 -9 87 -9 69 8 c 128,-1,11
 51 25 51 25 51 54 c 0,0,1
51 355 m 0,12,13
 51 381 51 381 69 399 c 128,-1,14
 87 417 87 417 112 417 c 256,15,16
 137 417 137 417 154.5 399 c 128,-1,17
 172 381 172 381 172 355 c 0,18,19
 172 326 172 326 154.5 309 c 128,-1,20
 137 292 137 292 112 292 c 256,21,22
 87 292 87 292 69 309 c 128,-1,23
 51 326 51 326 51 355 c 0,12,13
EndSplineSet
EndChar

StartChar: semicolon
Encoding: 59 59 28
Width: 219
GlyphClass: 2
Flags: W
LayerCount: 2
Fore
SplineSet
53 355 m 0,0,1
 53 381 53 381 71 399 c 128,-1,2
 89 417 89 417 114 417 c 256,3,4
 139 417 139 417 156.5 399 c 128,-1,5
 174 381 174 381 174 355 c 0,6,7
 174 326 174 326 156.5 309 c 128,-1,8
 139 292 139 292 114 292 c 256,9,10
 89 292 89 292 71 309 c 128,-1,11
 53 326 53 326 53 355 c 0,0,1
101 -9 m 2,12,13
 75 -6 75 -6 62 13 c 128,-1,14
 49 32 49 32 49 55 c 0,15,16
 49 79 49 79 65.5 98 c 128,-1,17
 82 117 82 117 112 117 c 0,18,19
 124 117 124 117 136.5 113.5 c 128,-1,20
 149 110 149 110 159.5 99.5 c 128,-1,21
 170 89 170 89 177 70.5 c 128,-1,22
 184 52 184 52 184 22 c 0,23,24
 184 -32 184 -32 153 -77 c 128,-1,25
 122 -122 122 -122 74 -148 c 1,26,-1
 45 -108 l 1,27,28
 71 -94 71 -94 91.5 -70.5 c 128,-1,29
 112 -47 112 -47 119 -12 c 1,30,-1
 101 -9 l 2,12,13
EndSplineSet
EndChar

StartChar: less
Encoding: 60 60 29
Width: 496
GlyphClass: 2
Flags: W
LayerCount: 2
Fore
SplineSet
66 225 m 1,0,-1
 66 283 l 1,1,-1
 430 493 l 1,2,-1
 430 421 l 1,3,-1
 131 254 l 1,4,-1
 430 87 l 1,5,-1
 430 15 l 1,6,-1
 66 225 l 1,0,-1
EndSplineSet
EndChar

StartChar: equal
Encoding: 61 61 30
Width: 463
GlyphClass: 2
Flags: W
LayerCount: 2
Fore
SplineSet
423 253 m 1,0,-1
 423 190 l 1,1,-1
 40 190 l 1,2,-1
 40 253 l 1,3,-1
 423 253 l 1,0,-1
423 422 m 1,4,-1
 423 359 l 1,5,-1
 40 359 l 1,6,-1
 40 422 l 1,7,-1
 423 422 l 1,4,-1
EndSplineSet
EndChar

StartChar: greater
Encoding: 62 62 31
Width: 496
GlyphClass: 2
Flags: W
LayerCount: 2
Fore
SplineSet
66 87 m 1,0,-1
 365 254 l 1,1,-1
 66 421 l 1,2,-1
 66 493 l 1,3,-1
 430 283 l 1,4,-1
 430 225 l 1,5,-1
 66 15 l 1,6,-1
 66 87 l 1,0,-1
EndSplineSet
EndChar

StartChar: question
Encoding: 63 63 32
Width: 437
GlyphClass: 2
Flags: W
LayerCount: 2
Fore
SplineSet
200 715 m 0,0,1
 245 715 245 715 280.5 702.5 c 128,-1,2
 316 690 316 690 341 667.5 c 128,-1,3
 366 645 366 645 379 614 c 128,-1,4
 392 583 392 583 392 547 c 0,5,6
 392 521 392 521 383.5 497.5 c 128,-1,7
 375 474 375 474 360.5 452 c 128,-1,8
 346 430 346 430 328 410.5 c 128,-1,9
 310 391 310 391 292 374 c 0,10,11
 251 337 251 337 228 309 c 128,-1,12
 205 281 205 281 205 246 c 0,13,14
 205 232 205 232 207 221 c 128,-1,15
 209 210 209 210 214 194 c 1,16,-1
 139 180 l 1,17,18
 126 212 126 212 126 247 c 0,19,20
 126 269 126 269 131.5 288 c 128,-1,21
 137 307 137 307 148 325.5 c 128,-1,22
 159 344 159 344 175 363 c 128,-1,23
 191 382 191 382 213 404 c 0,24,25
 231 422 231 422 247 438 c 128,-1,26
 263 454 263 454 275 471 c 128,-1,27
 287 488 287 488 294.5 506.5 c 128,-1,28
 302 525 302 525 302 546 c 0,29,30
 302 564 302 564 296.5 580.5 c 128,-1,31
 291 597 291 597 278.5 610 c 128,-1,32
 266 623 266 623 245.5 631 c 128,-1,33
 225 639 225 639 195 639 c 0,34,35
 172 639 172 639 146.5 632.5 c 128,-1,36
 121 626 121 626 96 608 c 1,37,-1
 58 674 l 1,38,39
 87 695 87 695 126 705 c 128,-1,40
 165 715 165 715 200 715 c 0,0,1
124 54 m 0,41,42
 124 80 124 80 142 98 c 128,-1,43
 160 116 160 116 185 116 c 256,44,45
 210 116 210 116 227.5 98 c 128,-1,46
 245 80 245 80 245 54 c 0,47,48
 245 25 245 25 227.5 8 c 128,-1,49
 210 -9 210 -9 185 -9 c 256,50,51
 160 -9 160 -9 142 8 c 128,-1,52
 124 25 124 25 124 54 c 0,41,42
EndSplineSet
EndChar

StartChar: at
Encoding: 64 64 33
Width: 965
GlyphClass: 2
Flags: W
LayerCount: 2
Fore
SplineSet
564 62 m 1,0,-1
 562 62 l 1,1,2
 545 45 545 45 528.5 31.5 c 128,-1,3
 512 18 512 18 493 9 c 128,-1,4
 474 0 474 0 452.5 -4.5 c 128,-1,5
 431 -9 431 -9 403 -9 c 0,6,7
 342 -9 342 -9 306 24.5 c 128,-1,8
 270 58 270 58 270 112 c 0,9,10
 270 155 270 155 288 186.5 c 128,-1,11
 306 218 306 218 336.5 238 c 128,-1,12
 367 258 367 258 407.5 267.5 c 128,-1,13
 448 277 448 277 493 277 c 2,14,-1
 583 277 l 1,15,-1
 590 317 l 2,16,17
 591 324 591 324 591.5 330 c 128,-1,18
 592 336 592 336 592 342 c 0,19,20
 592 378 592 378 570 391.5 c 128,-1,21
 548 405 548 405 510 405 c 0,22,23
 486 405 486 405 449 396.5 c 128,-1,24
 412 388 412 388 365 364 c 1,25,-1
 341 428 l 1,26,27
 392 453 392 453 436 465 c 128,-1,28
 480 477 480 477 527 477 c 0,29,30
 561 477 561 477 589 470.5 c 128,-1,31
 617 464 617 464 637.5 449 c 128,-1,32
 658 434 658 434 669 409.5 c 128,-1,33
 680 385 680 385 680 349 c 0,34,35
 680 330 680 330 677 306 c 2,36,-1
 651 146 l 2,37,38
 645 114 645 114 645 96 c 0,39,40
 645 76 645 76 652 68 c 128,-1,41
 659 60 659 60 676 60 c 0,42,43
 706 60 706 60 734 79 c 128,-1,44
 762 98 762 98 783.5 133.5 c 128,-1,45
 805 169 805 169 818.5 218.5 c 128,-1,46
 832 268 832 268 832 329 c 0,47,48
 832 392 832 392 812.5 446 c 128,-1,49
 793 500 793 500 755.5 539.5 c 128,-1,50
 718 579 718 579 664 602 c 128,-1,51
 610 625 610 625 540 625 c 0,52,53
 440 625 440 625 364 589.5 c 128,-1,54
 288 554 288 554 237 493 c 128,-1,55
 186 432 186 432 160 349.5 c 128,-1,56
 134 267 134 267 134 173 c 0,57,58
 134 82 134 82 163.5 20.5 c 128,-1,59
 193 -41 193 -41 240.5 -79 c 128,-1,60
 288 -117 288 -117 347.5 -133.5 c 128,-1,61
 407 -150 407 -150 466 -150 c 0,62,63
 530 -150 530 -150 575 -138.5 c 128,-1,64
 620 -127 620 -127 660 -111 c 1,65,-1
 678 -173 l 1,66,67
 636 -191 636 -191 577.5 -205 c 128,-1,68
 519 -219 519 -219 450 -219 c 0,69,70
 376 -219 376 -219 304.5 -198 c 128,-1,71
 233 -177 233 -177 177 -130.5 c 128,-1,72
 121 -84 121 -84 86.5 -10.5 c 128,-1,73
 52 63 52 63 52 169 c 0,74,75
 52 291 52 291 91 388 c 128,-1,76
 130 485 130 485 196.5 552.5 c 128,-1,77
 263 620 263 620 351 656 c 128,-1,78
 439 692 439 692 536 692 c 0,79,80
 628 692 628 692 699 664.5 c 128,-1,81
 770 637 770 637 818.5 589 c 128,-1,82
 867 541 867 541 892 475.5 c 128,-1,83
 917 410 917 410 917 333 c 0,84,85
 917 246 917 246 892.5 182.5 c 128,-1,86
 868 119 868 119 830.5 78.5 c 128,-1,87
 793 38 793 38 747.5 18.5 c 128,-1,88
 702 -1 702 -1 659 -1 c 0,89,90
 633 -1 633 -1 613 2.5 c 128,-1,91
 593 6 593 6 582 11 c 1,92,-1
 564 62 l 1,0,-1
575 217 m 1,93,-1
 500 215 l 2,94,95
 424 213 424 213 393.5 186 c 128,-1,96
 363 159 363 159 363 119 c 0,97,98
 363 87 363 87 384.5 71.5 c 128,-1,99
 406 56 406 56 437 56 c 0,100,101
 503 56 503 56 560 121 c 1,102,-1
 575 217 l 1,93,-1
EndSplineSet
EndChar

StartChar: bracketleft
Encoding: 91 91 34
Width: 301
GlyphClass: 2
Flags: W
LayerCount: 2
Fore
SplineSet
81 -155 m 1,0,-1
 81 720 l 1,1,-1
 271 720 l 1,2,-1
 271 654 l 1,3,-1
 167 654 l 1,4,-1
 167 -88 l 1,5,-1
 271 -88 l 1,6,-1
 271 -155 l 1,7,-1
 81 -155 l 1,0,-1
EndSplineSet
EndChar

StartChar: backslash
Encoding: 92 92 35
Width: 331
GlyphClass: 2
Flags: W
LayerCount: 2
Fore
SplineSet
256 -88 m 1,0,-1
 0 720 l 1,1,-1
 75 720 l 1,2,-1
 331 -88 l 1,3,-1
 256 -88 l 1,0,-1
EndSplineSet
EndChar

StartChar: bracketright
Encoding: 93 93 36
Width: 301
GlyphClass: 2
Flags: W
LayerCount: 2
Fore
SplineSet
30 -155 m 1,0,-1
 30 -88 l 1,1,-1
 134 -88 l 1,2,-1
 134 654 l 1,3,-1
 30 654 l 1,4,-1
 30 720 l 1,5,-1
 220 720 l 1,6,-1
 220 -155 l 1,7,-1
 30 -155 l 1,0,-1
EndSplineSet
EndChar

StartChar: asciicircum
Encoding: 94 94 37
Width: 516
GlyphClass: 2
Flags: W
LayerCount: 2
Fore
SplineSet
456 416 m 1,0,-1
 380 416 l 1,1,-1
 258 659 l 1,2,-1
 138 416 l 1,3,-1
 61 416 l 1,4,-1
 228 720 l 1,5,-1
 287 720 l 1,6,-1
 456 416 l 1,0,-1
EndSplineSet
EndChar

StartChar: underscore
Encoding: 95 95 38
Width: 366
GlyphClass: 2
Flags: W
LayerCount: 2
Fore
SplineSet
356 -190 m 1,0,-1
 356 -250 l 1,1,-1
 10 -250 l 1,2,-1
 10 -190 l 1,3,-1
 356 -190 l 1,0,-1
EndSplineSet
EndChar

StartChar: braceleft
Encoding: 123 123 39
Width: 326
GlyphClass: 2
Flags: W
LayerCount: 2
Fore
SplineSet
301 639 m 1,0,1
 250 639 250 639 224.5 612 c 128,-1,2
 199 585 199 585 199 536 c 2,3,-1
 199 393 l 2,4,5
 199 347 199 347 182.5 319.5 c 128,-1,6
 166 292 166 292 126 279 c 1,7,-1
 126 276 l 1,8,9
 164 259 164 259 181.5 224 c 128,-1,10
 199 189 199 189 199 135 c 2,11,-1
 199 -7 l 2,12,13
 199 -42 199 -42 224.5 -63 c 128,-1,14
 250 -84 250 -84 301 -86 c 1,15,-1
 301 -155 l 1,16,17
 218 -153 218 -153 167 -110.5 c 128,-1,18
 116 -68 116 -68 116 7 c 2,19,-1
 116 155 l 2,20,21
 116 197 116 197 95 220.5 c 128,-1,22
 74 244 74 244 28 246 c 1,23,-1
 28 307 l 1,24,25
 73 312 73 312 94.5 332 c 128,-1,26
 116 352 116 352 116 395 c 2,27,-1
 116 555 l 2,28,29
 116 587 116 587 128 614.5 c 128,-1,30
 140 642 140 642 163.5 662 c 128,-1,31
 187 682 187 682 221.5 693.5 c 128,-1,32
 256 705 256 705 301 705 c 1,33,-1
 301 639 l 1,0,1
EndSplineSet
EndChar

StartChar: bar
Encoding: 124 124 40
Width: 219
GlyphClass: 2
Flags: W
LayerCount: 2
Fore
SplineSet
72 -230 m 1,0,-1
 72 750 l 1,1,-1
 147 750 l 1,2,-1
 147 -230 l 1,3,-1
 72 -230 l 1,0,-1
EndSplineSet
EndChar

StartChar: braceright
Encoding: 125 125 41
Width: 326
GlyphClass: 2
Flags: W
LayerCount: 2
Fore
SplineSet
25 710 m 1,0,1
 70 710 70 710 104.5 698 c 128,-1,2
 139 686 139 686 162.5 665 c 128,-1,3
 186 644 186 644 198 615.5 c 128,-1,4
 210 587 210 587 210 555 c 2,5,-1
 210 395 l 2,6,7
 210 352 210 352 231.5 332 c 128,-1,8
 253 312 253 312 298 307 c 1,9,-1
 298 246 l 1,10,11
 252 244 252 244 231 220.5 c 128,-1,12
 210 197 210 197 210 155 c 2,13,-1
 210 7 l 2,14,15
 210 -68 210 -68 159 -110.5 c 128,-1,16
 108 -153 108 -153 25 -155 c 1,17,-1
 25 -86 l 1,18,19
 76 -84 76 -84 101.5 -63 c 128,-1,20
 127 -42 127 -42 127 -7 c 2,21,-1
 127 135 l 2,22,23
 127 189 127 189 144.5 224 c 128,-1,24
 162 259 162 259 200 276 c 1,25,-1
 200 279 l 1,26,27
 160 292 160 292 143.5 319.5 c 128,-1,28
 127 347 127 347 127 393 c 2,29,-1
 127 536 l 2,30,31
 127 585 127 585 101.5 612 c 128,-1,32
 76 639 76 639 25 639 c 1,33,-1
 25 710 l 1,0,1
EndSplineSet
EndChar

StartChar: asciitilde
Encoding: 126 126 42
Width: 586
GlyphClass: 2
Flags: W
LayerCount: 2
Fore
SplineSet
48 210 m 1,0,1
 48 285 48 285 87 323.5 c 128,-1,2
 126 362 126 362 186 362 c 0,3,4
 216 362 216 362 244.5 349 c 128,-1,5
 273 336 273 336 300 320 c 128,-1,6
 327 304 327 304 352.5 291 c 128,-1,7
 378 278 378 278 402 278 c 0,8,9
 439 278 439 278 459 299.5 c 128,-1,10
 479 321 479 321 479 361 c 1,11,-1
 538 361 l 1,12,13
 538 316 538 316 525.5 287 c 128,-1,14
 513 258 513 258 493.5 240.5 c 128,-1,15
 474 223 474 223 450 216 c 128,-1,16
 426 209 426 209 403 209 c 0,17,18
 373 209 373 209 344 222.5 c 128,-1,19
 315 236 315 236 288 252 c 128,-1,20
 261 268 261 268 235.5 281.5 c 128,-1,21
 210 295 210 295 185 295 c 0,22,23
 147 295 147 295 127 270 c 128,-1,24
 107 245 107 245 107 210 c 1,25,-1
 48 210 l 1,0,1
EndSplineSet
EndChar

StartChar: divide
Encoding: 247 247 43
Width: 501
GlyphClass: 2
Flags: W
LayerCount: 2
Fore
SplineSet
80 630 m 1,0,-1
 460 630 l 1,1,-1
 460 554 l 1,2,-1
 172 554 l 1,3,-1
 172 365 l 1,4,-1
 434 365 l 1,5,-1
 434 290 l 1,6,-1
 172 290 l 1,7,-1
 172 76 l 1,8,-1
 463 76 l 1,9,-1
 463 0 l 1,10,-1
 80 0 l 1,11,-1
 80 630 l 1,0,-1
EndSplineSet
EndChar

StartChar: dollar
Encoding: 36 36 45
Width: 530
GlyphClass: 2
Flags: W
LayerCount: 2
Fore
SplineSet
233 720 m 1,0,-1
 298 720 l 1,1,-1
 298 617 l 1,2,3
 359 612 359 612 423 582 c 1,4,-1
 397 514 l 1,5,6
 361 533 361 533 329 541 c 128,-1,7
 297 549 297 549 265 549 c 0,8,9
 216 549 216 549 185 527 c 128,-1,10
 154 505 154 505 154 460 c 0,11,12
 154 419 154 419 182 400 c 128,-1,13
 210 381 210 381 256 366 c 2,14,-1
 302 351 l 2,15,16
 379 326 379 326 418.5 285.5 c 128,-1,17
 458 245 458 245 458 181 c 0,18,19
 458 143 458 143 444 113.5 c 128,-1,20
 430 84 430 84 406.5 62.5 c 128,-1,21
 383 41 383 41 351 28 c 128,-1,22
 319 15 319 15 283 11 c 1,23,-1
 283 -94 l 1,24,-1
 218 -94 l 1,25,-1
 218 11 l 1,26,27
 175 13 175 13 140.5 23 c 128,-1,28
 106 33 106 33 68 53 c 1,29,-1
 100 121 l 1,30,31
 142 97 142 97 181 88.5 c 128,-1,32
 220 80 220 80 250 80 c 0,33,34
 275 80 275 80 296.5 85.5 c 128,-1,35
 318 91 318 91 334.5 102.5 c 128,-1,36
 351 114 351 114 360.5 132 c 128,-1,37
 370 150 370 150 370 174 c 0,38,39
 370 216 370 216 340.5 238 c 128,-1,40
 311 260 311 260 254 278 c 2,41,-1
 208 293 l 2,42,43
 176 303 176 303 150 316.5 c 128,-1,44
 124 330 124 330 105.5 349 c 128,-1,45
 87 368 87 368 76.5 392.5 c 128,-1,46
 66 417 66 417 66 449 c 0,47,48
 66 525 66 525 111 568 c 128,-1,49
 156 611 156 611 233 618 c 1,50,-1
 233 720 l 1,0,-1
EndSplineSet
EndChar

StartChar: A
Encoding: 65 65 46
Width: 674
GlyphClass: 2
Flags: W
LayerCount: 2
Fore
SplineSet
40 597 m 1,0,1
 63 616 63 616 103 627.5 c 128,-1,2
 143 639 143 639 181 639 c 0,3,4
 220 639 220 639 253 628.5 c 128,-1,5
 286 618 286 618 311 598 c 128,-1,6
 336 578 336 578 350 548 c 128,-1,7
 364 518 364 518 364 479 c 0,8,9
 364 431 364 431 342 398.5 c 128,-1,10
 320 366 320 366 291 348 c 1,11,12
 320 340 320 340 350 336.5 c 128,-1,13
 380 333 380 333 405 333 c 0,14,15
 435 333 435 333 467.5 341 c 128,-1,16
 500 349 500 349 516 360 c 1,17,-1
 516 566 l 1,18,-1
 424 566 l 1,19,-1
 424 630 l 1,20,-1
 684 630 l 1,21,-1
 684 566 l 1,22,-1
 594 566 l 1,23,-1
 594 0 l 1,24,-1
 516 0 l 1,25,-1
 516 281 l 1,26,27
 480 265 480 265 429 265 c 0,28,29
 407 265 407 265 388.5 268.5 c 128,-1,30
 370 272 370 272 343 283 c 1,31,-1
 341 281 l 1,32,33
 359 260 359 260 368.5 237.5 c 128,-1,34
 378 215 378 215 378 186 c 0,35,36
 378 105 378 105 325.5 59.5 c 128,-1,37
 273 14 273 14 183 14 c 0,38,39
 160 14 160 14 137 18 c 128,-1,40
 114 22 114 22 92 29.5 c 128,-1,41
 70 37 70 37 51.5 47 c 128,-1,42
 33 57 33 57 20 69 c 1,43,-1
 53 126 l 1,44,45
 79 104 79 104 109.5 92.5 c 128,-1,46
 140 81 140 81 178 81 c 0,47,48
 202 81 202 81 223.5 87 c 128,-1,49
 245 93 245 93 261.5 106 c 128,-1,50
 278 119 278 119 288 140 c 128,-1,51
 298 161 298 161 298 190 c 0,52,53
 298 241 298 241 266.5 272 c 128,-1,54
 235 303 235 303 164 303 c 2,55,-1
 102 303 l 1,56,-1
 102 368 l 1,57,-1
 155 368 l 2,58,59
 214 367 214 367 249 395 c 128,-1,60
 284 423 284 423 284 475 c 0,61,62
 284 524 284 524 252 548 c 128,-1,63
 220 572 220 572 178 572 c 0,64,65
 155 572 155 572 126.5 565.5 c 128,-1,66
 98 559 98 559 72 541 c 1,67,-1
 40 597 l 1,0,1
EndSplineSet
EndChar

StartChar: B
Encoding: 66 66 47
Width: 537
GlyphClass: 2
Flags: W
LayerCount: 2
Fore
SplineSet
269 630 m 2,0,1
 363 630 363 630 415.5 589.5 c 128,-1,2
 468 549 468 549 468 471 c 0,3,4
 468 413 468 413 435.5 380.5 c 128,-1,5
 403 348 403 348 354 335 c 1,6,7
 382 330 382 330 406 317.5 c 128,-1,8
 430 305 430 305 448 285 c 128,-1,9
 466 265 466 265 476.5 237.5 c 128,-1,10
 487 210 487 210 487 176 c 0,11,12
 487 137 487 137 470 104.5 c 128,-1,13
 453 72 453 72 423 49 c 128,-1,14
 393 26 393 26 352 13 c 128,-1,15
 311 0 311 0 262 0 c 2,16,-1
 80 0 l 1,17,-1
 80 630 l 1,18,-1
 269 630 l 2,0,1
172 367 m 1,19,-1
 247 367 l 2,20,21
 272 367 272 367 295 371 c 128,-1,22
 318 375 318 375 335.5 386 c 128,-1,23
 353 397 353 397 363.5 415.5 c 128,-1,24
 374 434 374 434 374 464 c 0,25,26
 374 512 374 512 341.5 534 c 128,-1,27
 309 556 309 556 255 556 c 2,28,-1
 172 556 l 1,29,-1
 172 367 l 1,19,-1
172 74 m 1,30,-1
 252 74 l 2,31,32
 280 74 280 74 305 79.5 c 128,-1,33
 330 85 330 85 349 98 c 128,-1,34
 368 111 368 111 379.5 132.5 c 128,-1,35
 391 154 391 154 391 185 c 256,36,37
 391 216 391 216 377.5 236.5 c 128,-1,38
 364 257 364 257 342 270 c 128,-1,39
 320 283 320 283 292 288.5 c 128,-1,40
 264 294 264 294 236 294 c 2,41,-1
 172 294 l 1,42,-1
 172 74 l 1,30,-1
EndSplineSet
EndChar

StartChar: C
Encoding: 67 67 48
Width: 559
GlyphClass: 2
Flags: W
LayerCount: 2
Fore
SplineSet
355 67 m 0,0,1
 405 67 405 67 437.5 75 c 128,-1,2
 470 83 470 83 502 98 c 1,3,-1
 523 24 l 1,4,5
 488 7 488 7 446.5 -1 c 128,-1,6
 405 -9 405 -9 345 -9 c 0,7,8
 283 -9 283 -9 228 12 c 128,-1,9
 173 33 173 33 132.5 74 c 128,-1,10
 92 115 92 115 68.5 175.5 c 128,-1,11
 45 236 45 236 45 315 c 0,12,13
 45 392 45 392 68 452.5 c 128,-1,14
 91 513 91 513 131.5 554.5 c 128,-1,15
 172 596 172 596 228 617.5 c 128,-1,16
 284 639 284 639 350 639 c 0,17,18
 412 639 412 639 452 629 c 128,-1,19
 492 619 492 619 526 602 c 1,20,-1
 504 530 l 1,21,22
 485 538 485 538 468.5 544.5 c 128,-1,23
 452 551 452 551 435.5 555 c 128,-1,24
 419 559 419 559 401.5 561 c 128,-1,25
 384 563 384 563 362 563 c 0,26,27
 318 563 318 563 278.5 549.5 c 128,-1,28
 239 536 239 536 209.5 506 c 128,-1,29
 180 476 180 476 162.5 428.5 c 128,-1,30
 145 381 145 381 145 314 c 0,31,32
 145 246 145 246 162 199 c 128,-1,33
 179 152 179 152 207.5 123 c 128,-1,34
 236 94 236 94 274 80.5 c 128,-1,35
 312 67 312 67 355 67 c 0,0,1
EndSplineSet
EndChar

StartChar: D
Encoding: 68 68 49
Width: 506
GlyphClass: 2
Flags: W
AnchorPoint: "Anchor-12" 580 40 basechar 0
AnchorPoint: "Anchor-7" 600 -30 basechar 0
AnchorPoint: "Anchor-6" 550 -30 basechar 0
AnchorPoint: "Anchor-5" 550 -30 basechar 0
AnchorPoint: "Anchor-4" 550 -30 basechar 0
AnchorPoint: "Anchor-1" 485 0 basechar 0
LayerCount: 2
Fore
SplineSet
456 187 m 0,0,1
 456 164 456 164 446 146.5 c 128,-1,2
 436 129 436 129 425 118 c 1,3,-1
 493 -38 l 1,4,-1
 421 -64 l 1,5,-1
 369 85 l 1,6,7
 321 62 321 62 257 62 c 0,8,9
 218 62 218 62 179 74.5 c 128,-1,10
 140 87 140 87 109 113 c 128,-1,11
 78 139 78 139 59 178 c 128,-1,12
 40 217 40 217 40 271 c 0,13,14
 40 323 40 323 58 360 c 128,-1,15
 76 397 76 397 105.5 421 c 128,-1,16
 135 445 135 445 173 456.5 c 128,-1,17
 211 468 211 468 251 468 c 2,18,-1
 329 468 l 1,19,-1
 329 566 l 1,20,-1
 -10 566 l 1,21,-1
 -10 630 l 1,22,-1
 526 630 l 1,23,-1
 526 566 l 1,24,-1
 406 566 l 1,25,-1
 406 402 l 1,26,-1
 278 402 l 2,27,28
 246 402 246 402 217.5 394.5 c 128,-1,29
 189 387 189 387 168 370.5 c 128,-1,30
 147 354 147 354 134.5 329 c 128,-1,31
 122 304 122 304 122 269 c 0,32,33
 122 233 122 233 133.5 206.5 c 128,-1,34
 145 180 145 180 163.5 163 c 128,-1,35
 182 146 182 146 205.5 138 c 128,-1,36
 229 130 229 130 253 130 c 0,37,38
 311 130 311 130 343 153 c 1,39,-1
 317 235 l 1,40,41
 341 264 341 264 381 264 c 0,42,43
 417 264 417 264 436.5 242.5 c 128,-1,44
 456 221 456 221 456 187 c 0,0,1
EndSplineSet
EndChar

StartChar: E
Encoding: 69 69 50
Width: 501
GlyphClass: 2
Flags: W
LayerCount: 2
Fore
SplineSet
80 630 m 1,0,-1
 460 630 l 1,1,-1
 460 554 l 1,2,-1
 172 554 l 1,3,-1
 172 365 l 1,4,-1
 434 365 l 1,5,-1
 434 290 l 1,6,-1
 172 290 l 1,7,-1
 172 76 l 1,8,-1
 463 76 l 1,9,-1
 463 0 l 1,10,-1
 80 0 l 1,11,-1
 80 630 l 1,0,-1
EndSplineSet
EndChar

StartChar: F
Encoding: 70 70 51
Width: 485
GlyphClass: 2
Flags: W
LayerCount: 2
Fore
SplineSet
450 630 m 1,0,-1
 450 554 l 1,1,-1
 172 554 l 1,2,-1
 172 350 l 1,3,-1
 428 350 l 1,4,-1
 428 275 l 1,5,-1
 172 275 l 1,6,-1
 172 0 l 1,7,-1
 80 0 l 1,8,-1
 80 630 l 1,9,-1
 450 630 l 1,0,-1
EndSplineSet
EndChar

StartChar: G
Encoding: 71 71 52
Width: 618
GlyphClass: 2
Flags: W
LayerCount: 2
Fore
SplineSet
355 639 m 0,0,1
 410 639 410 639 454.5 631 c 128,-1,2
 499 623 499 623 537 603 c 1,3,-1
 515 531 l 1,4,5
 478 548 478 548 442.5 556 c 128,-1,6
 407 564 407 564 366 564 c 0,7,8
 322 564 322 564 282 551 c 128,-1,9
 242 538 242 538 211.5 508.5 c 128,-1,10
 181 479 181 479 163 431.5 c 128,-1,11
 145 384 145 384 145 314 c 0,12,13
 145 193 145 193 200 130 c 128,-1,14
 255 67 255 67 355 67 c 0,15,16
 393 67 393 67 420.5 71 c 128,-1,17
 448 75 448 75 474 85 c 1,18,-1
 474 260 l 1,19,-1
 355 260 l 1,20,-1
 355 332 l 1,21,-1
 560 332 l 1,22,-1
 560 28 l 1,23,24
 520 12 520 12 471 1.5 c 128,-1,25
 422 -9 422 -9 355 -9 c 0,26,27
 290 -9 290 -9 233.5 12 c 128,-1,28
 177 33 177 33 135 74 c 128,-1,29
 93 115 93 115 69 175 c 128,-1,30
 45 235 45 235 45 314 c 256,31,32
 45 393 45 393 68.5 454 c 128,-1,33
 92 515 92 515 133 556 c 128,-1,34
 174 597 174 597 231 618 c 128,-1,35
 288 639 288 639 355 639 c 0,0,1
EndSplineSet
EndChar

StartChar: H
Encoding: 72 72 53
Width: 496
GlyphClass: 2
Flags: W
AnchorPoint: "Anchor-12" 540 -70 basechar 0
AnchorPoint: "Anchor-7" 550 -30 basechar 0
AnchorPoint: "Anchor-6" 433 -65 basechar 0
AnchorPoint: "Anchor-5" 433 -45 basechar 0
AnchorPoint: "Anchor-4" 433 -45 basechar 0
AnchorPoint: "Anchor-1" 470 0 basechar 0
LayerCount: 2
Fore
SplineSet
335 -98 m 1,0,1
 263 -90 263 -90 211 -69 c 128,-1,2
 159 -48 159 -48 125.5 -18 c 128,-1,3
 92 12 92 12 76 49.5 c 128,-1,4
 60 87 60 87 60 128 c 0,5,6
 60 167 60 167 72.5 194.5 c 128,-1,7
 85 222 85 222 105 242 c 1,8,9
 83 265 83 265 66.5 291.5 c 128,-1,10
 50 318 50 318 50 355 c 0,11,12
 50 383 50 383 60.5 404.5 c 128,-1,13
 71 426 71 426 88.5 440 c 128,-1,14
 106 454 106 454 129.5 461 c 128,-1,15
 153 468 153 468 179 468 c 2,16,-1
 318 468 l 1,17,-1
 318 566 l 1,18,-1
 -10 566 l 1,19,-1
 -10 630 l 1,20,-1
 516 630 l 1,21,-1
 516 566 l 1,22,-1
 395 566 l 1,23,-1
 395 404 l 1,24,-1
 206 404 l 2,25,26
 175 404 175 404 152.5 393.5 c 128,-1,27
 130 383 130 383 130 347 c 0,28,29
 130 327 130 327 138 310 c 128,-1,30
 146 293 146 293 157 279 c 1,31,32
 183 294 183 294 213.5 300 c 128,-1,33
 244 306 244 306 276 306 c 0,34,35
 318 306 318 306 351.5 294 c 128,-1,36
 385 282 385 282 408 261 c 128,-1,37
 431 240 431 240 443.5 212.5 c 128,-1,38
 456 185 456 185 456 154 c 0,39,40
 456 122 456 122 443 93.5 c 128,-1,41
 430 65 430 65 410 46 c 1,42,-1
 350 89 l 1,43,44
 363 102 363 102 370.5 117.5 c 128,-1,45
 378 133 378 133 378 153 c 0,46,47
 378 168 378 168 372.5 183.5 c 128,-1,48
 367 199 367 199 355 211 c 128,-1,49
 343 223 343 223 323 231 c 128,-1,50
 303 239 303 239 274 239 c 0,51,52
 214 239 214 239 177 207.5 c 128,-1,53
 140 176 140 176 140 126 c 0,54,55
 140 99 140 99 148.5 73 c 128,-1,56
 157 47 157 47 181 25.5 c 128,-1,57
 205 4 205 4 247 -12 c 128,-1,58
 289 -28 289 -28 356 -35 c 1,59,-1
 335 -98 l 1,0,1
EndSplineSet
EndChar

StartChar: I
Encoding: 73 73 54
Width: 251
GlyphClass: 2
Flags: W
LayerCount: 2
Fore
SplineSet
172 630 m 1,0,-1
 172 0 l 1,1,-1
 80 0 l 1,2,-1
 80 630 l 1,3,-1
 172 630 l 1,0,-1
EndSplineSet
EndChar

StartChar: J
Encoding: 74 74 55
Width: 269
GlyphClass: 2
Flags: W
LayerCount: 2
Fore
SplineSet
197 630 m 1,0,-1
 197 115 l 2,1,2
 197 45 197 45 190.5 0 c 128,-1,3
 184 -45 184 -45 159 -79 c 0,4,5
 129 -121 129 -121 81 -137.5 c 128,-1,6
 33 -154 33 -154 -15 -155 c 1,7,-1
 -15 -80 l 1,8,9
 44 -79 44 -79 76 -43 c 0,10,11
 94 -23 94 -23 99.5 6 c 128,-1,12
 105 35 105 35 105 67 c 2,13,-1
 105 630 l 1,14,-1
 197 630 l 1,0,-1
EndSplineSet
EndChar

StartChar: K
Encoding: 75 75 56
Width: 576
GlyphClass: 2
Flags: W
LayerCount: 2
Fore
SplineSet
80 0 m 1,0,-1
 80 630 l 1,1,-1
 172 630 l 1,2,-1
 172 345 l 1,3,-1
 437 630 l 1,4,-1
 551 630 l 1,5,-1
 291 351 l 1,6,-1
 571 0 l 1,7,-1
 455 0 l 1,8,-1
 225 288 l 1,9,-1
 172 231 l 1,10,-1
 172 0 l 1,11,-1
 80 0 l 1,0,-1
EndSplineSet
EndChar

StartChar: L
Encoding: 76 76 57
Width: 505
GlyphClass: 2
Flags: W
LayerCount: 2
Fore
SplineSet
75 0 m 1,0,-1
 55 60 l 1,1,2
 116 93 116 93 142 146.5 c 128,-1,3
 168 200 168 200 154 275 c 1,4,-1
 61 275 l 1,5,-1
 61 338 l 1,6,-1
 144 338 l 1,7,8
 140 361 140 361 136.5 389 c 128,-1,9
 133 417 133 417 133 446 c 0,10,11
 133 490 133 490 148.5 526 c 128,-1,12
 164 562 164 562 191 587 c 128,-1,13
 218 612 218 612 255.5 625.5 c 128,-1,14
 293 639 293 639 337 639 c 0,15,16
 374 639 374 639 405 631.5 c 128,-1,17
 436 624 436 624 452 614 c 1,18,-1
 432 548 l 1,19,20
 413 556 413 556 389.5 562 c 128,-1,21
 366 568 366 568 337 568 c 0,22,23
 276 568 276 568 245.5 533.5 c 128,-1,24
 215 499 215 499 215 445 c 0,25,26
 215 413 215 413 218.5 387.5 c 128,-1,27
 222 362 222 362 227 338 c 1,28,-1
 391 338 l 1,29,-1
 391 275 l 1,30,-1
 235 275 l 1,31,32
 243 211 243 211 230 162.5 c 128,-1,33
 217 114 217 114 169 78 c 1,34,-1
 170 74 l 1,35,-1
 460 74 l 1,36,-1
 460 0 l 1,37,-1
 75 0 l 1,0,-1
EndSplineSet
EndChar

StartChar: M
Encoding: 77 77 58
Width: 811
GlyphClass: 2
Flags: W
LayerCount: 2
Fore
SplineSet
117 630 m 1,0,-1
 237 630 l 1,1,-1
 369 228 l 2,2,3
 379 199 379 199 388 171.5 c 128,-1,4
 397 144 397 144 405 116 c 1,5,-1
 407 116 l 1,6,7
 415 144 415 144 423.5 170 c 128,-1,8
 432 196 432 196 443 228 c 2,9,-1
 572 630 l 1,10,-1
 692 630 l 1,11,-1
 747 0 l 1,12,-1
 655 0 l 1,13,-1
 629 334 l 2,14,15
 625 383 625 383 623 431.5 c 128,-1,16
 621 480 621 480 619 530 c 1,17,-1
 617 530 l 1,18,19
 603 481 603 481 588.5 432 c 128,-1,20
 574 383 574 383 558 334 c 2,21,-1
 447 0 l 1,22,-1
 363 0 l 1,23,-1
 252 335 l 2,24,25
 235 386 235 386 221 432.5 c 128,-1,26
 207 479 207 479 193 530 c 1,27,-1
 191 530 l 1,28,29
 189 481 189 481 185.5 432 c 128,-1,30
 182 383 182 383 178 334 c 2,31,-1
 154 0 l 1,32,-1
 64 0 l 1,33,-1
 117 630 l 1,0,-1
EndSplineSet
EndChar

StartChar: N
Encoding: 78 78 59
Width: 672
GlyphClass: 2
Flags: W
LayerCount: 2
Fore
SplineSet
80 630 m 1,0,-1
 160 630 l 1,1,-1
 447 231 l 2,2,3
 463 209 463 209 478 186 c 128,-1,4
 493 163 493 163 505 141 c 1,5,-1
 507 141 l 1,6,7
 505 176 505 176 504 211 c 128,-1,8
 503 246 503 246 503 281 c 2,9,-1
 503 630 l 1,10,-1
 593 630 l 1,11,-1
 593 0 l 1,12,-1
 513 0 l 1,13,-1
 229 394 l 2,14,15
 214 415 214 415 198 441.5 c 128,-1,16
 182 468 182 468 168 494 c 1,17,-1
 166 494 l 1,18,19
 168 452 168 452 169 410 c 128,-1,20
 170 368 170 368 170 326 c 2,21,-1
 170 0 l 1,22,-1
 80 0 l 1,23,-1
 80 630 l 1,0,-1
EndSplineSet
EndChar

StartChar: O
Encoding: 79 79 60
Width: 686
GlyphClass: 2
Flags: W
LayerCount: 2
Fore
SplineSet
345 639 m 256,0,1
 409 639 409 639 463 618.5 c 128,-1,2
 517 598 517 598 556.5 557.5 c 128,-1,3
 596 517 596 517 618 456.5 c 128,-1,4
 640 396 640 396 640 315 c 0,5,6
 640 236 640 236 617 175.5 c 128,-1,7
 594 115 594 115 554 74 c 128,-1,8
 514 33 514 33 459.5 12 c 128,-1,9
 405 -9 405 -9 341 -9 c 256,10,11
 277 -9 277 -9 223 11.5 c 128,-1,12
 169 32 169 32 129.5 72.5 c 128,-1,13
 90 113 90 113 68 173.5 c 128,-1,14
 46 234 46 234 46 315 c 0,15,16
 46 394 46 394 69 454.5 c 128,-1,17
 92 515 92 515 132 556 c 128,-1,18
 172 597 172 597 226.5 618 c 128,-1,19
 281 639 281 639 345 639 c 256,0,1
146 315 m 256,20,21
 146 251 146 251 161.5 204 c 128,-1,22
 177 157 177 157 204 126 c 128,-1,23
 231 95 231 95 267.5 80 c 128,-1,24
 304 65 304 65 345 65 c 256,25,26
 386 65 386 65 421.5 80 c 128,-1,27
 457 95 457 95 483.5 126 c 128,-1,28
 510 157 510 157 525 204 c 128,-1,29
 540 251 540 251 540 315 c 0,30,31
 540 381 540 381 524.5 428 c 128,-1,32
 509 475 509 475 482 505.5 c 128,-1,33
 455 536 455 536 418.5 550.5 c 128,-1,34
 382 565 382 565 341 565 c 256,35,36
 300 565 300 565 264 550 c 128,-1,37
 228 535 228 535 202 504 c 128,-1,38
 176 473 176 473 161 426 c 128,-1,39
 146 379 146 379 146 315 c 256,20,21
EndSplineSet
EndChar

StartChar: P
Encoding: 80 80 61
Width: 523
GlyphClass: 2
Flags: W
LayerCount: 2
Fore
SplineSet
80 630 m 1,0,-1
 278 630 l 2,1,2
 327 630 327 630 367 617.5 c 128,-1,3
 407 605 407 605 436 580.5 c 128,-1,4
 465 556 465 556 481 520.5 c 128,-1,5
 497 485 497 485 497 439 c 0,6,7
 497 389 497 389 480 352.5 c 128,-1,8
 463 316 463 316 432 292 c 128,-1,9
 401 268 401 268 359 256 c 128,-1,10
 317 244 317 244 266 244 c 2,11,-1
 172 244 l 1,12,-1
 172 0 l 1,13,-1
 80 0 l 1,14,-1
 80 630 l 1,0,-1
172 319 m 1,15,-1
 229 319 l 2,16,17
 266 319 266 319 298 324 c 128,-1,18
 330 329 330 329 352.5 342 c 128,-1,19
 375 355 375 355 388 378.5 c 128,-1,20
 401 402 401 402 401 438 c 0,21,22
 401 471 401 471 388.5 493.5 c 128,-1,23
 376 516 376 516 356 530 c 128,-1,24
 336 544 336 544 310 550 c 128,-1,25
 284 556 284 556 257 556 c 2,26,-1
 172 556 l 1,27,-1
 172 319 l 1,15,-1
EndSplineSet
EndChar

StartChar: Q
Encoding: 81 81 62
Width: 682
GlyphClass: 2
Flags: W
LayerCount: 2
Fore
SplineSet
345 639 m 256,0,1
 409 639 409 639 463 618.5 c 128,-1,2
 517 598 517 598 556.5 557.5 c 128,-1,3
 596 517 596 517 618 456.5 c 128,-1,4
 640 396 640 396 640 315 c 0,5,6
 640 210 640 210 597 136 c 128,-1,7
 554 62 554 62 458 8 c 2,8,-1
 322 -68 l 1,9,10
 352 -68 352 -68 377.5 -75.5 c 128,-1,11
 403 -83 403 -83 429 -92 c 128,-1,12
 455 -101 455 -101 483 -108.5 c 128,-1,13
 511 -116 511 -116 545 -116 c 0,14,15
 565 -116 565 -116 587.5 -109.5 c 128,-1,16
 610 -103 610 -103 630 -89 c 1,17,-1
 666 -156 l 1,18,19
 638 -174 638 -174 604.5 -183 c 128,-1,20
 571 -192 571 -192 542 -192 c 0,21,22
 507 -192 507 -192 472.5 -182.5 c 128,-1,23
 438 -173 438 -173 404 -161.5 c 128,-1,24
 370 -150 370 -150 337 -140.5 c 128,-1,25
 304 -131 304 -131 271 -131 c 0,26,27
 245 -131 245 -131 219.5 -139 c 128,-1,28
 194 -147 194 -147 168 -162 c 1,29,-1
 130 -93 l 1,30,-1
 284 -4 l 1,31,32
 231 4 231 4 187.5 28.5 c 128,-1,33
 144 53 144 53 112.5 92.5 c 128,-1,34
 81 132 81 132 63.5 188 c 128,-1,35
 46 244 46 244 46 315 c 0,36,37
 46 394 46 394 69 454.5 c 128,-1,38
 92 515 92 515 132 556 c 128,-1,39
 172 597 172 597 226.5 618 c 128,-1,40
 281 639 281 639 345 639 c 256,0,1
146 315 m 256,41,42
 146 251 146 251 160 203.5 c 128,-1,43
 174 156 174 156 199.5 124 c 128,-1,44
 225 92 225 92 260 76 c 128,-1,45
 295 60 295 60 336 60 c 256,46,47
 377 60 377 60 414 76.5 c 128,-1,48
 451 93 451 93 479 125.5 c 128,-1,49
 507 158 507 158 523.5 205.5 c 128,-1,50
 540 253 540 253 540 315 c 0,51,52
 540 381 540 381 524.5 428 c 128,-1,53
 509 475 509 475 482 505.5 c 128,-1,54
 455 536 455 536 418.5 550.5 c 128,-1,55
 382 565 382 565 341 565 c 256,56,57
 300 565 300 565 264 550 c 128,-1,58
 228 535 228 535 202 504 c 128,-1,59
 176 473 176 473 161 426 c 128,-1,60
 146 379 146 379 146 315 c 256,41,42
EndSplineSet
EndChar

StartChar: R
Encoding: 82 82 63
Width: 537
GlyphClass: 2
Flags: W
LayerCount: 2
Fore
SplineSet
80 630 m 1,0,-1
 285 630 l 2,1,2
 334 630 334 630 371.5 616 c 128,-1,3
 409 602 409 602 434 577 c 128,-1,4
 459 552 459 552 472 517.5 c 128,-1,5
 485 483 485 483 485 442 c 0,6,7
 485 406 485 406 474 377 c 128,-1,8
 463 348 463 348 445 326.5 c 128,-1,9
 427 305 427 305 403.5 289.5 c 128,-1,10
 380 274 380 274 356 264 c 1,11,-1
 522 0 l 1,12,-1
 419 0 l 1,13,-1
 270 247 l 1,14,-1
 167 247 l 1,15,-1
 167 0 l 1,16,-1
 80 0 l 1,17,-1
 80 630 l 1,0,-1
167 322 m 1,18,-1
 243 322 l 2,19,20
 274 322 274 322 300.5 328.5 c 128,-1,21
 327 335 327 335 346.5 348.5 c 128,-1,22
 366 362 366 362 377.5 384 c 128,-1,23
 389 406 389 406 389 437 c 0,24,25
 389 498 389 498 355.5 527 c 128,-1,26
 322 556 322 556 258 556 c 2,27,-1
 167 556 l 1,28,-1
 167 322 l 1,18,-1
EndSplineSet
EndChar

StartChar: S
Encoding: 83 83 64
Width: 505
GlyphClass: 2
Flags: W
LayerCount: 2
Fore
SplineSet
257 639 m 0,0,1
 303 639 303 639 346 631.5 c 128,-1,2
 389 624 389 624 431 604 c 1,3,-1
 409 528 l 1,4,5
 366 548 366 548 331.5 556.5 c 128,-1,6
 297 565 297 565 261 565 c 0,7,8
 204 565 204 565 171 540 c 128,-1,9
 138 515 138 515 138 470 c 0,10,11
 138 432 138 432 162.5 409 c 128,-1,12
 187 386 187 386 243 369 c 2,13,-1
 306 349 l 2,14,15
 392 322 392 322 427.5 275.5 c 128,-1,16
 463 229 463 229 463 171 c 0,17,18
 463 130 463 130 446.5 96.5 c 128,-1,19
 430 63 430 63 400.5 39.5 c 128,-1,20
 371 16 371 16 331 3.5 c 128,-1,21
 291 -9 291 -9 243 -9 c 256,22,23
 195 -9 195 -9 145.5 -0.5 c 128,-1,24
 96 8 96 8 47 31 c 1,25,-1
 69 106 l 1,26,27
 112 85 112 85 153 75 c 128,-1,28
 194 65 194 65 239 65 c 0,29,30
 293 65 293 65 331 90 c 128,-1,31
 369 115 369 115 369 164 c 0,32,33
 369 182 369 182 363.5 197.5 c 128,-1,34
 358 213 358 213 344.5 227 c 128,-1,35
 331 241 331 241 308 253 c 128,-1,36
 285 265 285 265 250 276 c 2,37,-1
 187 296 l 2,38,39
 118 318 118 318 81 356 c 128,-1,40
 44 394 44 394 44 459 c 0,41,42
 44 542 44 542 98.5 590.5 c 128,-1,43
 153 639 153 639 257 639 c 0,0,1
EndSplineSet
EndChar

StartChar: T
Encoding: 84 84 65
Width: 557
GlyphClass: 2
Flags: W
AnchorPoint: "Anchor-12" 470 30 basechar 0
LayerCount: 2
Fore
SplineSet
245 356 m 2,0,1
 184 356 184 356 157 325 c 128,-1,2
 130 294 130 294 130 246 c 0,3,4
 130 192 130 192 152.5 140.5 c 128,-1,5
 175 89 175 89 217 26 c 1,6,-1
 150 -9 l 1,7,8
 105 54 105 54 77.5 115.5 c 128,-1,9
 50 177 50 177 50 249 c 0,10,11
 50 333 50 333 97.5 378.5 c 128,-1,12
 145 424 145 424 230 424 c 2,13,-1
 399 424 l 1,14,-1
 399 566 l 1,15,-1
 -10 566 l 1,16,-1
 -10 630 l 1,17,-1
 567 630 l 1,18,-1
 567 566 l 1,19,-1
 477 566 l 1,20,-1
 477 0 l 1,21,-1
 399 0 l 1,22,-1
 399 356 l 1,23,-1
 245 356 l 2,0,1
EndSplineSet
EndChar

StartChar: U
Encoding: 85 85 66
Width: 640
GlyphClass: 2
Flags: W
LayerCount: 2
Fore
SplineSet
72 630 m 1,0,-1
 164 630 l 1,1,-1
 164 253 l 2,2,3
 164 152 164 152 201 109 c 128,-1,4
 238 66 238 66 320 66 c 0,5,6
 401 66 401 66 438.5 114 c 128,-1,7
 476 162 476 162 476 241 c 2,8,-1
 476 630 l 1,9,-1
 568 630 l 1,10,-1
 568 244 l 2,11,12
 568 115 568 115 502 53 c 128,-1,13
 436 -9 436 -9 320 -9 c 0,14,15
 203 -9 203 -9 137.5 52.5 c 128,-1,16
 72 114 72 114 72 249 c 2,17,-1
 72 630 l 1,0,-1
EndSplineSet
EndChar

StartChar: V
Encoding: 86 86 67
Width: 574
GlyphClass: 2
Flags: W
LayerCount: 2
Fore
SplineSet
94 630 m 1,0,-1
 225 274 l 2,1,2
 239 237 239 237 255.5 192.5 c 128,-1,3
 272 148 272 148 286 110 c 1,4,-1
 288 110 l 1,5,-1
 348 274 l 1,6,-1
 481 630 l 1,7,-1
 577 630 l 1,8,-1
 329 0 l 1,9,-1
 240 0 l 1,10,-1
 -3 630 l 1,11,-1
 94 630 l 1,0,-1
EndSplineSet
EndChar

StartChar: W
Encoding: 87 87 68
Width: 859
GlyphClass: 2
Flags: W
LayerCount: 2
Fore
SplineSet
102 630 m 1,0,-1
 209 259 l 2,1,2
 213 247 213 247 217.5 228.5 c 128,-1,3
 222 210 222 210 227 189.5 c 128,-1,4
 232 169 232 169 236 148.5 c 128,-1,5
 240 128 240 128 242 110 c 1,6,-1
 244 110 l 1,7,8
 247 128 247 128 251.5 148.5 c 128,-1,9
 256 169 256 169 261 189.5 c 128,-1,10
 266 210 266 210 270.5 228 c 128,-1,11
 275 246 275 246 279 259 c 2,12,-1
 389 630 l 1,13,-1
 471 630 l 1,14,-1
 585 259 l 2,15,16
 589 246 589 246 593.5 228 c 128,-1,17
 598 210 598 210 602.5 190 c 128,-1,18
 607 170 607 170 611.5 149 c 128,-1,19
 616 128 616 128 619 110 c 1,20,-1
 621 110 l 1,21,22
 624 129 624 129 628.5 150 c 128,-1,23
 633 171 633 171 638 191.5 c 128,-1,24
 643 212 643 212 647.5 229.5 c 128,-1,25
 652 247 652 247 655 259 c 2,26,-1
 758 630 l 1,27,-1
 851 630 l 1,28,-1
 666 0 l 1,29,-1
 573 0 l 1,30,-1
 477 335 l 2,31,32
 470 360 470 360 463.5 382 c 128,-1,33
 457 404 457 404 451.5 424 c 128,-1,34
 446 444 446 444 440.5 464.5 c 128,-1,35
 435 485 435 485 429 508 c 1,36,-1
 427 508 l 1,37,38
 417 463 417 463 405 418 c 128,-1,39
 393 373 393 373 382 335 c 2,40,-1
 289 0 l 1,41,-1
 197 0 l 1,42,-1
 8 630 l 1,43,-1
 102 630 l 1,0,-1
EndSplineSet
EndChar

StartChar: X
Encoding: 88 88 69
Width: 545
GlyphClass: 2
Flags: W
LayerCount: 2
Fore
SplineSet
120 630 m 1,0,-1
 271 384 l 1,1,-1
 429 630 l 1,2,-1
 530 630 l 1,3,-1
 323 320 l 1,4,-1
 540 0 l 1,5,-1
 434 0 l 1,6,-1
 271 256 l 1,7,-1
 107 0 l 1,8,-1
 6 0 l 1,9,-1
 216 320 l 1,10,-1
 15 630 l 1,11,-1
 120 630 l 1,0,-1
EndSplineSet
EndChar

StartChar: Y
Encoding: 89 89 70
Width: 523
GlyphClass: 2
Flags: W
LayerCount: 2
Fore
SplineSet
111 630 m 1,0,-1
 268 348 l 1,1,-1
 426 630 l 1,2,-1
 523 630 l 1,3,-1
 310 264 l 1,4,-1
 310 0 l 1,5,-1
 218 0 l 1,6,-1
 218 264 l 1,7,-1
 10 630 l 1,8,-1
 111 630 l 1,0,-1
EndSplineSet
EndChar

StartChar: Z
Encoding: 90 90 71
Width: 511
GlyphClass: 2
Flags: W
LayerCount: 2
Fore
SplineSet
481 630 m 1,0,-1
 481 575 l 1,1,-1
 135 74 l 1,2,-1
 486 74 l 1,3,-1
 486 0 l 1,4,-1
 26 0 l 1,5,-1
 26 65 l 1,6,-1
 366 556 l 1,7,-1
 41 556 l 1,8,-1
 41 630 l 1,9,-1
 481 630 l 1,0,-1
EndSplineSet
EndChar

StartChar: grave
Encoding: 96 96 72
Width: 210
GlyphClass: 2
Flags: W
LayerCount: 2
Fore
SplineSet
22 720 m 1,0,-1
 110 720 l 1,1,-1
 190 555 l 1,2,-1
 128 555 l 1,3,-1
 22 720 l 1,0,-1
EndSplineSet
EndChar

StartChar: a
Encoding: 97 97 73
Width: 489
GlyphClass: 2
Flags: W
LayerCount: 2
Fore
SplineSet
73 428 m 1,0,1
 97 440 97 440 118 449.5 c 128,-1,2
 139 459 139 459 160 465 c 128,-1,3
 181 471 181 471 203 474 c 128,-1,4
 225 477 225 477 251 477 c 0,5,6
 290 477 290 477 322.5 468.5 c 128,-1,7
 355 460 355 460 378.5 440 c 128,-1,8
 402 420 402 420 415 387.5 c 128,-1,9
 428 355 428 355 428 306 c 2,10,-1
 428 0 l 1,11,-1
 355 0 l 1,12,-1
 344 52 l 1,13,-1
 342 52 l 1,14,15
 311 19 311 19 274 5 c 128,-1,16
 237 -9 237 -9 192 -9 c 0,17,18
 158 -9 158 -9 129.5 0.5 c 128,-1,19
 101 10 101 10 80 27.5 c 128,-1,20
 59 45 59 45 47.5 70 c 128,-1,21
 36 95 36 95 36 126 c 0,22,23
 36 200 36 200 94.5 238.5 c 128,-1,24
 153 277 153 277 249 277 c 2,25,-1
 339 277 l 1,26,-1
 339 317 l 2,27,28
 339 368 339 368 313 386.5 c 128,-1,29
 287 405 287 405 243 405 c 0,30,31
 217 405 217 405 183.5 396.5 c 128,-1,32
 150 388 150 388 107 364 c 1,33,-1
 73 428 l 1,0,1
340 217 m 1,34,-1
 266 215 l 2,35,36
 191 213 191 213 159.5 188.5 c 128,-1,37
 128 164 128 164 128 129 c 0,38,39
 128 108 128 108 135 93.5 c 128,-1,40
 142 79 142 79 153.5 71 c 128,-1,41
 165 63 165 63 180.5 59.5 c 128,-1,42
 196 56 196 56 213 56 c 0,43,44
 246 56 246 56 280 71.5 c 128,-1,45
 314 87 314 87 340 121 c 1,46,-1
 340 217 l 1,34,-1
EndSplineSet
Substitution2: "'salt' Stylistic Alternatives lookup 52 subtable" a.alt
Substitution2: "'ss01' Style Set 1 lookup 44 subtable" a.alt
Substitution2: "'smcp' Lowercase to Small Capitals lookup 3 subtable" Asmall
EndChar

StartChar: b
Encoding: 98 98 74
Width: 545
GlyphClass: 2
Flags: W
AnchorPoint: "Anchor-12" 520 70 basechar 0
LayerCount: 2
Fore
SplineSet
240 470 m 0,0,1
 293 470 293 470 326.5 456 c 128,-1,2
 360 442 360 442 387 420 c 1,3,-1
 387 566 l 1,4,-1
 -10 566 l 1,5,-1
 -10 630 l 1,6,-1
 555 630 l 1,7,-1
 555 566 l 1,8,-1
 465 566 l 1,9,-1
 465 0 l 1,10,-1
 387 0 l 1,11,-1
 387 152 l 1,12,13
 370 135 370 135 334 119 c 128,-1,14
 298 103 298 103 244 103 c 0,15,16
 205 103 205 103 168.5 115.5 c 128,-1,17
 132 128 132 128 103.5 152.5 c 128,-1,18
 75 177 75 177 57.5 212.5 c 128,-1,19
 40 248 40 248 40 295 c 0,20,21
 40 338 40 338 55.5 370.5 c 128,-1,22
 71 403 71 403 98 425 c 128,-1,23
 125 447 125 447 161.5 458.5 c 128,-1,24
 198 470 198 470 240 470 c 0,0,1
122 292 m 0,25,26
 122 259 122 259 132.5 235.5 c 128,-1,27
 143 212 143 212 161 198 c 128,-1,28
 179 184 179 184 202.5 177.5 c 128,-1,29
 226 171 226 171 252 171 c 0,30,31
 277 171 277 171 304 179 c 1,32,-1
 158 375 l 1,33,34
 122 347 122 347 122 292 c 0,25,26
387 340 m 1,35,36
 367 366 367 366 331 384.5 c 128,-1,37
 295 403 295 403 251 403 c 0,38,39
 226 403 226 403 205 397 c 1,40,-1
 349 202 l 1,41,42
 366 215 366 215 376.5 232 c 128,-1,43
 387 249 387 249 387 270 c 2,44,-1
 387 340 l 1,35,36
EndSplineSet
Substitution2: "'smcp' Lowercase to Small Capitals lookup 3 subtable" Bsmall
EndChar

StartChar: c
Encoding: 99 99 75
Width: 559
GlyphClass: 2
Flags: W
LayerCount: 2
Fore
SplineSet
375.768554688 181.408203125 m 5,0,-1
 328.599609375 181.408203125 l 5,1,-1
 328.599609375 498.3203125 l 5,2,-1
 375.768554688 498.3203125 l 5,3,-1
 375.768554688 343.126953125 l 5,4,5
 393.456054688 364.157226562 393.456054688 364.157226562 399.352539062 377.936523438 c 132,-1,6
 405.248046875 391.71484375 405.248046875 391.71484375 430.975585938 391.71484375 c 4,7,8
 451.879882812 391.71484375 451.879882812 391.71484375 467.423828125 383.375976562 c 132,-1,9
 482.96875 375.036132812 482.96875 375.036132812 492.883789062 360.169921875 c 132,-1,10
 502.799804688 345.302734375 502.799804688 345.302734375 507.892578125 324.997070312 c 132,-1,11
 512.984375 304.69140625 512.984375 304.69140625 512.984375 280.759765625 c 6,12,-1
 512.984375 181.408203125 l 5,13,-1
 465.815429688 181.408203125 l 5,14,-1
 465.815429688 251.02734375 l 6,15,16
 465.815429688 290.1875 465.815429688 290.1875 454.024414062 307.955078125 c 132,-1,17
 442.232421875 325.72265625 442.232421875 325.72265625 418.112304688 325.72265625 c 4,18,19
 399.888671875 325.72265625 399.888671875 325.72265625 396.940429688 313.393554688 c 132,-1,20
 393.9921875 301.065429688 393.9921875 301.065429688 375.768554688 278.584960938 c 5,21,-1
 375.768554688 181.408203125 l 5,0,-1
355 67 m 0,22,23
 405 67 405 67 437.5 75 c 128,-1,24
 470 83 470 83 502 98 c 1,25,-1
 523 24 l 1,26,27
 488 7 488 7 446.5 -1 c 128,-1,28
 405 -9 405 -9 345 -9 c 0,29,30
 283 -9 283 -9 228 12 c 128,-1,31
 173 33 173 33 132.5 74 c 128,-1,32
 92 115 92 115 68.5 175.5 c 128,-1,33
 45 236 45 236 45 315 c 0,34,35
 45 392 45 392 68 452.5 c 128,-1,36
 91 513 91 513 131.5 554.5 c 128,-1,37
 172 596 172 596 228 617.5 c 128,-1,38
 284 639 284 639 350 639 c 0,39,40
 412 639 412 639 452 629 c 128,-1,41
 492 619 492 619 526 602 c 1,42,-1
 504 530 l 1,43,44
 485 538 485 538 468.5 544.5 c 128,-1,45
 452 551 452 551 435.5 555 c 128,-1,46
 419 559 419 559 401.5 561 c 128,-1,47
 384 563 384 563 362 563 c 0,48,49
 318 563 318 563 278.5 549.5 c 128,-1,50
 239 536 239 536 209.5 506 c 128,-1,51
 180 476 180 476 162.5 428.5 c 128,-1,52
 145 381 145 381 145 314 c 0,53,54
 145 246 145 246 162 199 c 128,-1,55
 179 152 179 152 207.5 123 c 128,-1,56
 236 94 236 94 274 80.5 c 128,-1,57
 312 67 312 67 355 67 c 0,22,23
EndSplineSet
Substitution2: "'smcp' Lowercase to Small Capitals lookup 3 subtable" Csmall
EndChar

StartChar: d
Encoding: 100 100 76
Width: 497
GlyphClass: 2
Flags: W
AnchorPoint: "Anchor-12" 650 0 basechar 0
AnchorPoint: "Anchor-7" 540 0 basechar 0
AnchorPoint: "Anchor-6" 360 0 basechar 0
AnchorPoint: "Anchor-5" 430 0 basechar 0
AnchorPoint: "Anchor-4" 390 0 basechar 0
AnchorPoint: "Anchor-1" 491 0 basechar 0
LayerCount: 2
Fore
SplineSet
150 198 m 1,0,1
 108 227 108 227 79 264.5 c 128,-1,2
 50 302 50 302 50 347 c 0,3,4
 50 373 50 373 58.5 395.5 c 128,-1,5
 67 418 67 418 84.5 434.5 c 128,-1,6
 102 451 102 451 129 460.5 c 128,-1,7
 156 470 156 470 194 470 c 2,8,-1
 333 470 l 1,9,-1
 333 566 l 1,10,-1
 -10 566 l 1,11,-1
 -10 630 l 1,12,-1
 517 630 l 1,13,-1
 517 566 l 1,14,-1
 411 566 l 1,15,-1
 411 404 l 1,16,-1
 208 404 l 2,17,18
 170 404 170 404 150 387.5 c 128,-1,19
 130 371 130 371 130 344 c 0,20,21
 130 324 130 324 141 306.5 c 128,-1,22
 152 289 152 289 168 275 c 1,23,24
 195 285 195 285 220.5 289.5 c 128,-1,25
 246 294 246 294 275 294 c 0,26,27
 316 294 316 294 349.5 283.5 c 128,-1,28
 383 273 383 273 407 253.5 c 128,-1,29
 431 234 431 234 444 207 c 128,-1,30
 457 180 457 180 457 147 c 0,31,32
 457 115 457 115 443.5 87 c 128,-1,33
 430 59 430 59 405 38.5 c 128,-1,34
 380 18 380 18 343.5 6.5 c 128,-1,35
 307 -5 307 -5 261 -5 c 0,36,37
 190 -5 190 -5 129.5 20 c 128,-1,38
 69 45 69 45 28 80 c 1,39,-1
 70 136 l 1,40,41
 109 102 109 102 157 83.5 c 128,-1,42
 205 65 205 65 259 65 c 0,43,44
 318 65 318 65 347.5 86.5 c 128,-1,45
 377 108 377 108 377 148 c 0,46,47
 377 187 377 187 350.5 206.5 c 128,-1,48
 324 226 324 226 273 226 c 0,49,50
 247 226 247 226 216 219.5 c 128,-1,51
 185 213 185 213 150 198 c 1,0,1
EndSplineSet
Substitution2: "'smcp' Lowercase to Small Capitals lookup 3 subtable" Dsmall
EndChar

StartChar: e
Encoding: 101 101 77
Width: 504
GlyphClass: 2
Flags: W
LayerCount: 2
Fore
SplineSet
468 225 m 1,0,-1
 131 225 l 1,1,-1
 131 221 l 2,2,3
 131 143 131 143 173.5 101 c 128,-1,4
 216 59 216 59 289 59 c 0,5,6
 327 59 327 59 356.5 65 c 128,-1,7
 386 71 386 71 421 85 c 1,8,-1
 439 20 l 1,9,10
 410 7 410 7 370.5 -1 c 128,-1,11
 331 -9 331 -9 286 -9 c 0,12,13
 235 -9 235 -9 190.5 5 c 128,-1,14
 146 19 146 19 112 48.5 c 128,-1,15
 78 78 78 78 58.5 124 c 128,-1,16
 39 170 39 170 39 234 c 0,17,18
 39 289 39 289 55.5 334 c 128,-1,19
 72 379 72 379 102 410.5 c 128,-1,20
 132 442 132 442 174.5 459.5 c 128,-1,21
 217 477 217 477 270 477 c 0,22,23
 315 477 315 477 351.5 462 c 128,-1,24
 388 447 388 447 414 420 c 128,-1,25
 440 393 440 393 454 355 c 128,-1,26
 468 317 468 317 468 271 c 2,27,-1
 468 225 l 1,0,-1
377 288 m 1,28,29
 377 314 377 314 370.5 336.5 c 128,-1,30
 364 359 364 359 350.5 376 c 128,-1,31
 337 393 337 393 316 403 c 128,-1,32
 295 413 295 413 265 413 c 0,33,34
 210 413 210 413 175.5 378 c 128,-1,35
 141 343 141 343 133 286 c 1,36,-1
 377 288 l 1,28,29
EndSplineSet
Substitution2: "'smcp' Lowercase to Small Capitals lookup 3 subtable" Esmall
EndChar

StartChar: f
Encoding: 102 102 78
Width: 768
GlyphClass: 2
Flags: W
AnchorPoint: "Anchor-7" 690 0 basechar 0
AnchorPoint: "Anchor-6" 509 0 basechar 0
AnchorPoint: "Anchor-5" 540 20 basechar 0
AnchorPoint: "Anchor-4" 509 0 basechar 0
AnchorPoint: "Anchor-1" 520 0 basechar 0
LayerCount: 2
Fore
SplineSet
783 566 m 1,0,-1
 429 566 l 1,1,-1
 429 398 l 1,2,3
 450 424 450 424 486.5 438.5 c 128,-1,4
 523 453 523 453 561 453 c 256,5,6
 599 453 599 453 631 441 c 128,-1,7
 663 429 663 429 686 406.5 c 128,-1,8
 709 384 709 384 721.5 352.5 c 128,-1,9
 734 321 734 321 734 282 c 0,10,11
 734 238 734 238 719 203.5 c 128,-1,12
 704 169 704 169 678 145 c 128,-1,13
 652 121 652 121 615 108.5 c 128,-1,14
 578 96 578 96 535 96 c 1,15,-1
 530 162 l 1,16,17
 549 163 549 163 571 170.5 c 128,-1,18
 593 178 593 178 611.5 192.5 c 128,-1,19
 630 207 630 207 642 229 c 128,-1,20
 654 251 654 251 654 281 c 0,21,22
 654 332 654 332 626 359.5 c 128,-1,23
 598 387 598 387 552 387 c 0,24,25
 514 387 514 387 483 367 c 128,-1,26
 452 347 452 347 429 309 c 1,27,-1
 429 0 l 1,28,-1
 353 0 l 1,29,-1
 353 246 l 1,30,31
 338 229 338 229 306.5 215 c 128,-1,32
 275 201 275 201 233 201 c 0,33,34
 198 201 198 201 166.5 211 c 128,-1,35
 135 221 135 221 111.5 242 c 128,-1,36
 88 263 88 263 74 294 c 128,-1,37
 60 325 60 325 60 367 c 2,38,-1
 60 566 l 1,39,-1
 -10 566 l 1,40,-1
 -10 630 l 1,41,-1
 783 630 l 1,42,-1
 783 566 l 1,0,-1
138 375 m 2,43,44
 138 318 138 318 164 293 c 128,-1,45
 190 268 190 268 238 268 c 0,46,47
 275 268 275 268 305.5 286 c 128,-1,48
 336 304 336 304 353 334 c 1,49,-1
 353 566 l 1,50,-1
 138 566 l 1,51,-1
 138 375 l 2,43,44
EndSplineSet
Substitution2: "'smcp' Lowercase to Small Capitals lookup 3 subtable" Fsmall
EndChar

StartChar: g
Encoding: 103 103 79
Width: 541
GlyphClass: 2
Flags: W
LayerCount: 2
Fore
SplineSet
61 314 m 0,0,1
 61 353 61 353 75 383.5 c 128,-1,2
 89 414 89 414 114.5 435 c 128,-1,3
 140 456 140 456 175 466.5 c 128,-1,4
 210 477 210 477 251 477 c 0,5,6
 266 477 266 477 280 475 c 128,-1,7
 294 473 294 473 308 470 c 2,8,-1
 511 470 l 1,9,-1
 511 405 l 1,10,-1
 480 405 l 1,11,-1
 400 416 l 1,12,13
 419 396 419 396 429.5 370 c 128,-1,14
 440 344 440 344 440 315 c 0,15,16
 440 276 440 276 426 245.5 c 128,-1,17
 412 215 412 215 387 194 c 128,-1,18
 362 173 362 173 327 162.5 c 128,-1,19
 292 152 292 152 251 152 c 0,20,21
 220 152 220 152 197 156 c 1,22,23
 174 148 174 148 165 135.5 c 128,-1,24
 156 123 156 123 156 109 c 0,25,26
 156 86 156 86 171.5 78 c 128,-1,27
 187 70 187 70 213 70 c 2,28,-1
 337 70 l 2,29,30
 415 70 415 70 456.5 34.5 c 128,-1,31
 498 -1 498 -1 498 -62 c 0,32,33
 498 -101 498 -101 481 -132 c 128,-1,34
 464 -163 464 -163 432.5 -185 c 128,-1,35
 401 -207 401 -207 356 -218.5 c 128,-1,36
 311 -230 311 -230 255 -230 c 0,37,38
 153 -230 153 -230 92.5 -193.5 c 128,-1,39
 32 -157 32 -157 32 -86 c 0,40,41
 32 -49 32 -49 55.5 -24 c 128,-1,42
 79 1 79 1 117 14 c 1,43,44
 97 28 97 28 87 43.5 c 128,-1,45
 77 59 77 59 77 85 c 0,46,47
 77 116 77 116 95.5 138 c 128,-1,48
 114 160 114 160 146 173 c 1,49,50
 106 191 106 191 83.5 225.5 c 128,-1,51
 61 260 61 260 61 314 c 0,0,1
168 0 m 1,52,53
 117 -23 117 -23 117 -72 c 0,54,55
 117 -160 117 -160 259 -160 c 0,56,57
 301 -160 301 -160 330 -152 c 128,-1,58
 359 -144 359 -144 377 -131 c 128,-1,59
 395 -118 395 -118 403.5 -102 c 128,-1,60
 412 -86 412 -86 412 -69 c 0,61,62
 412 -27 412 -27 383.5 -13.5 c 128,-1,63
 355 0 355 0 312 0 c 2,64,-1
 168 0 l 1,52,53
351 312 m 0,65,66
 351 365 351 365 323.5 390 c 128,-1,67
 296 415 296 415 251 415 c 256,68,69
 206 415 206 415 178.5 390 c 128,-1,70
 151 365 151 365 151 316 c 0,71,72
 151 264 151 264 178.5 239.5 c 128,-1,73
 206 215 206 215 251 215 c 256,74,75
 296 215 296 215 323.5 239 c 128,-1,76
 351 263 351 263 351 312 c 0,65,66
EndSplineSet
Substitution2: "'salt' Stylistic Alternatives lookup 52 subtable" g.alt
Substitution2: "'ss01' Style Set 1 lookup 44 subtable" g.alt
Substitution2: "'smcp' Lowercase to Small Capitals lookup 3 subtable" Gsmall
EndChar

StartChar: h
Encoding: 104 104 80
Width: 540
GlyphClass: 2
Flags: W
LayerCount: 2
Fore
SplineSet
157 0 m 1,0,-1
 69 0 l 1,1,-1
 69 710 l 1,2,-1
 157 710 l 1,3,-1
 157 410 l 1,4,5
 190 439 190 439 230 458 c 128,-1,6
 270 477 270 477 318 477 c 0,7,8
 357 477 357 477 386 465.5 c 128,-1,9
 415 454 415 454 433.5 433.5 c 128,-1,10
 452 413 452 413 461.5 385 c 128,-1,11
 471 357 471 357 471 324 c 2,12,-1
 471 0 l 1,13,-1
 383 0 l 1,14,-1
 383 302 l 2,15,16
 383 356 383 356 361 380.5 c 128,-1,17
 339 405 339 405 294 405 c 0,18,19
 260 405 260 405 225.5 388 c 128,-1,20
 191 371 191 371 157 340 c 1,21,-1
 157 0 l 1,0,-1
EndSplineSet
Substitution2: "'smcp' Lowercase to Small Capitals lookup 3 subtable" Hsmall
EndChar

StartChar: i
Encoding: 105 105 81
Width: 246
GlyphClass: 2
Flags: W
LayerCount: 2
Fore
SplineSet
82 0 m 1,0,-1
 82 470 l 1,1,-1
 170 470 l 1,2,-1
 170 0 l 1,3,-1
 82 0 l 1,0,-1
126 591 m 0,4,5
 103 591 103 591 86.5 606.5 c 128,-1,6
 70 622 70 622 70 645 c 256,7,8
 70 668 70 668 86.5 684 c 128,-1,9
 103 700 103 700 126 700 c 0,10,11
 148 700 148 700 165 684 c 128,-1,12
 182 668 182 668 182 645 c 256,13,14
 182 622 182 622 165 606.5 c 128,-1,15
 148 591 148 591 126 591 c 0,4,5
EndSplineSet
Substitution2: "'smcp' Lowercase to Small Capitals lookup 3 subtable" Ismall
EndChar

StartChar: j
Encoding: 106 106 82
Width: 246
GlyphClass: 2
Flags: W
LayerCount: 2
Fore
SplineSet
79 470 m 1,0,-1
 167 470 l 1,1,-1
 167 71 l 2,2,3
 167 14 167 14 160.5 -33.5 c 128,-1,4
 154 -81 154 -81 136 -119.5 c 128,-1,5
 118 -158 118 -158 86 -188 c 128,-1,6
 54 -218 54 -218 4 -240 c 1,7,-1
 -37 -174 l 1,8,9
 -6 -158 -6 -158 16.5 -141 c 128,-1,10
 39 -124 39 -124 52.5 -98.5 c 128,-1,11
 66 -73 66 -73 72.5 -35.5 c 128,-1,12
 79 2 79 2 79 60 c 2,13,-1
 79 470 l 1,0,-1
122 591 m 0,14,15
 99 591 99 591 82.5 606.5 c 128,-1,16
 66 622 66 622 66 645 c 256,17,18
 66 668 66 668 82.5 684 c 128,-1,19
 99 700 99 700 122 700 c 0,20,21
 144 700 144 700 161 684 c 128,-1,22
 178 668 178 668 178 645 c 256,23,24
 178 622 178 622 161 606.5 c 128,-1,25
 144 591 144 591 122 591 c 0,14,15
EndSplineSet
Substitution2: "'smcp' Lowercase to Small Capitals lookup 3 subtable" Jsmall
EndChar

StartChar: k
Encoding: 107 107 83
Width: 752
GlyphClass: 2
Flags: W
AnchorPoint: "Anchor-7" 670 0 basechar 0
AnchorPoint: "Anchor-6" 495 0 basechar 0
AnchorPoint: "Anchor-5" 540 20 basechar 0
AnchorPoint: "Anchor-4" 495 0 basechar 0
AnchorPoint: "Anchor-1" 500 0 basechar 0
LayerCount: 2
Fore
SplineSet
340 352 m 1,0,1
 315 379 315 379 288.5 390 c 128,-1,2
 262 401 262 401 229 401 c 0,3,4
 208 401 208 401 188.5 394.5 c 128,-1,5
 169 388 169 388 154 374.5 c 128,-1,6
 139 361 139 361 129.5 341 c 128,-1,7
 120 321 120 321 120 294 c 0,8,9
 120 239 120 239 149.5 209 c 128,-1,10
 179 179 179 179 226 179 c 0,11,12
 249 179 249 179 269.5 185.5 c 128,-1,13
 290 192 290 192 306 206.5 c 128,-1,14
 322 221 322 221 331 243 c 128,-1,15
 340 265 340 265 340 297 c 2,16,-1
 340 352 l 1,0,1
415 0 m 1,17,-1
 339 0 l 1,18,-1
 339 164 l 1,19,20
 322 139 322 139 290.5 125 c 128,-1,21
 259 111 259 111 221 111 c 0,22,23
 186 111 186 111 153.5 123 c 128,-1,24
 121 135 121 135 95.5 159 c 128,-1,25
 70 183 70 183 55 218 c 128,-1,26
 40 253 40 253 40 300 c 0,27,28
 40 342 40 342 54.5 373.5 c 128,-1,29
 69 405 69 405 93 426 c 128,-1,30
 117 447 117 447 149 457.5 c 128,-1,31
 181 468 181 468 216 468 c 0,32,33
 293 468 293 468 339 416 c 1,34,-1
 339 566 l 1,35,-1
 -10 566 l 1,36,-1
 -10 630 l 1,37,-1
 772 630 l 1,38,-1
 772 566 l 1,39,-1
 415 566 l 1,40,-1
 415 403 l 1,41,42
 432 430 432 430 467.5 447 c 128,-1,43
 503 464 503 464 546 464 c 0,44,45
 580 464 580 464 611 453.5 c 128,-1,46
 642 443 642 443 665.5 422 c 128,-1,47
 689 401 689 401 703 370 c 128,-1,48
 717 339 717 339 717 299 c 0,49,50
 717 253 717 253 702 219.5 c 128,-1,51
 687 186 687 186 661.5 164.5 c 128,-1,52
 636 143 636 143 602 132.5 c 128,-1,53
 568 122 568 122 531 122 c 0,54,55
 520 122 520 122 505 124 c 128,-1,56
 490 126 490 126 482 129 c 1,57,-1
 497 193 l 1,58,59
 512 190 512 190 529 190 c 0,60,61
 551 190 551 190 570.5 196 c 128,-1,62
 590 202 590 202 605 215.5 c 128,-1,63
 620 229 620 229 628.5 249.5 c 128,-1,64
 637 270 637 270 637 300 c 0,65,66
 637 346 637 346 609.5 371.5 c 128,-1,67
 582 397 582 397 536 397 c 0,68,69
 476 397 476 397 445.5 361.5 c 128,-1,70
 415 326 415 326 415 267 c 2,71,-1
 415 0 l 1,17,-1
EndSplineSet
Substitution2: "'smcp' Lowercase to Small Capitals lookup 3 subtable" Ksmall
EndChar

StartChar: l
Encoding: 108 108 84
Width: 682
GlyphClass: 2
Flags: W
AnchorPoint: "Anchor-12" 485 70 basechar 0
LayerCount: 2
Fore
SplineSet
321 347 m 1,0,1
 304 365 304 365 278.5 374 c 128,-1,2
 253 383 253 383 232 383 c 0,3,4
 183 383 183 383 151.5 356 c 128,-1,5
 120 329 120 329 120 270 c 0,6,7
 120 229 120 229 133.5 196.5 c 128,-1,8
 147 164 147 164 170 137 c 128,-1,9
 193 110 193 110 223.5 88 c 128,-1,10
 254 66 254 66 288 48 c 1,11,-1
 240 -9 l 1,12,13
 199 13 199 13 162.5 41.5 c 128,-1,14
 126 70 126 70 99 105 c 128,-1,15
 72 140 72 140 56 182 c 128,-1,16
 40 224 40 224 40 274 c 0,17,18
 40 320 40 320 55 353 c 128,-1,19
 70 386 70 386 95 407.5 c 128,-1,20
 120 429 120 429 152.5 439.5 c 128,-1,21
 185 450 185 450 220 450 c 0,22,23
 258 450 258 450 291.5 435.5 c 128,-1,24
 325 421 325 421 350 395 c 1,25,26
 368 420 368 420 398.5 434 c 128,-1,27
 429 448 429 448 464 448 c 0,28,29
 480 448 480 448 497.5 445.5 c 128,-1,30
 515 443 515 443 524 438 c 1,31,-1
 524 566 l 1,32,-1
 -10 566 l 1,33,-1
 -10 630 l 1,34,-1
 692 630 l 1,35,-1
 692 566 l 1,36,-1
 602 566 l 1,37,-1
 602 0 l 1,38,-1
 524 0 l 1,39,-1
 524 374 l 1,40,41
 516 378 516 378 504.5 380.5 c 128,-1,42
 493 383 493 383 476 383 c 0,43,44
 425 383 425 383 402.5 339.5 c 128,-1,45
 380 296 380 296 377 211 c 1,46,-1
 300 211 l 1,47,48
 300 259 300 259 306.5 292.5 c 128,-1,49
 313 326 313 326 321 347 c 1,0,1
EndSplineSet
Substitution2: "'smcp' Lowercase to Small Capitals lookup 3 subtable" Lsmall
EndChar

StartChar: m
Encoding: 109 109 85
Width: 554
GlyphClass: 2
Flags: W
AnchorPoint: "Anchor-12" 510 105 basechar 0
LayerCount: 2
Fore
SplineSet
189 566 m 1,0,-1
 189 318 l 1,1,-1
 396 318 l 1,2,-1
 396 566 l 1,3,-1
 189 566 l 1,0,-1
189 181 m 1,4,5
 184 175 184 175 170.5 169 c 128,-1,6
 157 163 157 163 139 163 c 0,7,8
 119 163 119 163 101.5 170.5 c 128,-1,9
 84 178 84 178 70 191 c 128,-1,10
 56 204 56 204 48 222 c 128,-1,11
 40 240 40 240 40 261 c 0,12,13
 40 287 40 287 55.5 302.5 c 128,-1,14
 71 318 71 318 100 318 c 2,15,-1
 112 318 l 1,16,-1
 112 566 l 1,17,-1
 -10 566 l 1,18,-1
 -10 630 l 1,19,-1
 564 630 l 1,20,-1
 564 566 l 1,21,-1
 474 566 l 1,22,-1
 474 0 l 1,23,-1
 396 0 l 1,24,-1
 396 253 l 1,25,-1
 189 253 l 1,26,-1
 189 181 l 1,4,5
EndSplineSet
Substitution2: "'smcp' Lowercase to Small Capitals lookup 3 subtable" Msmall
EndChar

StartChar: n
Encoding: 110 110 86
Width: 531
GlyphClass: 2
Flags: W
LayerCount: 2
Fore
SplineSet
373 372 m 1,0,-1
 373 566 l 1,1,-1
 -10 566 l 1,2,-1
 -10 630 l 1,3,-1
 541 630 l 1,4,-1
 541 566 l 1,5,-1
 451 566 l 1,6,-1
 451 0 l 1,7,-1
 373 0 l 1,8,-1
 373 305 l 1,9,-1
 176 305 l 1,10,-1
 181 225 l 1,11,12
 177 220 177 220 165 213.5 c 128,-1,13
 153 207 153 207 133 207 c 0,14,15
 93 207 93 207 66.5 235.5 c 128,-1,16
 40 264 40 264 40 306 c 0,17,18
 40 332 40 332 56.5 352 c 128,-1,19
 73 372 73 372 108 372 c 2,20,-1
 373 372 l 1,0,-1
EndSplineSet
Substitution2: "'smcp' Lowercase to Small Capitals lookup 3 subtable" Nsmall
EndChar

StartChar: o
Encoding: 111 111 87
Width: 538
GlyphClass: 2
Flags: W
LayerCount: 2
Fore
SplineSet
499 240 m 0,0,1
 499 181 499 181 481 134.5 c 128,-1,2
 463 88 463 88 431.5 56 c 128,-1,3
 400 24 400 24 358 7.5 c 128,-1,4
 316 -9 316 -9 267 -9 c 256,5,6
 218 -9 218 -9 176.5 6.5 c 128,-1,7
 135 22 135 22 104.5 52.5 c 128,-1,8
 74 83 74 83 56.5 127.5 c 128,-1,9
 39 172 39 172 39 230 c 0,10,11
 39 289 39 289 57 335 c 128,-1,12
 75 381 75 381 106.5 412.5 c 128,-1,13
 138 444 138 444 180 460.5 c 128,-1,14
 222 477 222 477 271 477 c 256,15,16
 320 477 320 477 361.5 462 c 128,-1,17
 403 447 403 447 433.5 417 c 128,-1,18
 464 387 464 387 481.5 342.5 c 128,-1,19
 499 298 499 298 499 240 c 0,0,1
407 235 m 0,20,21
 407 282 407 282 395 315 c 128,-1,22
 383 348 383 348 363.5 369 c 128,-1,23
 344 390 344 390 319 399.5 c 128,-1,24
 294 409 294 409 268 409 c 256,25,26
 242 409 242 409 217 401 c 128,-1,27
 192 393 192 393 173 373 c 128,-1,28
 154 353 154 353 142.5 319.5 c 128,-1,29
 131 286 131 286 131 235 c 0,30,31
 131 188 131 188 143 154.5 c 128,-1,32
 155 121 155 121 174.5 100 c 128,-1,33
 194 79 194 79 219 69 c 128,-1,34
 244 59 244 59 270 59 c 256,35,36
 296 59 296 59 321 67.5 c 128,-1,37
 346 76 346 76 365 96.5 c 128,-1,38
 384 117 384 117 395.5 150.5 c 128,-1,39
 407 184 407 184 407 235 c 0,20,21
EndSplineSet
Substitution2: "'smcp' Lowercase to Small Capitals lookup 3 subtable" Osmall
EndChar

StartChar: p
Encoding: 112 112 88
Width: 511
GlyphClass: 2
Flags: W
AnchorPoint: "Anchor-12" 520 125 basechar 0
LayerCount: 2
Fore
SplineSet
521 566 m 1,0,-1
 431 566 l 1,1,-1
 431 0 l 1,2,-1
 353 0 l 1,3,-1
 353 241 l 1,4,5
 335 225 335 225 305 213 c 128,-1,6
 275 201 275 201 233 201 c 0,7,8
 198 201 198 201 167 211 c 128,-1,9
 136 221 136 221 112 242 c 128,-1,10
 88 263 88 263 74 294 c 128,-1,11
 60 325 60 325 60 367 c 2,12,-1
 60 566 l 1,13,-1
 -10 566 l 1,14,-1
 -10 630 l 1,15,-1
 521 630 l 1,16,-1
 521 566 l 1,0,-1
138 375 m 2,17,18
 138 318 138 318 164 293 c 128,-1,19
 190 268 190 268 238 268 c 0,20,21
 275 268 275 268 307 285.5 c 128,-1,22
 339 303 339 303 353 329 c 1,23,-1
 353 566 l 1,24,-1
 138 566 l 1,25,-1
 138 375 l 2,17,18
EndSplineSet
Substitution2: "'smcp' Lowercase to Small Capitals lookup 3 subtable" Psmall
EndChar

StartChar: q
Encoding: 113 113 89
Width: 536
GlyphClass: 2
Flags: W
LayerCount: 2
Fore
SplineSet
380 34 m 1,0,1
 354 11 354 11 322.5 1 c 128,-1,2
 291 -9 291 -9 251 -9 c 0,3,4
 201 -9 201 -9 161.5 8.5 c 128,-1,5
 122 26 122 26 95 57.5 c 128,-1,6
 68 89 68 89 53.5 134 c 128,-1,7
 39 179 39 179 39 235 c 0,8,9
 39 287 39 287 53 331.5 c 128,-1,10
 67 376 67 376 94.5 408 c 128,-1,11
 122 440 122 440 162.5 458.5 c 128,-1,12
 203 477 203 477 255 477 c 0,13,14
 270 477 270 477 288 473.5 c 128,-1,15
 306 470 306 470 323.5 463 c 128,-1,16
 341 456 341 456 357 445.5 c 128,-1,17
 373 435 373 435 385 422 c 1,18,-1
 395 470 l 1,19,-1
 468 470 l 1,20,-1
 468 -230 l 1,21,-1
 380 -230 l 1,22,-1
 380 34 l 1,0,1
380 350 m 1,23,24
 362 375 362 375 333.5 392.5 c 128,-1,25
 305 410 305 410 270 410 c 0,26,27
 241 410 241 410 215.5 400.5 c 128,-1,28
 190 391 190 391 170.5 370 c 128,-1,29
 151 349 151 349 139.5 316.5 c 128,-1,30
 128 284 128 284 128 238 c 0,31,32
 128 149 128 149 165.5 104 c 128,-1,33
 203 59 203 59 263 59 c 0,34,35
 300 59 300 59 330 73.5 c 128,-1,36
 360 88 360 88 380 111 c 1,37,-1
 380 350 l 1,23,24
EndSplineSet
Substitution2: "'smcp' Lowercase to Small Capitals lookup 3 subtable" Qsmall
EndChar

StartChar: r
Encoding: 114 114 90
Width: 410
GlyphClass: 2
Flags: W
AnchorPoint: "Anchor-7" 470 0 basechar 0
AnchorPoint: "Anchor-6" 300 0 basechar 0
AnchorPoint: "Anchor-5" 300 0 basechar 0
AnchorPoint: "Anchor-4" 398 -15 basechar 0
AnchorPoint: "Anchor-1" 350 0 basechar 0
LayerCount: 2
Fore
SplineSet
318 35 m 1,0,-1
 250 -10 l 1,1,-1
 57 273 l 2,2,3
 41 296 41 296 35.5 308.5 c 128,-1,4
 30 321 30 321 30 332 c 0,5,6
 30 353 30 353 46 364 c 128,-1,7
 62 375 62 375 83 375 c 1,8,-1
 104 348 l 2,9,10
 116 332 116 332 129 326 c 128,-1,11
 142 320 142 320 162 320 c 0,12,13
 201 320 201 320 228 350 c 128,-1,14
 255 380 255 380 255 434 c 0,15,16
 255 479 255 479 241 512 c 128,-1,17
 227 545 227 545 210 566 c 1,18,-1
 -10 566 l 1,19,-1
 -10 630 l 1,20,-1
 420 630 l 1,21,-1
 420 566 l 1,22,-1
 287 566 l 1,23,24
 303 548 303 548 319 511.5 c 128,-1,25
 335 475 335 475 335 430 c 0,26,27
 335 390 335 390 323 357.5 c 128,-1,28
 311 325 311 325 289.5 302 c 128,-1,29
 268 279 268 279 238 266.5 c 128,-1,30
 208 254 208 254 172 254 c 0,31,32
 167 254 167 254 164 254 c 128,-1,33
 161 254 161 254 156 255 c 2,34,-1
 318 35 l 1,0,-1
EndSplineSet
Substitution2: "'smcp' Lowercase to Small Capitals lookup 3 subtable" Rsmall
EndChar

StartChar: s
Encoding: 115 115 91
Width: 667
GlyphClass: 2
Flags: W
AnchorPoint: "Anchor-12" 485 100 basechar 0
LayerCount: 2
Fore
SplineSet
318 35 m 1,0,-1
 250 -10 l 1,1,-1
 57 273 l 2,2,3
 41 296 41 296 35.5 308.5 c 128,-1,4
 30 321 30 321 30 332 c 0,5,6
 30 353 30 353 46 364 c 128,-1,7
 62 375 62 375 83 375 c 1,8,-1
 104 348 l 2,9,10
 116 332 116 332 129 326 c 128,-1,11
 142 320 142 320 162 320 c 0,12,13
 201 320 201 320 228 350 c 128,-1,14
 255 380 255 380 255 434 c 0,15,16
 255 479 255 479 241 512 c 128,-1,17
 227 545 227 545 210 566 c 1,18,-1
 -10 566 l 1,19,-1
 -10 630 l 1,20,-1
 677 630 l 1,21,-1
 677 566 l 1,22,-1
 587 566 l 1,23,-1
 587 0 l 1,24,-1
 509 0 l 1,25,-1
 509 259 l 1,26,27
 469 239 469 239 397 239 c 0,28,29
 362 239 362 239 327 251 c 128,-1,30
 292 263 292 263 266 281 c 1,31,32
 227 254 227 254 172 254 c 0,33,34
 167 254 167 254 164 254 c 128,-1,35
 161 254 161 254 156 255 c 2,36,-1
 318 35 l 1,0,-1
387 309 m 0,37,38
 429 309 429 309 459.5 319 c 128,-1,39
 490 329 490 329 509 344 c 1,40,-1
 509 566 l 1,41,-1
 287 566 l 1,42,43
 303 548 303 548 319 511.5 c 128,-1,44
 335 475 335 475 335 430 c 0,45,46
 335 369 335 369 307 325 c 1,47,48
 325 317 325 317 344 313 c 128,-1,49
 363 309 363 309 387 309 c 0,37,38
EndSplineSet
Substitution2: "'smcp' Lowercase to Small Capitals lookup 3 subtable" Ssmall
EndChar

StartChar: t
Encoding: 116 116 92
Width: 498
GlyphClass: 2
Flags: W
AnchorPoint: "Anchor-12" 685 -15 basechar 0
AnchorPoint: "Anchor-7" 560 0 basechar 0
AnchorPoint: "Anchor-6" 390 0 basechar 0
AnchorPoint: "Anchor-5" 450 0 basechar 0
AnchorPoint: "Anchor-4" 420 0 basechar 0
AnchorPoint: "Anchor-1" 493 0 basechar 0
LayerCount: 2
Fore
SplineSet
473 44 m 1,0,1
 441 22 441 22 393.5 9.5 c 128,-1,2
 346 -3 346 -3 291 -3 c 0,3,4
 243 -3 243 -3 197.5 10.5 c 128,-1,5
 152 24 152 24 117 51.5 c 128,-1,6
 82 79 82 79 61 120 c 128,-1,7
 40 161 40 161 40 216 c 0,8,9
 40 297 40 297 90 349 c 128,-1,10
 140 401 140 401 225 418 c 2,11,-1
 336 441 l 1,12,-1
 336 566 l 1,13,-1
 -10 566 l 1,14,-1
 -10 630 l 1,15,-1
 518 630 l 1,16,-1
 518 566 l 1,17,-1
 413 566 l 1,18,-1
 413 378 l 1,19,-1
 289 353 l 2,20,21
 254 346 254 346 223.5 334.5 c 128,-1,22
 193 323 193 323 170.5 306 c 128,-1,23
 148 289 148 289 135 266 c 128,-1,24
 122 243 122 243 122 212 c 0,25,26
 122 176 122 176 134.5 149 c 128,-1,27
 147 122 147 122 169.5 103.5 c 128,-1,28
 192 85 192 85 222.5 76 c 128,-1,29
 253 67 253 67 290 67 c 0,30,31
 324 67 324 67 367.5 76.5 c 128,-1,32
 411 86 411 86 448 109 c 1,33,-1
 473 44 l 1,0,1
EndSplineSet
Substitution2: "'smcp' Lowercase to Small Capitals lookup 3 subtable" Tsmall
EndChar

StartChar: u
Encoding: 117 117 93
Width: 539
GlyphClass: 2
Flags: W
LayerCount: 2
Fore
SplineSet
383 470 m 1,0,-1
 471 470 l 1,1,-1
 471 0 l 1,2,-1
 402 0 l 1,3,-1
 390 59 l 1,4,-1
 386 59 l 1,5,6
 360 30 360 30 321.5 10.5 c 128,-1,7
 283 -9 283 -9 232 -9 c 0,8,9
 159 -9 159 -9 113.5 32.5 c 128,-1,10
 68 74 68 74 68 158 c 2,11,-1
 68 470 l 1,12,-1
 156 470 l 1,13,-1
 156 169 l 2,14,15
 156 139 156 139 163.5 118 c 128,-1,16
 171 97 171 97 183.5 84.5 c 128,-1,17
 196 72 196 72 213 66.5 c 128,-1,18
 230 61 230 61 250 61 c 0,19,20
 290 61 290 61 322 78 c 128,-1,21
 354 95 354 95 383 125 c 1,22,-1
 383 470 l 1,0,-1
EndSplineSet
Substitution2: "'smcp' Lowercase to Small Capitals lookup 3 subtable" Usmall
EndChar

StartChar: v
Encoding: 118 118 94
Width: 540
GlyphClass: 2
Flags: W
LayerCount: 2
Fore
SplineSet
235 470 m 0,0,1
 289 470 289 470 325.5 451 c 128,-1,2
 362 432 362 432 382 409 c 1,3,-1
 382 566 l 1,4,-1
 -10 566 l 1,5,-1
 -10 630 l 1,6,-1
 550 630 l 1,7,-1
 550 566 l 1,8,-1
 460 566 l 1,9,-1
 460 0 l 1,10,-1
 382 0 l 1,11,-1
 382 157 l 1,12,13
 364 139 364 139 330.5 121 c 128,-1,14
 297 103 297 103 240 103 c 0,15,16
 199 103 199 103 163 115.5 c 128,-1,17
 127 128 127 128 99.5 152.5 c 128,-1,18
 72 177 72 177 56 212.5 c 128,-1,19
 40 248 40 248 40 295 c 0,20,21
 40 338 40 338 54.5 370.5 c 128,-1,22
 69 403 69 403 95.5 425 c 128,-1,23
 122 447 122 447 157.5 458.5 c 128,-1,24
 193 470 193 470 235 470 c 0,0,1
382 329 m 1,25,26
 365 357 365 357 330 380 c 128,-1,27
 295 403 295 403 250 403 c 0,28,29
 193 403 193 403 157.5 375.5 c 128,-1,30
 122 348 122 348 122 292 c 0,31,32
 122 225 122 225 158 198 c 128,-1,33
 194 171 194 171 255 171 c 0,34,35
 281 171 281 171 304 179.5 c 128,-1,36
 327 188 327 188 344.5 202.5 c 128,-1,37
 362 217 362 217 372 237 c 128,-1,38
 382 257 382 257 382 280 c 2,39,-1
 382 329 l 1,25,26
EndSplineSet
Substitution2: "'smcp' Lowercase to Small Capitals lookup 3 subtable" Vsmall
EndChar

StartChar: w
Encoding: 119 119 95
Width: 712
GlyphClass: 2
Flags: W
LayerCount: 2
Fore
SplineSet
11 470 m 1,0,-1
 105 470 l 1,1,-1
 185 174 l 1,2,-1
 203 69 l 1,3,-1
 207 69 l 1,4,-1
 229 174 l 1,5,-1
 310 470 l 1,6,-1
 405 470 l 1,7,-1
 488 174 l 1,8,-1
 509 69 l 1,9,-1
 513 69 l 1,10,-1
 535 174 l 1,11,-1
 613 470 l 1,12,-1
 703 470 l 1,13,-1
 560 0 l 1,14,-1
 460 0 l 1,15,-1
 380 288 l 1,16,-1
 357 404 l 1,17,-1
 333 288 l 1,18,-1
 251 0 l 1,19,-1
 156 0 l 1,20,-1
 11 470 l 1,0,-1
EndSplineSet
Substitution2: "'smcp' Lowercase to Small Capitals lookup 3 subtable" Wsmall
EndChar

StartChar: x
Encoding: 120 120 96
Width: 448
GlyphClass: 2
Flags: W
LayerCount: 2
Fore
SplineSet
274 238 m 1,0,-1
 439 0 l 1,1,-1
 339 0 l 1,2,-1
 258 118 l 1,3,-1
 221 179 l 1,4,-1
 187 119 l 1,5,-1
 109 0 l 1,6,-1
 11 0 l 1,7,-1
 174 238 l 1,8,-1
 19 470 l 1,9,-1
 118 470 l 1,10,-1
 192 355 l 1,11,-1
 228 295 l 1,12,-1
 263 355 l 1,13,-1
 332 470 l 1,14,-1
 428 470 l 1,15,-1
 274 238 l 1,0,-1
EndSplineSet
Substitution2: "'smcp' Lowercase to Small Capitals lookup 3 subtable" Xsmall
EndChar

StartChar: y
Encoding: 121 121 97
Width: 564
GlyphClass: 2
Flags: W
LayerCount: 2
Fore
SplineSet
484 566 m 1,0,-1
 484 0 l 1,1,-1
 406 0 l 1,2,-1
 406 177 l 1,3,4
 389 162 389 162 357 149 c 128,-1,5
 325 136 325 136 271 136 c 0,6,7
 227 136 227 136 186 151 c 128,-1,8
 145 166 145 166 113 196.5 c 128,-1,9
 81 227 81 227 61 272.5 c 128,-1,10
 41 318 41 318 40 378 c 1,11,-1
 69 379 l 2,12,13
 144 381 144 381 173.5 403.5 c 128,-1,14
 203 426 203 426 203 471 c 0,15,16
 203 499 203 499 191 522.5 c 128,-1,17
 179 546 179 546 160 566 c 1,18,-1
 -10 566 l 1,19,-1
 -10 630 l 1,20,-1
 574 630 l 1,21,-1
 574 566 l 1,22,-1
 484 566 l 1,0,-1
406 566 m 1,23,-1
 238 566 l 1,24,25
 255 549 255 549 269 522.5 c 128,-1,26
 283 496 283 496 283 462 c 0,27,28
 283 397 283 397 240 359.5 c 128,-1,29
 197 322 197 322 118 317 c 1,30,31
 128 266 128 266 168 235 c 128,-1,32
 208 204 208 204 274 204 c 0,33,34
 316 204 316 204 351.5 219 c 128,-1,35
 387 234 387 234 406 258 c 1,36,-1
 406 566 l 1,23,-1
EndSplineSet
Substitution2: "'smcp' Lowercase to Small Capitals lookup 3 subtable" Ysmall
EndChar

StartChar: z
Encoding: 122 122 98
Width: 677
GlyphClass: 2
Flags: W
LayerCount: 2
Fore
SplineSet
346 358 m 1,0,1
 368 346 368 346 389 314.5 c 128,-1,2
 410 283 410 283 410 234 c 0,3,4
 410 197 410 197 396.5 166.5 c 128,-1,5
 383 136 383 136 359 114.5 c 128,-1,6
 335 93 335 93 302 81.5 c 128,-1,7
 269 70 269 70 231 70 c 0,8,9
 189 70 189 70 155.5 81.5 c 128,-1,10
 122 93 122 93 96.5 113.5 c 128,-1,11
 71 134 71 134 52 161 c 128,-1,12
 33 188 33 188 20 219 c 1,13,-1
 78 250 l 1,14,15
 104 198 104 198 139 167.5 c 128,-1,16
 174 137 174 137 228 137 c 0,17,18
 248 137 248 137 266.5 143 c 128,-1,19
 285 149 285 149 299 161 c 128,-1,20
 313 173 313 173 321.5 192 c 128,-1,21
 330 211 330 211 330 237 c 0,22,23
 330 300 330 300 290 329 c 128,-1,24
 250 358 250 358 184 358 c 2,25,-1
 151 358 l 1,26,-1
 151 423 l 1,27,-1
 519 423 l 1,28,-1
 519 566 l 1,29,-1
 -10 566 l 1,30,-1
 -10 630 l 1,31,-1
 687 630 l 1,32,-1
 687 566 l 1,33,-1
 597 566 l 1,34,-1
 597 0 l 1,35,-1
 519 0 l 1,36,-1
 519 358 l 1,37,-1
 346 358 l 1,0,1
EndSplineSet
Substitution2: "'smcp' Lowercase to Small Capitals lookup 3 subtable" Zsmall
EndChar

StartChar: Scaron
Encoding: 352 352 99
Width: 510
GlyphClass: 2
Flags: W
LayerCount: 2
Fore
SplineSet
300 630 m 1,0,-1
 364 630 l 1,1,-1
 364 0 l 1,2,-1
 278 0 l 1,3,-1
 278 538 l 1,4,-1
 165 486 l 1,5,-1
 145 559 l 1,6,-1
 300 630 l 1,0,-1
EndSplineSet
EndChar

StartChar: OE
Encoding: 338 338 100
Width: 552
GlyphClass: 2
Flags: W
LayerCount: 2
Fore
SplineSet
506 240 m 0,0,1
 506 181 506 181 488 134.5 c 128,-1,2
 470 88 470 88 438.5 56 c 128,-1,3
 407 24 407 24 365 7.5 c 128,-1,4
 323 -9 323 -9 274 -9 c 256,5,6
 225 -9 225 -9 183.5 6.5 c 128,-1,7
 142 22 142 22 111.5 52.5 c 128,-1,8
 81 83 81 83 63.5 127.5 c 128,-1,9
 46 172 46 172 46 230 c 0,10,11
 46 289 46 289 64 335 c 128,-1,12
 82 381 82 381 113.5 412.5 c 128,-1,13
 145 444 145 444 187 460.5 c 128,-1,14
 229 477 229 477 278 477 c 256,15,16
 327 477 327 477 368.5 462 c 128,-1,17
 410 447 410 447 440.5 417 c 128,-1,18
 471 387 471 387 488.5 342.5 c 128,-1,19
 506 298 506 298 506 240 c 0,0,1
414 235 m 0,20,21
 414 282 414 282 402 315 c 128,-1,22
 390 348 390 348 370.5 369 c 128,-1,23
 351 390 351 390 326 399.5 c 128,-1,24
 301 409 301 409 275 409 c 256,25,26
 249 409 249 409 224 401 c 128,-1,27
 199 393 199 393 180 373 c 128,-1,28
 161 353 161 353 149.5 319.5 c 128,-1,29
 138 286 138 286 138 235 c 0,30,31
 138 188 138 188 150 154.5 c 128,-1,32
 162 121 162 121 181.5 100 c 128,-1,33
 201 79 201 79 226 69 c 128,-1,34
 251 59 251 59 277 59 c 256,35,36
 303 59 303 59 328 67.5 c 128,-1,37
 353 76 353 76 372 96.5 c 128,-1,38
 391 117 391 117 402.5 150.5 c 128,-1,39
 414 184 414 184 414 235 c 0,20,21
EndSplineSet
EndChar

StartChar: Zcaron
Encoding: 381 381 101
Width: 349
GlyphClass: 2
Flags: W
LayerCount: 2
Fore
SplineSet
257 397 m 1,0,1
 240 375 240 375 213 364 c 128,-1,2
 186 353 186 353 160 353 c 0,3,4
 131 353 131 353 106.5 362.5 c 128,-1,5
 82 372 82 372 63 389.5 c 128,-1,6
 44 407 44 407 33.5 433 c 128,-1,7
 23 459 23 459 23 492 c 0,8,9
 23 523 23 523 33 549.5 c 128,-1,10
 43 576 43 576 62.5 595 c 128,-1,11
 82 614 82 614 110.5 625 c 128,-1,12
 139 636 139 636 175 636 c 0,13,14
 206 636 206 636 233.5 625 c 128,-1,15
 261 614 261 614 281.5 591 c 128,-1,16
 302 568 302 568 314 531.5 c 128,-1,17
 326 495 326 495 326 443 c 0,18,19
 326 327 326 327 274.5 272.5 c 128,-1,20
 223 218 223 218 134 218 c 0,21,22
 114 218 114 218 91.5 221 c 128,-1,23
 69 224 69 224 52 231 c 1,24,-1
 66 288 l 1,25,26
 84 281 84 281 102.5 278 c 128,-1,27
 121 275 121 275 138 275 c 0,28,29
 167 275 167 275 188.5 285 c 128,-1,30
 210 295 210 295 224.5 312 c 128,-1,31
 239 329 239 329 248 350.5 c 128,-1,32
 257 372 257 372 260 396 c 1,33,-1
 257 397 l 1,0,1
256 485 m 0,34,35
 256 503 256 503 251 519.5 c 128,-1,36
 246 536 246 536 235.5 549 c 128,-1,37
 225 562 225 562 209 570 c 128,-1,38
 193 578 193 578 171 578 c 0,39,40
 136 578 136 578 115 555 c 128,-1,41
 94 532 94 532 94 494 c 0,42,43
 94 452 94 452 116 430.5 c 128,-1,44
 138 409 138 409 176 409 c 0,45,46
 202 409 202 409 221 419 c 128,-1,47
 240 429 240 429 249 445 c 0,48,49
 254 453 254 453 255 463.5 c 128,-1,50
 256 474 256 474 256 485 c 0,34,35
EndSplineSet
EndChar

StartChar: scaron
Encoding: 353 353 102
Width: 510
GlyphClass: 2
Flags: W
LayerCount: 2
Fore
SplineSet
236 567 m 0,0,1
 204 567 204 567 175 556 c 128,-1,2
 146 545 146 545 111 518 c 1,3,-1
 72 577 l 1,4,5
 117 615 117 615 157.5 627 c 128,-1,6
 198 639 198 639 236 639 c 0,7,8
 288 639 288 639 325.5 624.5 c 128,-1,9
 363 610 363 610 388 585 c 128,-1,10
 413 560 413 560 425 526 c 128,-1,11
 437 492 437 492 437 452 c 0,12,13
 437 416 437 416 422 378.5 c 128,-1,14
 407 341 407 341 379.5 301.5 c 128,-1,15
 352 262 352 262 313 219.5 c 128,-1,16
 274 177 274 177 225 130 c 2,17,-1
 166 73 l 1,18,-1
 452 73 l 1,19,-1
 452 0 l 1,20,-1
 73 0 l 1,21,-1
 57 63 l 1,22,-1
 140 146 l 2,23,24
 195 201 195 201 234.5 244 c 128,-1,25
 274 287 274 287 299 323 c 128,-1,26
 324 359 324 359 335.5 389 c 128,-1,27
 347 419 347 419 347 449 c 0,28,29
 347 500 347 500 319.5 533.5 c 128,-1,30
 292 567 292 567 236 567 c 0,0,1
EndSplineSet
EndChar

StartChar: oe
Encoding: 339 339 103
Width: 455
GlyphClass: 2
Flags: W
LayerCount: 2
Fore
SplineSet
81 470 m 1,0,-1
 257 470 l 2,1,2
 291 470 291 470 322 460.5 c 128,-1,3
 353 451 353 451 376.5 432 c 128,-1,4
 400 413 400 413 413.5 386 c 128,-1,5
 427 359 427 359 427 325 c 0,6,7
 427 277 427 277 408 247 c 128,-1,8
 389 217 389 217 359.5 200.5 c 128,-1,9
 330 184 330 184 293 178 c 128,-1,10
 256 172 256 172 220 172 c 2,11,-1
 169 172 l 1,12,-1
 169 0 l 1,13,-1
 81 0 l 1,14,-1
 81 470 l 1,0,-1
168 240 m 1,15,-1
 223 240 l 2,16,17
 243 240 243 240 263.5 243.5 c 128,-1,18
 284 247 284 247 300.5 256 c 128,-1,19
 317 265 317 265 327 281 c 128,-1,20
 337 297 337 297 337 322 c 256,21,22
 337 347 337 347 327 362.5 c 128,-1,23
 317 378 317 378 301.5 387 c 128,-1,24
 286 396 286 396 266 399 c 128,-1,25
 246 402 246 402 226 402 c 2,26,-1
 168 402 l 1,27,-1
 168 240 l 1,15,-1
EndSplineSet
EndChar

StartChar: zcaron
Encoding: 382 382 104
Width: 394
GlyphClass: 2
Flags: W
LayerCount: 2
Fore
SplineSet
202 413 m 0,0,1
 245 413 245 413 277 396.5 c 128,-1,2
 309 380 309 380 330 351.5 c 128,-1,3
 351 323 351 323 361 284.5 c 128,-1,4
 371 246 371 246 371 202 c 0,5,6
 371 107 371 107 323.5 51 c 128,-1,7
 276 -5 276 -5 195 -5 c 0,8,9
 159 -5 159 -5 127.5 9 c 128,-1,10
 96 23 96 23 72.5 50 c 128,-1,11
 49 77 49 77 36 115.5 c 128,-1,12
 23 154 23 154 23 202 c 0,13,14
 23 302 23 302 72 357.5 c 128,-1,15
 121 413 121 413 202 413 c 0,0,1
94 203 m 0,16,17
 94 128 94 128 121.5 90 c 128,-1,18
 149 52 149 52 197 52 c 0,19,20
 251 52 251 52 275.5 88 c 128,-1,21
 300 124 300 124 300 202 c 0,22,23
 300 274 300 274 277.5 315.5 c 128,-1,24
 255 357 255 357 199 357 c 0,25,26
 148 357 148 357 121 321.5 c 128,-1,27
 94 286 94 286 94 203 c 0,16,17
EndSplineSet
EndChar

StartChar: Ydieresis
Encoding: 376 376 105
Width: 378
GlyphClass: 2
Flags: W
LayerCount: 2
Fore
SplineSet
214 630 m 1,0,-1
 290 630 l 1,1,-1
 290 379 l 1,2,-1
 358 379 l 1,3,-1
 358 326 l 1,4,-1
 290 326 l 1,5,-1
 290 224 l 1,6,-1
 223 224 l 1,7,-1
 223 326 l 1,8,-1
 18 326 l 1,9,-1
 18 370 l 1,10,-1
 214 630 l 1,0,-1
190 508 m 1,11,-1
 92 379 l 1,12,-1
 223 379 l 1,13,-1
 223 508 l 1,14,-1
 227 564 l 1,15,-1
 225 564 l 1,16,-1
 190 508 l 1,11,-1
EndSplineSet
EndChar

StartChar: cent
Encoding: 162 162 106
Width: 442
GlyphClass: 2
Flags: W
LayerCount: 2
Fore
SplineSet
291 59 m 0,0,1
 323 59 323 59 347 66 c 128,-1,2
 371 73 371 73 394 84 c 1,3,-1
 413 18 l 1,4,5
 359 -9 359 -9 284 -9 c 1,6,-1
 264 -47 l 1,7,8
 309 -50 309 -50 330.5 -69 c 128,-1,9
 352 -88 352 -88 352 -117 c 0,10,11
 352 -138 352 -138 343 -153.5 c 128,-1,12
 334 -169 334 -169 318.5 -179.5 c 128,-1,13
 303 -190 303 -190 283 -195 c 128,-1,14
 263 -200 263 -200 241 -200 c 0,15,16
 218 -200 218 -200 198.5 -196.5 c 128,-1,17
 179 -193 179 -193 167 -188 c 1,18,-1
 179 -146 l 1,19,20
 192 -151 192 -151 206 -153 c 128,-1,21
 220 -155 220 -155 234 -155 c 0,22,23
 261 -155 261 -155 276.5 -146.5 c 128,-1,24
 292 -138 292 -138 292 -119 c 0,25,26
 292 -99 292 -99 272 -88.5 c 128,-1,27
 252 -78 252 -78 201 -78 c 1,28,-1
 236 -5 l 1,29,30
 194 1 194 1 157.5 19 c 128,-1,31
 121 37 121 37 95 67 c 128,-1,32
 69 97 69 97 54 138.5 c 128,-1,33
 39 180 39 180 39 234 c 0,34,35
 39 290 39 290 57 335 c 128,-1,36
 75 380 75 380 107 411.5 c 128,-1,37
 139 443 139 443 184 460 c 128,-1,38
 229 477 229 477 283 477 c 0,39,40
 314 477 314 477 343.5 472.5 c 128,-1,41
 373 468 373 468 411 451 c 1,42,-1
 391 384 l 1,43,44
 345 410 345 410 292 410 c 0,45,46
 219 410 219 410 174 364.5 c 128,-1,47
 129 319 129 319 129 237 c 0,48,49
 129 186 129 186 143 152 c 128,-1,50
 157 118 157 118 180 97.5 c 128,-1,51
 203 77 203 77 232 68 c 128,-1,52
 261 59 261 59 291 59 c 0,0,1
EndSplineSet
EndChar

StartChar: sterling
Encoding: 163 163 107
Width: 510
GlyphClass: 2
Flags: W
LayerCount: 2
Fore
SplineSet
316 136 m 0,0,1
 348 136 348 136 372 143 c 128,-1,2
 396 150 396 150 419 161 c 1,3,-1
 438 95 l 1,4,5
 398 75 398 75 344 69 c 1,6,-1
 344 -20 l 1,7,-1
 269 -20 l 1,8,-1
 269 70 l 1,9,10
 225 75 225 75 187.5 92 c 128,-1,11
 150 109 150 109 122.5 138.5 c 128,-1,12
 95 168 95 168 79.5 209.5 c 128,-1,13
 64 251 64 251 64 306 c 0,14,15
 64 409 64 409 120 470 c 128,-1,16
 176 531 176 531 269 542 c 1,17,-1
 269 639 l 1,18,-1
 344 639 l 1,19,-1
 344 542 l 1,20,21
 366 540 366 540 388.5 534.5 c 128,-1,22
 411 529 411 529 436 518 c 1,23,-1
 416 451 l 1,24,25
 395 463 395 463 367.5 470 c 128,-1,26
 340 477 340 477 310 477 c 0,27,28
 237 477 237 477 195.5 434 c 128,-1,29
 154 391 154 391 154 309 c 0,30,31
 154 258 154 258 168 225 c 128,-1,32
 182 192 182 192 205 172 c 128,-1,33
 228 152 228 152 257 144 c 128,-1,34
 286 136 286 136 316 136 c 0,0,1
EndSplineSet
EndChar

StartChar: currency
Encoding: 164 164 108
Width: 559
GlyphClass: 2
Flags: W
LayerCount: 2
Fore
SplineSet
312.400390625 160.620117188 m 5,0,-1
 242 160.620117188 l 5,1,-1
 242 484 l 5,2,-1
 312.400390625 484 l 5,3,-1
 312.400390625 325.639648438 l 5,4,5
 338.799804688 347.099609375 338.799804688 347.099609375 347.600585938 361.16015625 c 132,-1,6
 356.400390625 375.219726562 356.400390625 375.219726562 394.799804688 375.219726562 c 4,7,8
 426 375.219726562 426 375.219726562 449.200195312 366.709960938 c 132,-1,9
 472.400390625 358.200195312 472.400390625 358.200195312 487.200195312 343.030273438 c 132,-1,10
 502 327.860351562 502 327.860351562 509.600585938 307.139648438 c 132,-1,11
 517.200195312 286.419921875 517.200195312 286.419921875 517.200195312 262 c 6,12,-1
 517.200195312 160.620117188 l 5,13,-1
 446.799804688 160.620117188 l 5,14,-1
 446.799804688 231.66015625 l 6,15,16
 446.799804688 271.620117188 446.799804688 271.620117188 429.200195312 289.75 c 132,-1,17
 411.600585938 307.879882812 411.600585938 307.879882812 375.600585938 307.879882812 c 4,18,19
 348.400390625 307.879882812 348.400390625 307.879882812 344 295.299804688 c 132,-1,20
 339.600585938 282.719726562 339.600585938 282.719726562 312.400390625 259.780273438 c 5,21,-1
 312.400390625 160.620117188 l 5,0,-1
355 67 m 0,22,23
 405 67 405 67 437.5 75 c 128,-1,24
 470 83 470 83 502 98 c 1,25,-1
 523 24 l 1,26,27
 488 7 488 7 446.5 -1 c 128,-1,28
 405 -9 405 -9 345 -9 c 0,29,30
 283 -9 283 -9 228 12 c 128,-1,31
 173 33 173 33 132.5 74 c 128,-1,32
 92 115 92 115 68.5 175.5 c 128,-1,33
 45 236 45 236 45 315 c 0,34,35
 45 392 45 392 68 452.5 c 128,-1,36
 91 513 91 513 131.5 554.5 c 128,-1,37
 172 596 172 596 228 617.5 c 128,-1,38
 284 639 284 639 350 639 c 0,39,40
 412 639 412 639 452 629 c 128,-1,41
 492 619 492 619 526 602 c 1,42,-1
 504 530 l 1,43,44
 485 538 485 538 468.5 544.5 c 128,-1,45
 452 551 452 551 435.5 555 c 128,-1,46
 419 559 419 559 401.5 561 c 128,-1,47
 384 563 384 563 362 563 c 0,48,49
 318 563 318 563 278.5 549.5 c 128,-1,50
 239 536 239 536 209.5 506 c 128,-1,51
 180 476 180 476 162.5 428.5 c 128,-1,52
 145 381 145 381 145 314 c 0,53,54
 145 246 145 246 162 199 c 128,-1,55
 179 152 179 152 207.5 123 c 128,-1,56
 236 94 236 94 274 80.5 c 128,-1,57
 312 67 312 67 355 67 c 0,22,23
EndSplineSet
EndChar

StartChar: yen
Encoding: 165 165 109
Width: 559
GlyphClass: 2
Flags: W
AnchorPoint: "Anchor-12" 530 130 basechar 0
LayerCount: 2
Fore
SplineSet
256.5 326.400390625 m 5,0,-1
 256.5 352.400390625 l 5,1,-1
 398.830078125 352.400390625 l 5,2,-1
 398.830078125 326.400390625 l 5,3,-1
 384.639648438 326.400390625 l 6,4,5
 360.129882812 326.400390625 360.129882812 326.400390625 347.23046875 315.200195312 c 132,-1,6
 334.330078125 304 334.330078125 304 334.330078125 286.400390625 c 4,7,8
 334.330078125 276.400390625 334.330078125 276.400390625 338.200195312 269.400390625 c 132,-1,9
 342.0703125 262.400390625 342.0703125 262.400390625 348.950195312 257.799804688 c 132,-1,10
 355.830078125 253.200195312 355.830078125 253.200195312 364.64453125 251 c 132,-1,11
 373.459960938 248.799804688 373.459960938 248.799804688 383.349609375 248.799804688 c 4,12,13
 402.26953125 248.799804688 402.26953125 248.799804688 418.39453125 256.599609375 c 132,-1,14
 434.51953125 264.400390625 434.51953125 264.400390625 445.700195312 277.200195312 c 5,15,-1
 445.700195312 397.599609375 l 5,16,-1
 239.299804688 397.599609375 l 5,17,-1
 239.299804688 423.200195312 l 5,18,-1
 517.940429688 423.200195312 l 5,19,-1
 517.940429688 397.599609375 l 5,20,-1
 479.240234375 397.599609375 l 5,21,-1
 479.240234375 171.200195312 l 5,22,-1
 445.700195312 171.200195312 l 5,23,-1
 445.700195312 244.400390625 l 5,24,25
 441.830078125 240.400390625 441.830078125 240.400390625 435.379882812 236.400390625 c 132,-1,26
 428.9296875 232.400390625 428.9296875 232.400390625 420.544921875 229 c 132,-1,27
 412.16015625 225.599609375 412.16015625 225.599609375 402.0546875 223.599609375 c 132,-1,28
 391.950195312 221.599609375 391.950195312 221.599609375 381.200195312 221.599609375 c 4,29,30
 363.5703125 221.599609375 363.5703125 221.599609375 348.51953125 226.400390625 c 132,-1,31
 333.469726562 231.200195312 333.469726562 231.200195312 322.504882812 239.799804688 c 132,-1,32
 311.540039062 248.400390625 311.540039062 248.400390625 305.3046875 260.400390625 c 132,-1,33
 299.0703125 272.400390625 299.0703125 272.400390625 299.0703125 287.200195312 c 4,34,35
 299.0703125 300.799804688 299.0703125 300.799804688 305.735351562 311.400390625 c 132,-1,36
 312.400390625 322 312.400390625 322 322.290039062 326.400390625 c 5,37,-1
 256.5 326.400390625 l 5,0,-1
355 67 m 0,38,39
 405 67 405 67 437.5 75 c 128,-1,40
 470 83 470 83 502 98 c 1,41,-1
 523 24 l 1,42,43
 488 7 488 7 446.5 -1 c 128,-1,44
 405 -9 405 -9 345 -9 c 0,45,46
 283 -9 283 -9 228 12 c 128,-1,47
 173 33 173 33 132.5 74 c 128,-1,48
 92 115 92 115 68.5 175.5 c 128,-1,49
 45 236 45 236 45 315 c 0,50,51
 45 392 45 392 68 452.5 c 128,-1,52
 91 513 91 513 131.5 554.5 c 128,-1,53
 172 596 172 596 228 617.5 c 128,-1,54
 284 639 284 639 350 639 c 0,55,56
 412 639 412 639 452 629 c 128,-1,57
 492 619 492 619 526 602 c 1,58,-1
 504 530 l 1,59,60
 485 538 485 538 468.5 544.5 c 128,-1,61
 452 551 452 551 435.5 555 c 128,-1,62
 419 559 419 559 401.5 561 c 128,-1,63
 384 563 384 563 362 563 c 0,64,65
 318 563 318 563 278.5 549.5 c 128,-1,66
 239 536 239 536 209.5 506 c 128,-1,67
 180 476 180 476 162.5 428.5 c 128,-1,68
 145 381 145 381 145 314 c 0,69,70
 145 246 145 246 162 199 c 128,-1,71
 179 152 179 152 207.5 123 c 128,-1,72
 236 94 236 94 274 80.5 c 128,-1,73
 312 67 312 67 355 67 c 0,38,39
EndSplineSet
EndChar

StartChar: brokenbar
Encoding: 166 166 110
Width: 628
GlyphClass: 2
Flags: W
AnchorPoint: "Anchor-12" 530 130 basechar 0
LayerCount: 2
Fore
SplineSet
30 388 m 1,0,-1
 30 453 l 1,1,-1
 361 453 l 1,2,-1
 361 388 l 1,3,-1
 328 388 l 2,4,5
 271 388 271 388 241 360 c 128,-1,6
 211 332 211 332 211 288 c 0,7,8
 211 263 211 263 220 245.5 c 128,-1,9
 229 228 229 228 245 216.5 c 128,-1,10
 261 205 261 205 281.5 199.5 c 128,-1,11
 302 194 302 194 325 194 c 0,12,13
 369 194 369 194 406.5 213.5 c 128,-1,14
 444 233 444 233 470 265 c 1,15,-1
 470 566 l 1,16,-1
 -10 566 l 1,17,-1
 -10 630 l 1,18,-1
 638 630 l 1,19,-1
 638 566 l 1,20,-1
 548 566 l 1,21,-1
 548 0 l 1,22,-1
 470 0 l 1,23,-1
 470 183 l 1,24,25
 461 173 461 173 446 163 c 128,-1,26
 431 153 431 153 411.5 144.5 c 128,-1,27
 392 136 392 136 368.5 131 c 128,-1,28
 345 126 345 126 320 126 c 0,29,30
 279 126 279 126 244 138 c 128,-1,31
 209 150 209 150 183.5 171.5 c 128,-1,32
 158 193 158 193 143.5 223 c 128,-1,33
 129 253 129 253 129 290 c 0,34,35
 129 324 129 324 144.5 350.5 c 128,-1,36
 160 377 160 377 183 388 c 1,37,-1
 30 388 l 1,0,-1
EndSplineSet
EndChar

StartChar: questiondown
Encoding: 191 191 111
Width: 496
GlyphClass: 2
Flags: W
AnchorPoint: "Anchor-12" 540 -70 basechar 0
AnchorPoint: "Anchor-7" 550 -30 basechar 0
AnchorPoint: "Anchor-6" 433 -65 basechar 0
AnchorPoint: "Anchor-5" 433 -45 basechar 0
AnchorPoint: "Anchor-4" 433 -45 basechar 0
AnchorPoint: "Anchor-1" 470 0 basechar 0
LayerCount: 2
Fore
SplineSet
335 -98 m 1,0,1
 263 -90 263 -90 211 -69 c 128,-1,2
 159 -48 159 -48 125.5 -18 c 128,-1,3
 92 12 92 12 76 49.5 c 128,-1,4
 60 87 60 87 60 128 c 0,5,6
 60 167 60 167 72.5 194.5 c 128,-1,7
 85 222 85 222 105 242 c 1,8,9
 83 265 83 265 66.5 291.5 c 128,-1,10
 50 318 50 318 50 355 c 0,11,12
 50 383 50 383 60.5 404.5 c 128,-1,13
 71 426 71 426 88.5 440 c 128,-1,14
 106 454 106 454 129.5 461 c 128,-1,15
 153 468 153 468 179 468 c 2,16,-1
 318 468 l 1,17,-1
 318 566 l 1,18,-1
 -10 566 l 1,19,-1
 -10 630 l 1,20,-1
 516 630 l 1,21,-1
 516 566 l 1,22,-1
 395 566 l 1,23,-1
 395 404 l 1,24,-1
 206 404 l 2,25,26
 175 404 175 404 152.5 393.5 c 128,-1,27
 130 383 130 383 130 347 c 0,28,29
 130 327 130 327 138 310 c 128,-1,30
 146 293 146 293 157 279 c 1,31,32
 183 294 183 294 213.5 300 c 128,-1,33
 244 306 244 306 276 306 c 0,34,35
 318 306 318 306 351.5 294 c 128,-1,36
 385 282 385 282 408 261 c 128,-1,37
 431 240 431 240 443.5 212.5 c 128,-1,38
 456 185 456 185 456 154 c 0,39,40
 456 122 456 122 443 93.5 c 128,-1,41
 430 65 430 65 410 46 c 1,42,-1
 350 89 l 1,43,44
 363 102 363 102 370.5 117.5 c 128,-1,45
 378 133 378 133 378 153 c 0,46,47
 378 168 378 168 372.5 183.5 c 128,-1,48
 367 199 367 199 355 211 c 128,-1,49
 343 223 343 223 323 231 c 128,-1,50
 303 239 303 239 274 239 c 0,51,52
 214 239 214 239 177 207.5 c 128,-1,53
 140 176 140 176 140 126 c 0,54,55
 140 99 140 99 148.5 73 c 128,-1,56
 157 47 157 47 181 25.5 c 128,-1,57
 205 4 205 4 247 -12 c 128,-1,58
 289 -28 289 -28 356 -35 c 1,59,-1
 335 -98 l 1,0,1
EndSplineSet
EndChar

StartChar: Agrave
Encoding: 192 192 112
Width: 557
GlyphClass: 2
Flags: W
AnchorPoint: "Anchor-12" 470 30 basechar 0
LayerCount: 2
Fore
SplineSet
245 356 m 2,0,1
 184 356 184 356 157 325 c 128,-1,2
 130 294 130 294 130 246 c 0,3,4
 130 192 130 192 152.5 140.5 c 128,-1,5
 175 89 175 89 217 26 c 1,6,-1
 150 -9 l 1,7,8
 105 54 105 54 77.5 115.5 c 128,-1,9
 50 177 50 177 50 249 c 0,10,11
 50 333 50 333 97.5 378.5 c 128,-1,12
 145 424 145 424 230 424 c 2,13,-1
 399 424 l 1,14,-1
 399 566 l 1,15,-1
 -10 566 l 1,16,-1
 -10 630 l 1,17,-1
 567 630 l 1,18,-1
 567 566 l 1,19,-1
 477 566 l 1,20,-1
 477 0 l 1,21,-1
 399 0 l 1,22,-1
 399 356 l 1,23,-1
 245 356 l 2,0,1
EndSplineSet
EndChar

StartChar: Aacute
Encoding: 193 193 113
Width: 768
GlyphClass: 2
Flags: W
AnchorPoint: "Anchor-7" 690 0 basechar 0
AnchorPoint: "Anchor-6" 509 0 basechar 0
AnchorPoint: "Anchor-5" 540 20 basechar 0
AnchorPoint: "Anchor-4" 509 0 basechar 0
AnchorPoint: "Anchor-1" 520 0 basechar 0
LayerCount: 2
Fore
SplineSet
783 566 m 1,0,-1
 429 566 l 1,1,-1
 429 398 l 1,2,3
 450 424 450 424 486.5 438.5 c 128,-1,4
 523 453 523 453 561 453 c 256,5,6
 599 453 599 453 631 441 c 128,-1,7
 663 429 663 429 686 406.5 c 128,-1,8
 709 384 709 384 721.5 352.5 c 128,-1,9
 734 321 734 321 734 282 c 0,10,11
 734 238 734 238 719 203.5 c 128,-1,12
 704 169 704 169 678 145 c 128,-1,13
 652 121 652 121 615 108.5 c 128,-1,14
 578 96 578 96 535 96 c 1,15,-1
 530 162 l 1,16,17
 549 163 549 163 571 170.5 c 128,-1,18
 593 178 593 178 611.5 192.5 c 128,-1,19
 630 207 630 207 642 229 c 128,-1,20
 654 251 654 251 654 281 c 0,21,22
 654 332 654 332 626 359.5 c 128,-1,23
 598 387 598 387 552 387 c 0,24,25
 514 387 514 387 483 367 c 128,-1,26
 452 347 452 347 429 309 c 1,27,-1
 429 0 l 1,28,-1
 353 0 l 1,29,-1
 353 246 l 1,30,31
 338 229 338 229 306.5 215 c 128,-1,32
 275 201 275 201 233 201 c 0,33,34
 198 201 198 201 166.5 211 c 128,-1,35
 135 221 135 221 111.5 242 c 128,-1,36
 88 263 88 263 74 294 c 128,-1,37
 60 325 60 325 60 367 c 2,38,-1
 60 566 l 1,39,-1
 -10 566 l 1,40,-1
 -10 630 l 1,41,-1
 783 630 l 1,42,-1
 783 566 l 1,0,-1
138 375 m 2,43,44
 138 318 138 318 164 293 c 128,-1,45
 190 268 190 268 238 268 c 0,46,47
 275 268 275 268 305.5 286 c 128,-1,48
 336 304 336 304 353 334 c 1,49,-1
 353 566 l 1,50,-1
 138 566 l 1,51,-1
 138 375 l 2,43,44
EndSplineSet
EndChar

StartChar: Acircumflex
Encoding: 194 194 114
Width: 564
GlyphClass: 2
Flags: W
LayerCount: 2
Fore
SplineSet
484 566 m 1,0,-1
 484 0 l 1,1,-1
 406 0 l 1,2,-1
 406 177 l 1,3,4
 389 162 389 162 357 149 c 128,-1,5
 325 136 325 136 271 136 c 0,6,7
 227 136 227 136 186 151 c 128,-1,8
 145 166 145 166 113 196.5 c 128,-1,9
 81 227 81 227 61 272.5 c 128,-1,10
 41 318 41 318 40 378 c 1,11,-1
 69 379 l 2,12,13
 144 381 144 381 173.5 403.5 c 128,-1,14
 203 426 203 426 203 471 c 0,15,16
 203 499 203 499 191 522.5 c 128,-1,17
 179 546 179 546 160 566 c 1,18,-1
 -10 566 l 1,19,-1
 -10 630 l 1,20,-1
 574 630 l 1,21,-1
 574 566 l 1,22,-1
 484 566 l 1,0,-1
406 566 m 1,23,-1
 238 566 l 1,24,25
 255 549 255 549 269 522.5 c 128,-1,26
 283 496 283 496 283 462 c 0,27,28
 283 397 283 397 240 359.5 c 128,-1,29
 197 322 197 322 118 317 c 1,30,31
 128 266 128 266 168 235 c 128,-1,32
 208 204 208 204 274 204 c 0,33,34
 316 204 316 204 351.5 219 c 128,-1,35
 387 234 387 234 406 258 c 1,36,-1
 406 566 l 1,23,-1
EndSplineSet
EndChar

StartChar: Atilde
Encoding: 195 195 115
Width: 410
GlyphClass: 2
Flags: W
AnchorPoint: "Anchor-7" 470 0 basechar 0
AnchorPoint: "Anchor-6" 300 0 basechar 0
AnchorPoint: "Anchor-5" 300 0 basechar 0
AnchorPoint: "Anchor-4" 398 -15 basechar 0
AnchorPoint: "Anchor-1" 350 0 basechar 0
LayerCount: 2
Fore
SplineSet
318 35 m 1,0,-1
 250 -10 l 1,1,-1
 57 273 l 2,2,3
 41 296 41 296 35.5 308.5 c 128,-1,4
 30 321 30 321 30 332 c 0,5,6
 30 353 30 353 46 364 c 128,-1,7
 62 375 62 375 83 375 c 1,8,-1
 104 348 l 2,9,10
 116 332 116 332 129 326 c 128,-1,11
 142 320 142 320 162 320 c 0,12,13
 201 320 201 320 228 350 c 128,-1,14
 255 380 255 380 255 434 c 0,15,16
 255 479 255 479 241 512 c 128,-1,17
 227 545 227 545 210 566 c 1,18,-1
 -10 566 l 1,19,-1
 -10 630 l 1,20,-1
 420 630 l 1,21,-1
 420 566 l 1,22,-1
 287 566 l 1,23,24
 303 548 303 548 319 511.5 c 128,-1,25
 335 475 335 475 335 430 c 0,26,27
 335 390 335 390 323 357.5 c 128,-1,28
 311 325 311 325 289.5 302 c 128,-1,29
 268 279 268 279 238 266.5 c 128,-1,30
 208 254 208 254 172 254 c 0,31,32
 167 254 167 254 164 254 c 128,-1,33
 161 254 161 254 156 255 c 2,34,-1
 318 35 l 1,0,-1
EndSplineSet
EndChar

StartChar: Adieresis
Encoding: 196 196 116
Width: 682
GlyphClass: 2
Flags: W
AnchorPoint: "Anchor-12" 485 70 basechar 0
LayerCount: 2
Fore
SplineSet
321 347 m 1,0,1
 304 365 304 365 278.5 374 c 128,-1,2
 253 383 253 383 232 383 c 0,3,4
 183 383 183 383 151.5 356 c 128,-1,5
 120 329 120 329 120 270 c 0,6,7
 120 229 120 229 133.5 196.5 c 128,-1,8
 147 164 147 164 170 137 c 128,-1,9
 193 110 193 110 223.5 88 c 128,-1,10
 254 66 254 66 288 48 c 1,11,-1
 240 -9 l 1,12,13
 199 13 199 13 162.5 41.5 c 128,-1,14
 126 70 126 70 99 105 c 128,-1,15
 72 140 72 140 56 182 c 128,-1,16
 40 224 40 224 40 274 c 0,17,18
 40 320 40 320 55 353 c 128,-1,19
 70 386 70 386 95 407.5 c 128,-1,20
 120 429 120 429 152.5 439.5 c 128,-1,21
 185 450 185 450 220 450 c 0,22,23
 258 450 258 450 291.5 435.5 c 128,-1,24
 325 421 325 421 350 395 c 1,25,26
 368 420 368 420 398.5 434 c 128,-1,27
 429 448 429 448 464 448 c 0,28,29
 480 448 480 448 497.5 445.5 c 128,-1,30
 515 443 515 443 524 438 c 1,31,-1
 524 566 l 1,32,-1
 -10 566 l 1,33,-1
 -10 630 l 1,34,-1
 692 630 l 1,35,-1
 692 566 l 1,36,-1
 602 566 l 1,37,-1
 602 0 l 1,38,-1
 524 0 l 1,39,-1
 524 374 l 1,40,41
 516 378 516 378 504.5 380.5 c 128,-1,42
 493 383 493 383 476 383 c 0,43,44
 425 383 425 383 402.5 339.5 c 128,-1,45
 380 296 380 296 377 211 c 1,46,-1
 300 211 l 1,47,48
 300 259 300 259 306.5 292.5 c 128,-1,49
 313 326 313 326 321 347 c 1,0,1
EndSplineSet
EndChar

StartChar: Aring
Encoding: 197 197 117
Width: 540
GlyphClass: 2
Flags: W
LayerCount: 2
Fore
SplineSet
235 470 m 0,0,1
 289 470 289 470 325.5 451 c 128,-1,2
 362 432 362 432 382 409 c 1,3,-1
 382 566 l 1,4,-1
 -10 566 l 1,5,-1
 -10 630 l 1,6,-1
 550 630 l 1,7,-1
 550 566 l 1,8,-1
 460 566 l 1,9,-1
 460 0 l 1,10,-1
 382 0 l 1,11,-1
 382 157 l 1,12,13
 364 139 364 139 330.5 121 c 128,-1,14
 297 103 297 103 240 103 c 0,15,16
 199 103 199 103 163 115.5 c 128,-1,17
 127 128 127 128 99.5 152.5 c 128,-1,18
 72 177 72 177 56 212.5 c 128,-1,19
 40 248 40 248 40 295 c 0,20,21
 40 338 40 338 54.5 370.5 c 128,-1,22
 69 403 69 403 95.5 425 c 128,-1,23
 122 447 122 447 157.5 458.5 c 128,-1,24
 193 470 193 470 235 470 c 0,0,1
382 329 m 1,25,26
 365 357 365 357 330 380 c 128,-1,27
 295 403 295 403 250 403 c 0,28,29
 193 403 193 403 157.5 375.5 c 128,-1,30
 122 348 122 348 122 292 c 0,31,32
 122 225 122 225 158 198 c 128,-1,33
 194 171 194 171 255 171 c 0,34,35
 281 171 281 171 304 179.5 c 128,-1,36
 327 188 327 188 344.5 202.5 c 128,-1,37
 362 217 362 217 372 237 c 128,-1,38
 382 257 382 257 382 280 c 2,39,-1
 382 329 l 1,25,26
EndSplineSet
EndChar

StartChar: AE
Encoding: 198 198 118
Width: 554
GlyphClass: 2
Flags: W
AnchorPoint: "Anchor-12" 510 105 basechar 0
LayerCount: 2
Fore
SplineSet
189 566 m 1,0,-1
 189 318 l 1,1,-1
 396 318 l 1,2,-1
 396 566 l 1,3,-1
 189 566 l 1,0,-1
189 181 m 1,4,5
 184 175 184 175 170.5 169 c 128,-1,6
 157 163 157 163 139 163 c 0,7,8
 119 163 119 163 101.5 170.5 c 128,-1,9
 84 178 84 178 70 191 c 128,-1,10
 56 204 56 204 48 222 c 128,-1,11
 40 240 40 240 40 261 c 0,12,13
 40 287 40 287 55.5 302.5 c 128,-1,14
 71 318 71 318 100 318 c 2,15,-1
 112 318 l 1,16,-1
 112 566 l 1,17,-1
 -10 566 l 1,18,-1
 -10 630 l 1,19,-1
 564 630 l 1,20,-1
 564 566 l 1,21,-1
 474 566 l 1,22,-1
 474 0 l 1,23,-1
 396 0 l 1,24,-1
 396 253 l 1,25,-1
 189 253 l 1,26,-1
 189 181 l 1,4,5
EndSplineSet
EndChar

StartChar: Ccedilla
Encoding: 199 199 119
Width: 531
GlyphClass: 2
Flags: W
LayerCount: 2
Fore
SplineSet
373 372 m 1,0,-1
 373 566 l 1,1,-1
 -10 566 l 1,2,-1
 -10 630 l 1,3,-1
 541 630 l 1,4,-1
 541 566 l 1,5,-1
 451 566 l 1,6,-1
 451 0 l 1,7,-1
 373 0 l 1,8,-1
 373 305 l 1,9,-1
 176 305 l 1,10,-1
 181 225 l 1,11,12
 177 220 177 220 165 213.5 c 128,-1,13
 153 207 153 207 133 207 c 0,14,15
 93 207 93 207 66.5 235.5 c 128,-1,16
 40 264 40 264 40 306 c 0,17,18
 40 332 40 332 56.5 352 c 128,-1,19
 73 372 73 372 108 372 c 2,20,-1
 373 372 l 1,0,-1
EndSplineSet
EndChar

StartChar: Egrave
Encoding: 200 200 120
Width: 752
GlyphClass: 2
Flags: W
AnchorPoint: "Anchor-7" 670 0 basechar 0
AnchorPoint: "Anchor-6" 495 0 basechar 0
AnchorPoint: "Anchor-5" 540 20 basechar 0
AnchorPoint: "Anchor-4" 495 0 basechar 0
AnchorPoint: "Anchor-1" 500 0 basechar 0
LayerCount: 2
Fore
SplineSet
340 352 m 1,0,1
 315 379 315 379 288.5 390 c 128,-1,2
 262 401 262 401 229 401 c 0,3,4
 208 401 208 401 188.5 394.5 c 128,-1,5
 169 388 169 388 154 374.5 c 128,-1,6
 139 361 139 361 129.5 341 c 128,-1,7
 120 321 120 321 120 294 c 0,8,9
 120 239 120 239 149.5 209 c 128,-1,10
 179 179 179 179 226 179 c 0,11,12
 249 179 249 179 269.5 185.5 c 128,-1,13
 290 192 290 192 306 206.5 c 128,-1,14
 322 221 322 221 331 243 c 128,-1,15
 340 265 340 265 340 297 c 2,16,-1
 340 352 l 1,0,1
415 0 m 1,17,-1
 339 0 l 1,18,-1
 339 164 l 1,19,20
 322 139 322 139 290.5 125 c 128,-1,21
 259 111 259 111 221 111 c 0,22,23
 186 111 186 111 153.5 123 c 128,-1,24
 121 135 121 135 95.5 159 c 128,-1,25
 70 183 70 183 55 218 c 128,-1,26
 40 253 40 253 40 300 c 0,27,28
 40 342 40 342 54.5 373.5 c 128,-1,29
 69 405 69 405 93 426 c 128,-1,30
 117 447 117 447 149 457.5 c 128,-1,31
 181 468 181 468 216 468 c 0,32,33
 293 468 293 468 339 416 c 1,34,-1
 339 566 l 1,35,-1
 -10 566 l 1,36,-1
 -10 630 l 1,37,-1
 772 630 l 1,38,-1
 772 566 l 1,39,-1
 415 566 l 1,40,-1
 415 403 l 1,41,42
 432 430 432 430 467.5 447 c 128,-1,43
 503 464 503 464 546 464 c 0,44,45
 580 464 580 464 611 453.5 c 128,-1,46
 642 443 642 443 665.5 422 c 128,-1,47
 689 401 689 401 703 370 c 128,-1,48
 717 339 717 339 717 299 c 0,49,50
 717 253 717 253 702 219.5 c 128,-1,51
 687 186 687 186 661.5 164.5 c 128,-1,52
 636 143 636 143 602 132.5 c 128,-1,53
 568 122 568 122 531 122 c 0,54,55
 520 122 520 122 505 124 c 128,-1,56
 490 126 490 126 482 129 c 1,57,-1
 497 193 l 1,58,59
 512 190 512 190 529 190 c 0,60,61
 551 190 551 190 570.5 196 c 128,-1,62
 590 202 590 202 605 215.5 c 128,-1,63
 620 229 620 229 628.5 249.5 c 128,-1,64
 637 270 637 270 637 300 c 0,65,66
 637 346 637 346 609.5 371.5 c 128,-1,67
 582 397 582 397 536 397 c 0,68,69
 476 397 476 397 445.5 361.5 c 128,-1,70
 415 326 415 326 415 267 c 2,71,-1
 415 0 l 1,17,-1
EndSplineSet
EndChar

StartChar: Eacute
Encoding: 201 201 121
Width: 677
GlyphClass: 2
Flags: W
LayerCount: 2
Fore
SplineSet
346 358 m 1,0,1
 368 346 368 346 389 314.5 c 128,-1,2
 410 283 410 283 410 234 c 0,3,4
 410 197 410 197 396.5 166.5 c 128,-1,5
 383 136 383 136 359 114.5 c 128,-1,6
 335 93 335 93 302 81.5 c 128,-1,7
 269 70 269 70 231 70 c 0,8,9
 189 70 189 70 155.5 81.5 c 128,-1,10
 122 93 122 93 96.5 113.5 c 128,-1,11
 71 134 71 134 52 161 c 128,-1,12
 33 188 33 188 20 219 c 1,13,-1
 78 250 l 1,14,15
 104 198 104 198 139 167.5 c 128,-1,16
 174 137 174 137 228 137 c 0,17,18
 248 137 248 137 266.5 143 c 128,-1,19
 285 149 285 149 299 161 c 128,-1,20
 313 173 313 173 321.5 192 c 128,-1,21
 330 211 330 211 330 237 c 0,22,23
 330 300 330 300 290 329 c 128,-1,24
 250 358 250 358 184 358 c 2,25,-1
 151 358 l 1,26,-1
 151 423 l 1,27,-1
 519 423 l 1,28,-1
 519 566 l 1,29,-1
 -10 566 l 1,30,-1
 -10 630 l 1,31,-1
 687 630 l 1,32,-1
 687 566 l 1,33,-1
 597 566 l 1,34,-1
 597 0 l 1,35,-1
 519 0 l 1,36,-1
 519 358 l 1,37,-1
 346 358 l 1,0,1
EndSplineSet
EndChar

StartChar: Ecircumflex
Encoding: 202 202 122
Width: 498
GlyphClass: 2
Flags: W
AnchorPoint: "Anchor-12" 685 -15 basechar 0
AnchorPoint: "Anchor-7" 560 0 basechar 0
AnchorPoint: "Anchor-6" 390 0 basechar 0
AnchorPoint: "Anchor-5" 450 0 basechar 0
AnchorPoint: "Anchor-4" 420 0 basechar 0
AnchorPoint: "Anchor-1" 493 0 basechar 0
LayerCount: 2
Fore
SplineSet
473 44 m 1,0,1
 441 22 441 22 393.5 9.5 c 128,-1,2
 346 -3 346 -3 291 -3 c 0,3,4
 243 -3 243 -3 197.5 10.5 c 128,-1,5
 152 24 152 24 117 51.5 c 128,-1,6
 82 79 82 79 61 120 c 128,-1,7
 40 161 40 161 40 216 c 0,8,9
 40 297 40 297 90 349 c 128,-1,10
 140 401 140 401 225 418 c 2,11,-1
 336 441 l 1,12,-1
 336 566 l 1,13,-1
 -10 566 l 1,14,-1
 -10 630 l 1,15,-1
 518 630 l 1,16,-1
 518 566 l 1,17,-1
 413 566 l 1,18,-1
 413 378 l 1,19,-1
 289 353 l 2,20,21
 254 346 254 346 223.5 334.5 c 128,-1,22
 193 323 193 323 170.5 306 c 128,-1,23
 148 289 148 289 135 266 c 128,-1,24
 122 243 122 243 122 212 c 0,25,26
 122 176 122 176 134.5 149 c 128,-1,27
 147 122 147 122 169.5 103.5 c 128,-1,28
 192 85 192 85 222.5 76 c 128,-1,29
 253 67 253 67 290 67 c 0,30,31
 324 67 324 67 367.5 76.5 c 128,-1,32
 411 86 411 86 448 109 c 1,33,-1
 473 44 l 1,0,1
EndSplineSet
EndChar

StartChar: Edieresis
Encoding: 203 203 123
Width: 497
GlyphClass: 2
Flags: W
AnchorPoint: "Anchor-12" 650 0 basechar 0
AnchorPoint: "Anchor-7" 540 0 basechar 0
AnchorPoint: "Anchor-6" 360 0 basechar 0
AnchorPoint: "Anchor-5" 430 0 basechar 0
AnchorPoint: "Anchor-4" 390 0 basechar 0
AnchorPoint: "Anchor-1" 491 0 basechar 0
LayerCount: 2
Fore
SplineSet
150 198 m 1,0,1
 108 227 108 227 79 264.5 c 128,-1,2
 50 302 50 302 50 347 c 0,3,4
 50 373 50 373 58.5 395.5 c 128,-1,5
 67 418 67 418 84.5 434.5 c 128,-1,6
 102 451 102 451 129 460.5 c 128,-1,7
 156 470 156 470 194 470 c 2,8,-1
 333 470 l 1,9,-1
 333 566 l 1,10,-1
 -10 566 l 1,11,-1
 -10 630 l 1,12,-1
 517 630 l 1,13,-1
 517 566 l 1,14,-1
 411 566 l 1,15,-1
 411 404 l 1,16,-1
 208 404 l 2,17,18
 170 404 170 404 150 387.5 c 128,-1,19
 130 371 130 371 130 344 c 0,20,21
 130 324 130 324 141 306.5 c 128,-1,22
 152 289 152 289 168 275 c 1,23,24
 195 285 195 285 220.5 289.5 c 128,-1,25
 246 294 246 294 275 294 c 0,26,27
 316 294 316 294 349.5 283.5 c 128,-1,28
 383 273 383 273 407 253.5 c 128,-1,29
 431 234 431 234 444 207 c 128,-1,30
 457 180 457 180 457 147 c 0,31,32
 457 115 457 115 443.5 87 c 128,-1,33
 430 59 430 59 405 38.5 c 128,-1,34
 380 18 380 18 343.5 6.5 c 128,-1,35
 307 -5 307 -5 261 -5 c 0,36,37
 190 -5 190 -5 129.5 20 c 128,-1,38
 69 45 69 45 28 80 c 1,39,-1
 70 136 l 1,40,41
 109 102 109 102 157 83.5 c 128,-1,42
 205 65 205 65 259 65 c 0,43,44
 318 65 318 65 347.5 86.5 c 128,-1,45
 377 108 377 108 377 148 c 0,46,47
 377 187 377 187 350.5 206.5 c 128,-1,48
 324 226 324 226 273 226 c 0,49,50
 247 226 247 226 216 219.5 c 128,-1,51
 185 213 185 213 150 198 c 1,0,1
EndSplineSet
EndChar

StartChar: Igrave
Encoding: 204 204 124
Width: 511
GlyphClass: 2
Flags: W
AnchorPoint: "Anchor-12" 520 125 basechar 0
LayerCount: 2
Fore
SplineSet
521 566 m 1,0,-1
 431 566 l 1,1,-1
 431 0 l 1,2,-1
 353 0 l 1,3,-1
 353 241 l 1,4,5
 335 225 335 225 305 213 c 128,-1,6
 275 201 275 201 233 201 c 0,7,8
 198 201 198 201 167 211 c 128,-1,9
 136 221 136 221 112 242 c 128,-1,10
 88 263 88 263 74 294 c 128,-1,11
 60 325 60 325 60 367 c 2,12,-1
 60 566 l 1,13,-1
 -10 566 l 1,14,-1
 -10 630 l 1,15,-1
 521 630 l 1,16,-1
 521 566 l 1,0,-1
138 375 m 2,17,18
 138 318 138 318 164 293 c 128,-1,19
 190 268 190 268 238 268 c 0,20,21
 275 268 275 268 307 285.5 c 128,-1,22
 339 303 339 303 353 329 c 1,23,-1
 353 566 l 1,24,-1
 138 566 l 1,25,-1
 138 375 l 2,17,18
EndSplineSet
EndChar

StartChar: Iacute
Encoding: 205 205 125
Width: 545
GlyphClass: 2
Flags: W
AnchorPoint: "Anchor-12" 520 70 basechar 0
LayerCount: 2
Fore
SplineSet
240 470 m 0,0,1
 293 470 293 470 326.5 456 c 128,-1,2
 360 442 360 442 387 420 c 1,3,-1
 387 566 l 1,4,-1
 -10 566 l 1,5,-1
 -10 630 l 1,6,-1
 555 630 l 1,7,-1
 555 566 l 1,8,-1
 465 566 l 1,9,-1
 465 0 l 1,10,-1
 387 0 l 1,11,-1
 387 152 l 1,12,13
 370 135 370 135 334 119 c 128,-1,14
 298 103 298 103 244 103 c 0,15,16
 205 103 205 103 168.5 115.5 c 128,-1,17
 132 128 132 128 103.5 152.5 c 128,-1,18
 75 177 75 177 57.5 212.5 c 128,-1,19
 40 248 40 248 40 295 c 0,20,21
 40 338 40 338 55.5 370.5 c 128,-1,22
 71 403 71 403 98 425 c 128,-1,23
 125 447 125 447 161.5 458.5 c 128,-1,24
 198 470 198 470 240 470 c 0,0,1
122 292 m 0,25,26
 122 259 122 259 132.5 235.5 c 128,-1,27
 143 212 143 212 161 198 c 128,-1,28
 179 184 179 184 202.5 177.5 c 128,-1,29
 226 171 226 171 252 171 c 0,30,31
 277 171 277 171 304 179 c 1,32,-1
 158 375 l 1,33,34
 122 347 122 347 122 292 c 0,25,26
387 340 m 1,35,36
 367 366 367 366 331 384.5 c 128,-1,37
 295 403 295 403 251 403 c 0,38,39
 226 403 226 403 205 397 c 1,40,-1
 349 202 l 1,41,42
 366 215 366 215 376.5 232 c 128,-1,43
 387 249 387 249 387 270 c 2,44,-1
 387 340 l 1,35,36
EndSplineSet
EndChar

StartChar: Icircumflex
Encoding: 206 206 126
Width: 667
GlyphClass: 2
Flags: W
AnchorPoint: "Anchor-12" 485 100 basechar 0
LayerCount: 2
Fore
SplineSet
318 35 m 1,0,-1
 250 -10 l 1,1,-1
 57 273 l 2,2,3
 41 296 41 296 35.5 308.5 c 128,-1,4
 30 321 30 321 30 332 c 0,5,6
 30 353 30 353 46 364 c 128,-1,7
 62 375 62 375 83 375 c 1,8,-1
 104 348 l 2,9,10
 116 332 116 332 129 326 c 128,-1,11
 142 320 142 320 162 320 c 0,12,13
 201 320 201 320 228 350 c 128,-1,14
 255 380 255 380 255 434 c 0,15,16
 255 479 255 479 241 512 c 128,-1,17
 227 545 227 545 210 566 c 1,18,-1
 -10 566 l 1,19,-1
 -10 630 l 1,20,-1
 677 630 l 1,21,-1
 677 566 l 1,22,-1
 587 566 l 1,23,-1
 587 0 l 1,24,-1
 509 0 l 1,25,-1
 509 259 l 1,26,27
 469 239 469 239 397 239 c 0,28,29
 362 239 362 239 327 251 c 128,-1,30
 292 263 292 263 266 281 c 1,31,32
 227 254 227 254 172 254 c 0,33,34
 167 254 167 254 164 254 c 128,-1,35
 161 254 161 254 156 255 c 2,36,-1
 318 35 l 1,0,-1
387 309 m 0,37,38
 429 309 429 309 459.5 319 c 128,-1,39
 490 329 490 329 509 344 c 1,40,-1
 509 566 l 1,41,-1
 287 566 l 1,42,43
 303 548 303 548 319 511.5 c 128,-1,44
 335 475 335 475 335 430 c 0,45,46
 335 369 335 369 307 325 c 1,47,48
 325 317 325 317 344 313 c 128,-1,49
 363 309 363 309 387 309 c 0,37,38
EndSplineSet
EndChar

StartChar: Oslash
Encoding: 216 216 127
Width: 531
GlyphClass: 2
Flags: W
LayerCount: 2
Fore
SplineSet
68 45 m 0,0,1
 68 65 68 65 83.5 81.5 c 128,-1,2
 99 98 99 98 123 98 c 0,3,4
 148 98 148 98 162.5 81.5 c 128,-1,5
 177 65 177 65 177 45 c 0,6,7
 177 22 177 22 162 6.5 c 128,-1,8
 147 -9 147 -9 123 -9 c 256,9,10
 99 -9 99 -9 83.5 6.5 c 128,-1,11
 68 22 68 22 68 45 c 0,0,1
373 372 m 1,12,-1
 373 566 l 1,13,-1
 -10 566 l 1,14,-1
 -10 630 l 1,15,-1
 541 630 l 1,16,-1
 541 566 l 1,17,-1
 451 566 l 1,18,-1
 451 0 l 1,19,-1
 373 0 l 1,20,-1
 373 305 l 1,21,-1
 176 305 l 1,22,-1
 181 225 l 1,23,24
 177 220 177 220 165 213.5 c 128,-1,25
 153 207 153 207 133 207 c 0,26,27
 93 207 93 207 66.5 235.5 c 128,-1,28
 40 264 40 264 40 306 c 0,29,30
 40 332 40 332 56.5 352 c 128,-1,31
 73 372 73 372 108 372 c 2,32,-1
 373 372 l 1,12,-1
EndSplineSet
EndChar

StartChar: Ugrave
Encoding: 217 217 128
Width: 521
GlyphClass: 2
Flags: W
AnchorPoint: "Anchor-12" 520 125 basechar 0
LayerCount: 2
Fore
SplineSet
531 566 m 1,0,-1
 441 566 l 1,1,-1
 441 0 l 1,2,-1
 363 0 l 1,3,-1
 363 231 l 1,4,5
 345 215 345 215 315 203 c 128,-1,6
 285 191 285 191 243 191 c 0,7,8
 208 191 208 191 175 201 c 128,-1,9
 142 211 142 211 116.5 232 c 128,-1,10
 91 253 91 253 75.5 284 c 128,-1,11
 60 315 60 315 60 357 c 2,12,-1
 60 566 l 1,13,-1
 -10 566 l 1,14,-1
 -10 630 l 1,15,-1
 531 630 l 1,16,-1
 531 566 l 1,0,-1
138 365 m 2,17,18
 138 308 138 308 169 283 c 128,-1,19
 200 258 200 258 248 258 c 0,20,21
 277 258 277 258 304.5 267.5 c 128,-1,22
 332 277 332 277 349 294 c 1,23,-1
 138 496 l 1,24,-1
 138 365 l 2,17,18
363 566 m 1,25,-1
 138 566 l 1,26,-1
 363 350 l 1,27,-1
 363 566 l 1,25,-1
EndSplineSet
EndChar

StartChar: aring
Encoding: 229 229 129
Width: 489
GlyphClass: 2
Flags: W
LayerCount: 2
Fore
SplineSet
73 428 m 1,0,1
 97 440 97 440 118 449.5 c 128,-1,2
 139 459 139 459 160 465 c 128,-1,3
 181 471 181 471 203 474 c 128,-1,4
 225 477 225 477 251 477 c 0,5,6
 290 477 290 477 322.5 468.5 c 128,-1,7
 355 460 355 460 378.5 440 c 128,-1,8
 402 420 402 420 415 387.5 c 128,-1,9
 428 355 428 355 428 306 c 2,10,-1
 428 0 l 1,11,-1
 355 0 l 1,12,-1
 344 52 l 1,13,-1
 342 52 l 1,14,15
 311 19 311 19 274 5 c 128,-1,16
 237 -9 237 -9 192 -9 c 0,17,18
 158 -9 158 -9 129.5 0.5 c 128,-1,19
 101 10 101 10 80 27.5 c 128,-1,20
 59 45 59 45 47.5 70 c 128,-1,21
 36 95 36 95 36 126 c 0,22,23
 36 200 36 200 94.5 238.5 c 128,-1,24
 153 277 153 277 249 277 c 2,25,-1
 339 277 l 1,26,-1
 339 317 l 2,27,28
 339 368 339 368 313 386.5 c 128,-1,29
 287 405 287 405 243 405 c 0,30,31
 217 405 217 405 183.5 396.5 c 128,-1,32
 150 388 150 388 107 364 c 1,33,-1
 73 428 l 1,0,1
340 217 m 1,34,-1
 266 215 l 2,35,36
 191 213 191 213 159.5 188.5 c 128,-1,37
 128 164 128 164 128 129 c 0,38,39
 128 108 128 108 135 93.5 c 128,-1,40
 142 79 142 79 153.5 71 c 128,-1,41
 165 63 165 63 180.5 59.5 c 128,-1,42
 196 56 196 56 213 56 c 0,43,44
 246 56 246 56 280 71.5 c 128,-1,45
 314 87 314 87 340 121 c 1,46,-1
 340 217 l 1,34,-1
160 623 m 0,47,48
 160 665 160 665 188 685.5 c 128,-1,49
 216 706 216 706 253 706 c 0,50,51
 291 706 291 706 318.5 685.5 c 128,-1,52
 346 665 346 665 346 623 c 0,53,54
 346 602 346 602 338 586.5 c 128,-1,55
 330 571 330 571 317 560.5 c 128,-1,56
 304 550 304 550 287.5 545 c 128,-1,57
 271 540 271 540 253 540 c 0,58,59
 217 540 217 540 188.5 561.5 c 128,-1,60
 160 583 160 583 160 623 c 0,47,48
205 623 m 256,61,62
 205 600 205 600 217.5 586.5 c 128,-1,63
 230 573 230 573 253 573 c 256,64,65
 276 573 276 573 288.5 586.5 c 128,-1,66
 301 600 301 600 301 623 c 256,67,68
 301 646 301 646 288.5 659.5 c 128,-1,69
 276 673 276 673 253 673 c 256,70,71
 230 673 230 673 217.5 659.5 c 128,-1,72
 205 646 205 646 205 623 c 256,61,62
EndSplineSet
EndChar

StartChar: ae
Encoding: 230 230 130
Width: 400
GlyphClass: 2
Flags: W
LayerCount: 2
Fore
SplineSet
38 182 m 1,0,-1
 159 303 l 1,1,-1
 38 424 l 1,2,-1
 79 465 l 1,3,-1
 200 344 l 1,4,-1
 321 465 l 1,5,-1
 362 424 l 1,6,-1
 241 303 l 1,7,-1
 362 182 l 1,8,-1
 321 141 l 1,9,-1
 200 262 l 1,10,-1
 79 141 l 1,11,-1
 38 182 l 1,0,-1
EndSplineSet
EndChar

StartChar: oacute
Encoding: 243 243 131
Width: 590
GlyphClass: 2
Flags: W
LayerCount: 2
Fore
SplineSet
256 630 m 1,0,-1
 338 630 l 1,1,-1
 589 0 l 1,2,-1
 493 0 l 1,3,-1
 424 175 l 1,4,-1
 165 175 l 1,5,-1
 97 0 l 1,6,-1
 2 0 l 1,7,-1
 256 630 l 1,0,-1
190 248 m 1,8,-1
 397 248 l 1,9,-1
 355 357 l 2,10,11
 338 400 338 400 324 440 c 128,-1,12
 310 480 310 480 296 522 c 1,13,-1
 294 522 l 1,14,15
 280 480 280 480 265 441 c 128,-1,16
 250 402 250 402 233 357 c 2,17,-1
 190 248 l 1,8,-1
EndSplineSet
EndChar

StartChar: ocircumflex
Encoding: 244 244 132
Width: 537
GlyphClass: 2
Flags: W
LayerCount: 2
Fore
SplineSet
269 630 m 2,0,1
 363 630 363 630 415.5 589.5 c 128,-1,2
 468 549 468 549 468 471 c 0,3,4
 468 413 468 413 435.5 380.5 c 128,-1,5
 403 348 403 348 354 335 c 1,6,7
 382 330 382 330 406 317.5 c 128,-1,8
 430 305 430 305 448 285 c 128,-1,9
 466 265 466 265 476.5 237.5 c 128,-1,10
 487 210 487 210 487 176 c 0,11,12
 487 137 487 137 470 104.5 c 128,-1,13
 453 72 453 72 423 49 c 128,-1,14
 393 26 393 26 352 13 c 128,-1,15
 311 0 311 0 262 0 c 2,16,-1
 80 0 l 1,17,-1
 80 630 l 1,18,-1
 269 630 l 2,0,1
172 367 m 1,19,-1
 247 367 l 2,20,21
 272 367 272 367 295 371 c 128,-1,22
 318 375 318 375 335.5 386 c 128,-1,23
 353 397 353 397 363.5 415.5 c 128,-1,24
 374 434 374 434 374 464 c 0,25,26
 374 512 374 512 341.5 534 c 128,-1,27
 309 556 309 556 255 556 c 2,28,-1
 172 556 l 1,29,-1
 172 367 l 1,19,-1
172 74 m 1,30,-1
 252 74 l 2,31,32
 280 74 280 74 305 79.5 c 128,-1,33
 330 85 330 85 349 98 c 128,-1,34
 368 111 368 111 379.5 132.5 c 128,-1,35
 391 154 391 154 391 185 c 256,36,37
 391 216 391 216 377.5 236.5 c 128,-1,38
 364 257 364 257 342 270 c 128,-1,39
 320 283 320 283 292 288.5 c 128,-1,40
 264 294 264 294 236 294 c 2,41,-1
 172 294 l 1,42,-1
 172 74 l 1,30,-1
EndSplineSet
EndChar

StartChar: otilde
Encoding: 245 245 133
Width: 559
GlyphClass: 2
Flags: W
LayerCount: 2
Fore
SplineSet
355 67 m 0,0,1
 405 67 405 67 437.5 75 c 128,-1,2
 470 83 470 83 502 98 c 1,3,-1
 523 24 l 1,4,5
 488 7 488 7 446.5 -1 c 128,-1,6
 405 -9 405 -9 345 -9 c 0,7,8
 283 -9 283 -9 228 12 c 128,-1,9
 173 33 173 33 132.5 74 c 128,-1,10
 92 115 92 115 68.5 175.5 c 128,-1,11
 45 236 45 236 45 315 c 0,12,13
 45 392 45 392 68 452.5 c 128,-1,14
 91 513 91 513 131.5 554.5 c 128,-1,15
 172 596 172 596 228 617.5 c 128,-1,16
 284 639 284 639 350 639 c 0,17,18
 412 639 412 639 452 629 c 128,-1,19
 492 619 492 619 526 602 c 1,20,-1
 504 530 l 1,21,22
 485 538 485 538 468.5 544.5 c 128,-1,23
 452 551 452 551 435.5 555 c 128,-1,24
 419 559 419 559 401.5 561 c 128,-1,25
 384 563 384 563 362 563 c 0,26,27
 318 563 318 563 278.5 549.5 c 128,-1,28
 239 536 239 536 209.5 506 c 128,-1,29
 180 476 180 476 162.5 428.5 c 128,-1,30
 145 381 145 381 145 314 c 0,31,32
 145 246 145 246 162 199 c 128,-1,33
 179 152 179 152 207.5 123 c 128,-1,34
 236 94 236 94 274 80.5 c 128,-1,35
 312 67 312 67 355 67 c 0,0,1
EndSplineSet
EndChar

StartChar: odieresis
Encoding: 246 246 134
Width: 642
GlyphClass: 2
Flags: W
LayerCount: 2
Fore
SplineSet
285 630 m 2,0,1
 352 630 352 630 409 611 c 128,-1,2
 466 592 466 592 507.5 554.5 c 128,-1,3
 549 517 549 517 572.5 460.5 c 128,-1,4
 596 404 596 404 596 329 c 0,5,6
 596 238 596 238 568 175 c 128,-1,7
 540 112 540 112 492.5 73 c 128,-1,8
 445 34 445 34 382.5 17 c 128,-1,9
 320 0 320 0 250 0 c 2,10,-1
 80 0 l 1,11,-1
 80 630 l 1,12,-1
 285 630 l 2,0,1
172 76 m 1,13,-1
 241 76 l 2,14,15
 289 76 289 76 335 86.5 c 128,-1,16
 381 97 381 97 416.5 125.5 c 128,-1,17
 452 154 452 154 474 203 c 128,-1,18
 496 252 496 252 496 329 c 0,19,20
 496 383 496 383 480 425 c 128,-1,21
 464 467 464 467 434 495.5 c 128,-1,22
 404 524 404 524 361.5 539 c 128,-1,23
 319 554 319 554 267 554 c 2,24,-1
 172 554 l 1,25,-1
 172 76 l 1,13,-1
EndSplineSet
EndChar

StartChar: oslash
Encoding: 248 248 135
Width: 485
GlyphClass: 2
Flags: W
LayerCount: 2
Fore
SplineSet
450 630 m 1,0,-1
 450 554 l 1,1,-1
 172 554 l 1,2,-1
 172 350 l 1,3,-1
 428 350 l 1,4,-1
 428 275 l 1,5,-1
 172 275 l 1,6,-1
 172 0 l 1,7,-1
 80 0 l 1,8,-1
 80 630 l 1,9,-1
 450 630 l 1,0,-1
EndSplineSet
EndChar

StartChar: ugrave
Encoding: 249 249 136
Width: 618
GlyphClass: 2
Flags: W
LayerCount: 2
Fore
SplineSet
355 639 m 0,0,1
 410 639 410 639 454.5 631 c 128,-1,2
 499 623 499 623 537 603 c 1,3,-1
 515 531 l 1,4,5
 478 548 478 548 442.5 556 c 128,-1,6
 407 564 407 564 366 564 c 0,7,8
 322 564 322 564 282 551 c 128,-1,9
 242 538 242 538 211.5 508.5 c 128,-1,10
 181 479 181 479 163 431.5 c 128,-1,11
 145 384 145 384 145 314 c 0,12,13
 145 193 145 193 200 130 c 128,-1,14
 255 67 255 67 355 67 c 0,15,16
 393 67 393 67 420.5 71 c 128,-1,17
 448 75 448 75 474 85 c 1,18,-1
 474 260 l 1,19,-1
 355 260 l 1,20,-1
 355 332 l 1,21,-1
 560 332 l 1,22,-1
 560 28 l 1,23,24
 520 12 520 12 471 1.5 c 128,-1,25
 422 -9 422 -9 355 -9 c 0,26,27
 290 -9 290 -9 233.5 12 c 128,-1,28
 177 33 177 33 135 74 c 128,-1,29
 93 115 93 115 69 175 c 128,-1,30
 45 235 45 235 45 314 c 256,31,32
 45 393 45 393 68.5 454 c 128,-1,33
 92 515 92 515 133 556 c 128,-1,34
 174 597 174 597 231 618 c 128,-1,35
 288 639 288 639 355 639 c 0,0,1
EndSplineSet
EndChar

StartChar: uacute
Encoding: 250 250 137
Width: 642
GlyphClass: 2
Flags: W
LayerCount: 2
Fore
SplineSet
80 0 m 1,0,-1
 80 630 l 1,1,-1
 172 630 l 1,2,-1
 172 365 l 1,3,-1
 471 365 l 1,4,-1
 471 630 l 1,5,-1
 563 630 l 1,6,-1
 563 0 l 1,7,-1
 471 0 l 1,8,-1
 471 287 l 1,9,-1
 172 287 l 1,10,-1
 172 0 l 1,11,-1
 80 0 l 1,0,-1
EndSplineSet
EndChar

StartChar: ucircumflex
Encoding: 251 251 138
Width: 251
GlyphClass: 2
Flags: W
LayerCount: 2
Fore
SplineSet
172 630 m 1,0,-1
 172 0 l 1,1,-1
 80 0 l 1,2,-1
 80 630 l 1,3,-1
 172 630 l 1,0,-1
EndSplineSet
EndChar

StartChar: udieresis
Encoding: 252 252 139
Width: 269
GlyphClass: 2
Flags: W
LayerCount: 2
Fore
SplineSet
197 630 m 1,0,-1
 197 115 l 2,1,2
 197 45 197 45 190.5 0 c 128,-1,3
 184 -45 184 -45 159 -79 c 0,4,5
 129 -121 129 -121 81 -137.5 c 128,-1,6
 33 -154 33 -154 -15 -155 c 1,7,-1
 -15 -80 l 1,8,9
 44 -79 44 -79 76 -43 c 0,10,11
 94 -23 94 -23 99.5 6 c 128,-1,12
 105 35 105 35 105 67 c 2,13,-1
 105 630 l 1,14,-1
 197 630 l 1,0,-1
EndSplineSet
EndChar

StartChar: yacute
Encoding: 253 253 140
Width: 576
GlyphClass: 2
Flags: W
LayerCount: 2
Fore
SplineSet
80 0 m 1,0,-1
 80 630 l 1,1,-1
 172 630 l 1,2,-1
 172 345 l 1,3,-1
 437 630 l 1,4,-1
 551 630 l 1,5,-1
 291 351 l 1,6,-1
 571 0 l 1,7,-1
 455 0 l 1,8,-1
 225 288 l 1,9,-1
 172 231 l 1,10,-1
 172 0 l 1,11,-1
 80 0 l 1,0,-1
EndSplineSet
EndChar

StartChar: thorn
Encoding: 254 254 141
Width: 456
GlyphClass: 2
Flags: W
LayerCount: 2
Fore
SplineSet
80 630 m 1,0,-1
 172 630 l 1,1,-1
 172 78 l 1,2,-1
 441 78 l 1,3,-1
 441 0 l 1,4,-1
 80 0 l 1,5,-1
 80 630 l 1,0,-1
EndSplineSet
EndChar

StartChar: ydieresis
Encoding: 255 255 142
Width: 811
GlyphClass: 2
Flags: W
LayerCount: 2
Fore
SplineSet
117 630 m 1,0,-1
 237 630 l 1,1,-1
 369 228 l 2,2,3
 379 199 379 199 388 171.5 c 128,-1,4
 397 144 397 144 405 116 c 1,5,-1
 407 116 l 1,6,7
 415 144 415 144 423.5 170 c 128,-1,8
 432 196 432 196 443 228 c 2,9,-1
 572 630 l 1,10,-1
 692 630 l 1,11,-1
 747 0 l 1,12,-1
 655 0 l 1,13,-1
 629 334 l 2,14,15
 625 383 625 383 623 431.5 c 128,-1,16
 621 480 621 480 619 530 c 1,17,-1
 617 530 l 1,18,19
 603 481 603 481 588.5 432 c 128,-1,20
 574 383 574 383 558 334 c 2,21,-1
 447 0 l 1,22,-1
 363 0 l 1,23,-1
 252 335 l 2,24,25
 235 386 235 386 221 432.5 c 128,-1,26
 207 479 207 479 193 530 c 1,27,-1
 191 530 l 1,28,29
 189 481 189 481 185.5 432 c 128,-1,30
 182 383 182 383 178 334 c 2,31,-1
 154 0 l 1,32,-1
 64 0 l 1,33,-1
 117 630 l 1,0,-1
EndSplineSet
EndChar

StartChar: Abreve
Encoding: 258 258 143
Width: 523
GlyphClass: 2
Flags: W
LayerCount: 2
Fore
SplineSet
80 630 m 1,0,-1
 278 630 l 2,1,2
 327 630 327 630 367 617.5 c 128,-1,3
 407 605 407 605 436 580.5 c 128,-1,4
 465 556 465 556 481 520.5 c 128,-1,5
 497 485 497 485 497 439 c 0,6,7
 497 389 497 389 480 352.5 c 128,-1,8
 463 316 463 316 432 292 c 128,-1,9
 401 268 401 268 359 256 c 128,-1,10
 317 244 317 244 266 244 c 2,11,-1
 172 244 l 1,12,-1
 172 0 l 1,13,-1
 80 0 l 1,14,-1
 80 630 l 1,0,-1
172 319 m 1,15,-1
 229 319 l 2,16,17
 266 319 266 319 298 324 c 128,-1,18
 330 329 330 329 352.5 342 c 128,-1,19
 375 355 375 355 388 378.5 c 128,-1,20
 401 402 401 402 401 438 c 0,21,22
 401 471 401 471 388.5 493.5 c 128,-1,23
 376 516 376 516 356 530 c 128,-1,24
 336 544 336 544 310 550 c 128,-1,25
 284 556 284 556 257 556 c 2,26,-1
 172 556 l 1,27,-1
 172 319 l 1,15,-1
EndSplineSet
EndChar

StartChar: Amacron
Encoding: 256 256 144
Width: 672
GlyphClass: 2
Flags: W
LayerCount: 2
Fore
SplineSet
80 630 m 1,0,-1
 160 630 l 1,1,-1
 447 231 l 2,2,3
 463 209 463 209 478 186 c 128,-1,4
 493 163 493 163 505 141 c 1,5,-1
 507 141 l 1,6,7
 505 176 505 176 504 211 c 128,-1,8
 503 246 503 246 503 281 c 2,9,-1
 503 630 l 1,10,-1
 593 630 l 1,11,-1
 593 0 l 1,12,-1
 513 0 l 1,13,-1
 229 394 l 2,14,15
 214 415 214 415 198 441.5 c 128,-1,16
 182 468 182 468 168 494 c 1,17,-1
 166 494 l 1,18,19
 168 452 168 452 169 410 c 128,-1,20
 170 368 170 368 170 326 c 2,21,-1
 170 0 l 1,22,-1
 80 0 l 1,23,-1
 80 630 l 1,0,-1
EndSplineSet
EndChar

StartChar: Aogonek
Encoding: 260 260 145
Width: 537
GlyphClass: 2
Flags: W
LayerCount: 2
Fore
SplineSet
80 630 m 1,0,-1
 285 630 l 2,1,2
 334 630 334 630 371.5 616 c 128,-1,3
 409 602 409 602 434 577 c 128,-1,4
 459 552 459 552 472 517.5 c 128,-1,5
 485 483 485 483 485 442 c 0,6,7
 485 406 485 406 474 377 c 128,-1,8
 463 348 463 348 445 326.5 c 128,-1,9
 427 305 427 305 403.5 289.5 c 128,-1,10
 380 274 380 274 356 264 c 1,11,-1
 522 0 l 1,12,-1
 419 0 l 1,13,-1
 270 247 l 1,14,-1
 167 247 l 1,15,-1
 167 0 l 1,16,-1
 80 0 l 1,17,-1
 80 630 l 1,0,-1
167 322 m 1,18,-1
 243 322 l 2,19,20
 274 322 274 322 300.5 328.5 c 128,-1,21
 327 335 327 335 346.5 348.5 c 128,-1,22
 366 362 366 362 377.5 384 c 128,-1,23
 389 406 389 406 389 437 c 0,24,25
 389 498 389 498 355.5 527 c 128,-1,26
 322 556 322 556 258 556 c 2,27,-1
 167 556 l 1,28,-1
 167 322 l 1,18,-1
EndSplineSet
EndChar

StartChar: Cacute
Encoding: 262 262 146
Width: 501
GlyphClass: 2
Flags: W
LayerCount: 2
Fore
SplineSet
492 630 m 1,0,-1
 492 552 l 1,1,-1
 295 552 l 1,2,-1
 295 0 l 1,3,-1
 203 0 l 1,4,-1
 203 552 l 1,5,-1
 10 552 l 1,6,-1
 10 630 l 1,7,-1
 492 630 l 1,0,-1
EndSplineSet
EndChar

StartChar: Ccaron
Encoding: 268 268 147
Width: 511
GlyphClass: 2
Flags: W
LayerCount: 2
Fore
SplineSet
481 630 m 1,0,-1
 481 575 l 1,1,-1
 135 74 l 1,2,-1
 486 74 l 1,3,-1
 486 0 l 1,4,-1
 26 0 l 1,5,-1
 26 65 l 1,6,-1
 366 556 l 1,7,-1
 41 556 l 1,8,-1
 41 630 l 1,9,-1
 481 630 l 1,0,-1
EndSplineSet
EndChar

StartChar: Ccircumflex
Encoding: 264 264 148
Width: 574
GlyphClass: 2
Flags: W
LayerCount: 2
Fore
SplineSet
94 630 m 1,0,-1
 225 274 l 2,1,2
 239 237 239 237 255.5 192.5 c 128,-1,3
 272 148 272 148 286 110 c 1,4,-1
 288 110 l 1,5,-1
 348 274 l 1,6,-1
 481 630 l 1,7,-1
 577 630 l 1,8,-1
 329 0 l 1,9,-1
 240 0 l 1,10,-1
 -3 630 l 1,11,-1
 94 630 l 1,0,-1
EndSplineSet
EndChar

StartChar: Cdotaccent
Encoding: 266 266 149
Width: 545
GlyphClass: 2
Flags: W
LayerCount: 2
Fore
SplineSet
120 630 m 1,0,-1
 271 384 l 1,1,-1
 429 630 l 1,2,-1
 530 630 l 1,3,-1
 323 320 l 1,4,-1
 540 0 l 1,5,-1
 434 0 l 1,6,-1
 271 256 l 1,7,-1
 107 0 l 1,8,-1
 6 0 l 1,9,-1
 216 320 l 1,10,-1
 15 630 l 1,11,-1
 120 630 l 1,0,-1
EndSplineSet
EndChar

StartChar: Dcaron
Encoding: 270 270 150
Width: 331
GlyphClass: 2
Flags: W
LayerCount: 2
Fore
SplineSet
256 -88 m 1,0,-1
 0 720 l 1,1,-1
 75 720 l 1,2,-1
 331 -88 l 1,3,-1
 256 -88 l 1,0,-1
EndSplineSet
EndChar

StartChar: Dcroat
Encoding: 272 272 151
Width: 516
GlyphClass: 2
Flags: W
LayerCount: 2
Fore
SplineSet
456 416 m 1,0,-1
 380 416 l 1,1,-1
 258 659 l 1,2,-1
 138 416 l 1,3,-1
 61 416 l 1,4,-1
 228 720 l 1,5,-1
 287 720 l 1,6,-1
 456 416 l 1,0,-1
EndSplineSet
EndChar

StartChar: Ebreve
Encoding: 276 276 152
Width: 540
GlyphClass: 2
Flags: W
LayerCount: 2
Fore
SplineSet
502 235 m 0,0,1
 502 179 502 179 485 134 c 128,-1,2
 468 89 468 89 439 57 c 128,-1,3
 410 25 410 25 371 8 c 128,-1,4
 332 -9 332 -9 288 -9 c 0,5,6
 242 -9 242 -9 207.5 4 c 128,-1,7
 173 17 173 17 143 44 c 1,8,-1
 141 44 l 1,9,-1
 132 0 l 1,10,-1
 69 0 l 1,11,-1
 69 710 l 1,12,-1
 156 710 l 1,13,-1
 156 411 l 1,14,15
 188 445 188 445 226.5 461 c 128,-1,16
 265 477 265 477 307 477 c 0,17,18
 397 477 397 477 449.5 413 c 128,-1,19
 502 349 502 349 502 235 c 0,0,1
410 234 m 0,20,21
 410 312 410 312 377 358.5 c 128,-1,22
 344 405 344 405 284 405 c 0,23,24
 246 405 246 405 215 388 c 128,-1,25
 184 371 184 371 156 340 c 1,26,-1
 156 112 l 1,27,28
 177 88 177 88 203.5 73.5 c 128,-1,29
 230 59 230 59 265 59 c 0,30,31
 293 59 293 59 319.5 69 c 128,-1,32
 346 79 346 79 366 100.5 c 128,-1,33
 386 122 386 122 398 155 c 128,-1,34
 410 188 410 188 410 234 c 0,20,21
EndSplineSet
EndChar

StartChar: Ecaron
Encoding: 282 282 153
Width: 540
GlyphClass: 2
Flags: W
LayerCount: 2
Fore
SplineSet
157 0 m 1,0,-1
 69 0 l 1,1,-1
 69 710 l 1,2,-1
 157 710 l 1,3,-1
 157 410 l 1,4,5
 190 439 190 439 230 458 c 128,-1,6
 270 477 270 477 318 477 c 0,7,8
 357 477 357 477 386 465.5 c 128,-1,9
 415 454 415 454 433.5 433.5 c 128,-1,10
 452 413 452 413 461.5 385 c 128,-1,11
 471 357 471 357 471 324 c 2,12,-1
 471 0 l 1,13,-1
 383 0 l 1,14,-1
 383 302 l 2,15,16
 383 356 383 356 361 380.5 c 128,-1,17
 339 405 339 405 294 405 c 0,18,19
 260 405 260 405 225.5 388 c 128,-1,20
 191 371 191 371 157 340 c 1,21,-1
 157 0 l 1,0,-1
EndSplineSet
EndChar

StartChar: Edotaccent
Encoding: 278 278 154
Width: 536
GlyphClass: 2
Flags: W
LayerCount: 2
Fore
SplineSet
380 710 m 1,0,-1
 468 710 l 1,1,-1
 468 0 l 1,2,-1
 394 0 l 1,3,-1
 383 52 l 1,4,-1
 380 52 l 1,5,6
 349 20 349 20 317.5 5.5 c 128,-1,7
 286 -9 286 -9 238 -9 c 0,8,9
 200 -9 200 -9 164.5 6 c 128,-1,10
 129 21 129 21 101 51 c 128,-1,11
 73 81 73 81 56 126.5 c 128,-1,12
 39 172 39 172 39 234 c 0,13,14
 39 289 39 289 53.5 334 c 128,-1,15
 68 379 68 379 95 411 c 128,-1,16
 122 443 122 443 161 460 c 128,-1,17
 200 477 200 477 250 477 c 0,18,19
 287 477 287 477 320.5 465.5 c 128,-1,20
 354 454 354 454 380 431 c 1,21,-1
 380 710 l 1,0,-1
380 357 m 1,22,23
 333 410 333 410 269 410 c 0,24,25
 242 410 242 410 216.5 400.5 c 128,-1,26
 191 391 191 391 171.5 370 c 128,-1,27
 152 349 152 349 140 316 c 128,-1,28
 128 283 128 283 128 237 c 0,29,30
 128 189 128 189 139 155.5 c 128,-1,31
 150 122 150 122 168.5 100.5 c 128,-1,32
 187 79 187 79 210.5 69 c 128,-1,33
 234 59 234 59 258 59 c 0,34,35
 333 59 333 59 380 124 c 1,36,-1
 380 357 l 1,22,23
EndSplineSet
EndChar

StartChar: Emacron
Encoding: 274 274 155
Width: 210
GlyphClass: 2
Flags: W
LayerCount: 2
Fore
SplineSet
22 720 m 1,0,-1
 110 720 l 1,1,-1
 190 555 l 1,2,-1
 128 555 l 1,3,-1
 22 720 l 1,0,-1
EndSplineSet
EndChar

StartChar: Eogonek
Encoding: 280 280 156
Width: 332
GlyphClass: 2
Flags: W
LayerCount: 2
Fore
SplineSet
245 715 m 0,0,1
 273 715 273 715 303.5 707 c 128,-1,2
 334 699 334 699 358 687 c 1,3,-1
 340 626 l 1,4,5
 320 634 320 634 302 638.5 c 128,-1,6
 284 643 284 643 264 643 c 0,7,8
 216 643 216 643 195.5 616 c 128,-1,9
 175 589 175 589 175 524 c 2,10,-1
 175 470 l 1,11,-1
 318 470 l 1,12,-1
 318 404 l 1,13,-1
 175 404 l 1,14,-1
 175 0 l 1,15,-1
 88 0 l 1,16,-1
 88 404 l 1,17,-1
 19 404 l 1,18,-1
 19 470 l 1,19,-1
 88 470 l 1,20,-1
 88 553 l 2,21,22
 88 631 88 631 128.5 673 c 128,-1,23
 169 715 169 715 245 715 c 0,0,1
EndSplineSet
EndChar

StartChar: Gbreve
Encoding: 286 286 157
Width: 230
GlyphClass: 2
Flags: W
LayerCount: 2
Fore
SplineSet
72 0 m 1,0,-1
 72 710 l 1,1,-1
 158 710 l 1,2,-1
 158 0 l 1,3,-1
 72 0 l 1,0,-1
EndSplineSet
EndChar

StartChar: Gcircumflex
Encoding: 284 284 158
Width: 246
GlyphClass: 2
Flags: W
LayerCount: 2
Fore
SplineSet
79 470 m 1,0,-1
 167 470 l 1,1,-1
 167 71 l 2,2,3
 167 14 167 14 160.5 -33.5 c 128,-1,4
 154 -81 154 -81 136 -119.5 c 128,-1,5
 118 -158 118 -158 86 -188 c 128,-1,6
 54 -218 54 -218 4 -240 c 1,7,-1
 -37 -174 l 1,8,9
 -6 -158 -6 -158 16.5 -141 c 128,-1,10
 39 -124 39 -124 52.5 -98.5 c 128,-1,11
 66 -73 66 -73 72.5 -35.5 c 128,-1,12
 79 2 79 2 79 60 c 2,13,-1
 79 470 l 1,0,-1
122 591 m 0,14,15
 99 591 99 591 82.5 606.5 c 128,-1,16
 66 622 66 622 66 645 c 256,17,18
 66 668 66 668 82.5 684 c 128,-1,19
 99 700 99 700 122 700 c 0,20,21
 144 700 144 700 161 684 c 128,-1,22
 178 668 178 668 178 645 c 256,23,24
 178 622 178 622 161 606.5 c 128,-1,25
 144 591 144 591 122 591 c 0,14,15
EndSplineSet
EndChar

StartChar: Gcommaaccent
Encoding: 290 290 159
Width: 531
GlyphClass: 2
Flags: W
LayerCount: 2
Fore
SplineSet
263 -9 m 0,0,1
 231 -9 231 -9 201.5 0 c 128,-1,2
 172 9 172 9 151 24 c 1,3,-1
 151 -230 l 1,4,-1
 64 -230 l 1,5,-1
 64 477 l 1,6,-1
 137 477 l 1,7,-1
 150 416 l 1,8,9
 177 441 177 441 211 459 c 128,-1,10
 245 477 245 477 291 477 c 0,11,12
 385 477 385 477 439 417 c 128,-1,13
 493 357 493 357 493 245 c 0,14,15
 493 179 493 179 473.5 131 c 128,-1,16
 454 83 454 83 421.5 52 c 128,-1,17
 389 21 389 21 347.5 6 c 128,-1,18
 306 -9 306 -9 263 -9 c 0,0,1
272 405 m 0,19,20
 230 405 230 405 199 384.5 c 128,-1,21
 168 364 168 364 151 343 c 1,22,-1
 151 92 l 1,23,24
 174 75 174 75 200 67 c 128,-1,25
 226 59 226 59 252 59 c 0,26,27
 279 59 279 59 306 68.5 c 128,-1,28
 333 78 333 78 354 100 c 128,-1,29
 375 122 375 122 388 157 c 128,-1,30
 401 192 401 192 401 243 c 0,31,32
 401 318 401 318 369.5 361.5 c 128,-1,33
 338 405 338 405 272 405 c 0,19,20
EndSplineSet
EndChar

StartChar: Gdotaccent
Encoding: 288 288 160
Width: 534
GlyphClass: 2
Flags: W
LayerCount: 2
Fore
SplineSet
156 0 m 1,0,-1
 68 0 l 1,1,-1
 68 470 l 1,2,-1
 137 470 l 1,3,-1
 150 405 l 1,4,5
 185 440 185 440 223.5 458.5 c 128,-1,6
 262 477 262 477 312 477 c 0,7,8
 384 477 384 477 425 436.5 c 128,-1,9
 466 396 466 396 466 324 c 2,10,-1
 466 0 l 1,11,-1
 378 0 l 1,12,-1
 378 311 l 2,13,14
 378 354 378 354 355.5 379.5 c 128,-1,15
 333 405 333 405 287 405 c 0,16,17
 217 405 217 405 156 342 c 1,18,-1
 156 0 l 1,0,-1
EndSplineSet
EndChar

StartChar: Hbar
Encoding: 294 294 161
Width: 364
GlyphClass: 2
Flags: W
LayerCount: 2
Fore
SplineSet
315 404 m 1,0,-1
 177 404 l 1,1,-1
 177 131 l 2,2,3
 177 96 177 96 194.5 84 c 128,-1,4
 212 72 212 72 240 72 c 0,5,6
 260 72 260 72 284 76.5 c 128,-1,7
 308 81 308 81 326 87 c 1,8,-1
 340 20 l 1,9,10
 320 12 320 12 289 6 c 128,-1,11
 258 0 258 0 224 0 c 0,12,13
 154 0 154 0 122 30.5 c 128,-1,14
 90 61 90 61 90 119 c 2,15,-1
 90 404 l 1,16,-1
 20 404 l 1,17,-1
 20 470 l 1,18,-1
 90 470 l 1,19,-1
 90 620 l 1,20,-1
 177 620 l 1,21,-1
 177 470 l 1,22,-1
 315 470 l 1,23,-1
 315 404 l 1,0,-1
EndSplineSet
EndChar

StartChar: Hcircumflex
Encoding: 292 292 162
Width: 372
GlyphClass: 2
Flags: W
LayerCount: 2
Fore
SplineSet
66 0 m 1,0,-1
 66 470 l 1,1,-1
 132 470 l 1,2,-1
 147 376 l 1,3,4
 164 421 164 421 203 449 c 128,-1,5
 242 477 242 477 293 477 c 0,6,7
 319 477 319 477 336 473 c 128,-1,8
 353 469 353 469 367 463 c 1,9,-1
 350 386 l 1,10,11
 338 392 338 392 323.5 396 c 128,-1,12
 309 400 309 400 289 400 c 0,13,14
 260 400 260 400 235.5 390 c 128,-1,15
 211 380 211 380 192.5 360 c 128,-1,16
 174 340 174 340 163.5 310.5 c 128,-1,17
 153 281 153 281 153 243 c 2,18,-1
 153 0 l 1,19,-1
 66 0 l 1,0,-1
EndSplineSet
EndChar

StartChar: Ibreve
Encoding: 300 300 163
Width: 411
GlyphClass: 2
Flags: W
LayerCount: 2
Fore
SplineSet
382 419 m 1,0,-1
 133 66 l 1,1,-1
 387 66 l 1,2,-1
 387 0 l 1,3,-1
 25 0 l 1,4,-1
 25 54 l 1,5,-1
 274 404 l 1,6,-1
 42 404 l 1,7,-1
 42 470 l 1,8,-1
 382 470 l 1,9,-1
 382 419 l 1,0,-1
EndSplineSet
EndChar

StartChar: Imacron
Encoding: 298 298 164
Width: 448
GlyphClass: 2
Flags: W
LayerCount: 2
Fore
SplineSet
274 238 m 1,0,-1
 439 0 l 1,1,-1
 339 0 l 1,2,-1
 258 118 l 1,3,-1
 221 179 l 1,4,-1
 187 119 l 1,5,-1
 109 0 l 1,6,-1
 11 0 l 1,7,-1
 174 238 l 1,8,-1
 19 470 l 1,9,-1
 118 470 l 1,10,-1
 192 355 l 1,11,-1
 228 295 l 1,12,-1
 263 355 l 1,13,-1
 332 470 l 1,14,-1
 428 470 l 1,15,-1
 274 238 l 1,0,-1
EndSplineSet
EndChar

StartChar: Itilde
Encoding: 296 296 165
Width: 463
GlyphClass: 2
Flags: W
LayerCount: 2
Fore
SplineSet
357 470 m 1,0,-1
 451 470 l 1,1,-1
 276 0 l 1,2,-1
 190 0 l 1,3,-1
 13 470 l 1,4,-1
 108 470 l 1,5,-1
 214 147 l 1,6,-1
 232 73 l 1,7,-1
 236 73 l 1,8,-1
 253 146 l 1,9,-1
 357 470 l 1,0,-1
EndSplineSet
EndChar

StartChar: Ncaron
Encoding: 327 327 166
Width: 535
GlyphClass: 2
Flags: W
LayerCount: 2
Fore
SplineSet
243 470 m 2,0,1
 291 470 291 470 335.5 458 c 128,-1,2
 380 446 380 446 414.5 419 c 128,-1,3
 449 392 449 392 469.5 349.5 c 128,-1,4
 490 307 490 307 490 246 c 0,5,6
 490 182 490 182 470.5 135.5 c 128,-1,7
 451 89 451 89 417 59 c 128,-1,8
 383 29 383 29 336.5 14.5 c 128,-1,9
 290 0 290 0 237 0 c 2,10,-1
 80 0 l 1,11,-1
 80 470 l 1,12,-1
 243 470 l 2,0,1
168 69 m 1,13,-1
 217 69 l 2,14,15
 245 69 245 69 277.5 75 c 128,-1,16
 310 81 310 81 337 99.5 c 128,-1,17
 364 118 364 118 382 152 c 128,-1,18
 400 186 400 186 400 243 c 0,19,20
 400 323 400 323 353.5 362 c 128,-1,21
 307 401 307 401 217 401 c 2,22,-1
 168 401 l 1,23,-1
 168 69 l 1,13,-1
EndSplineSet
EndChar

StartChar: Ncommaaccent
Encoding: 325 325 167
Width: 468
GlyphClass: 2
Flags: W
LayerCount: 2
Fore
SplineSet
253 470 m 2,0,1
 331 470 331 470 369.5 438 c 128,-1,2
 408 406 408 406 408 354 c 0,3,4
 408 316 408 316 385 290.5 c 128,-1,5
 362 265 362 265 326 253 c 1,6,7
 376 241 376 241 402.5 211.5 c 128,-1,8
 429 182 429 182 429 134 c 0,9,10
 429 106 429 106 418 81.5 c 128,-1,11
 407 57 407 57 384.5 39 c 128,-1,12
 362 21 362 21 329 10.5 c 128,-1,13
 296 0 296 0 252 0 c 2,14,-1
 80 0 l 1,15,-1
 80 470 l 1,16,-1
 253 470 l 2,0,1
155 278 m 1,17,-1
 234 278 l 2,18,19
 269 278 269 278 293.5 292.5 c 128,-1,20
 318 307 318 307 318 342 c 0,21,22
 318 370 318 370 298 386 c 128,-1,23
 278 402 278 402 232 402 c 2,24,-1
 155 402 l 1,25,-1
 155 278 l 1,17,-1
155 68 m 1,26,-1
 231 68 l 2,27,28
 281 68 281 68 309 85 c 128,-1,29
 337 102 337 102 337 142 c 0,30,31
 337 155 337 155 332.5 167.5 c 128,-1,32
 328 180 328 180 318.5 190 c 128,-1,33
 309 200 309 200 292.5 206 c 128,-1,34
 276 212 276 212 252 212 c 2,35,-1
 155 212 l 1,36,-1
 155 68 l 1,26,-1
EndSplineSet
EndChar

StartChar: Obreve
Encoding: 334 334 168
Width: 472
GlyphClass: 2
Flags: W
LayerCount: 2
Fore
SplineSet
80 0 m 1,0,-1
 80 470 l 1,1,-1
 168 470 l 1,2,-1
 168 267 l 1,3,-1
 346 470 l 1,4,-1
 450 470 l 1,5,-1
 262 263 l 1,6,-1
 467 0 l 1,7,-1
 361 0 l 1,8,-1
 206 209 l 1,9,-1
 168 166 l 1,10,-1
 168 0 l 1,11,-1
 80 0 l 1,0,-1
EndSplineSet
EndChar

StartChar: Ohungarumlaut
Encoding: 336 336 169
Width: 664
GlyphClass: 2
Flags: W
LayerCount: 2
Fore
SplineSet
100 470 m 1,0,-1
 208 470 l 1,1,-1
 307 171 l 1,2,-1
 334 83 l 1,3,-1
 335 83 l 1,4,5
 341 104 341 104 347.5 125.5 c 128,-1,6
 354 147 354 147 362 171 c 2,7,-1
 459 470 l 1,8,-1
 567 470 l 1,9,-1
 608 0 l 1,10,-1
 521 0 l 1,11,-1
 502 250 l 2,12,13
 500 277 500 277 498 312 c 128,-1,14
 496 347 496 347 495 385 c 1,15,-1
 493 385 l 1,16,17
 490 367 490 367 485 347 c 128,-1,18
 480 327 480 327 475.5 309 c 128,-1,19
 471 291 471 291 466 275.5 c 128,-1,20
 461 260 461 260 458 250 c 2,21,-1
 375 0 l 1,22,-1
 292 0 l 1,23,-1
 209 251 l 2,24,25
 198 282 198 282 188 316 c 128,-1,26
 178 350 178 350 171 385 c 1,27,-1
 169 385 l 1,28,29
 169 350 169 350 167 314.5 c 128,-1,30
 165 279 165 279 163 250 c 2,31,-1
 145 0 l 1,32,-1
 60 0 l 1,33,-1
 100 470 l 1,0,-1
EndSplineSet
EndChar

StartChar: Omacron
Encoding: 332 332 170
Width: 247
GlyphClass: 2
Flags: W
LayerCount: 2
Fore
SplineSet
168 470 m 1,0,-1
 168 0 l 1,1,-1
 80 0 l 1,2,-1
 80 470 l 1,3,-1
 168 470 l 1,0,-1
EndSplineSet
EndChar

StartChar: Racute
Encoding: 340 340 171
Width: 536
GlyphClass: 2
Flags: W
LayerCount: 2
Fore
SplineSet
323 -6 m 1,0,1
 339 -9 339 -9 353.5 -15.5 c 128,-1,2
 368 -22 368 -22 383 -29.5 c 128,-1,3
 398 -37 398 -37 415 -42.5 c 128,-1,4
 432 -48 432 -48 454 -48 c 0,5,6
 480 -48 480 -48 495 -43 c 128,-1,7
 510 -38 510 -38 524 -30 c 1,8,-1
 546 -95 l 1,9,10
 531 -104 531 -104 508 -110.5 c 128,-1,11
 485 -117 485 -117 457 -117 c 0,12,13
 422 -117 422 -117 395 -107.5 c 128,-1,14
 368 -98 368 -98 344 -86 c 128,-1,15
 320 -74 320 -74 296.5 -64.5 c 128,-1,16
 273 -55 273 -55 244 -55 c 0,17,18
 210 -55 210 -55 186 -64.5 c 128,-1,19
 162 -74 162 -74 139 -89 c 1,20,-1
 107 -29 l 1,21,22
 125 -15 125 -15 147.5 -6.5 c 128,-1,23
 170 2 170 2 190 6 c 1,24,-1
 190 9 l 1,25,26
 161 17 161 17 135 37 c 128,-1,27
 109 57 109 57 89 86 c 128,-1,28
 69 115 69 115 57.5 152.5 c 128,-1,29
 46 190 46 190 46 234 c 0,30,31
 46 292 46 292 64 337.5 c 128,-1,32
 82 383 82 383 113 414 c 128,-1,33
 144 445 144 445 186 461 c 128,-1,34
 228 477 228 477 277 477 c 256,35,36
 326 477 326 477 367.5 461.5 c 128,-1,37
 409 446 409 446 440 415.5 c 128,-1,38
 471 385 471 385 488.5 340.5 c 128,-1,39
 506 296 506 296 506 238 c 0,40,41
 506 185 506 185 491 143 c 128,-1,42
 476 101 476 101 450.5 70.5 c 128,-1,43
 425 40 425 40 392 21.5 c 128,-1,44
 359 3 359 3 323 -4 c 1,45,-1
 323 -6 l 1,0,1
414 233 m 0,46,47
 414 280 414 280 402 313.5 c 128,-1,48
 390 347 390 347 370.5 368 c 128,-1,49
 351 389 351 389 325.5 399 c 128,-1,50
 300 409 300 409 274 409 c 256,51,52
 248 409 248 409 223.5 401 c 128,-1,53
 199 393 199 393 180 373.5 c 128,-1,54
 161 354 161 354 149.5 321.5 c 128,-1,55
 138 289 138 289 138 239 c 0,56,57
 138 192 138 192 149.5 158 c 128,-1,58
 161 124 161 124 180 101.5 c 128,-1,59
 199 79 199 79 224 68 c 128,-1,60
 249 57 249 57 275 57 c 256,61,62
 301 57 301 57 326 65.5 c 128,-1,63
 351 74 351 74 370.5 94.5 c 128,-1,64
 390 115 390 115 402 148.5 c 128,-1,65
 414 182 414 182 414 233 c 0,46,47
EndSplineSet
EndChar

StartChar: Rcaron
Encoding: 344 344 172
Width: 549
GlyphClass: 2
Flags: W
LayerCount: 2
Fore
SplineSet
70 470 m 1,0,-1
 158 470 l 1,1,-1
 158 225 l 2,2,3
 158 174 158 174 167 142 c 128,-1,4
 176 110 176 110 192 92 c 128,-1,5
 208 74 208 74 230.5 67 c 128,-1,6
 253 60 253 60 280 60 c 0,7,8
 333 60 333 60 362 95.5 c 128,-1,9
 391 131 391 131 391 215 c 2,10,-1
 391 470 l 1,11,-1
 479 470 l 1,12,-1
 479 222 l 2,13,14
 479 105 479 105 428.5 48 c 128,-1,15
 378 -9 378 -9 278 -9 c 0,16,17
 175 -9 175 -9 122.5 47 c 128,-1,18
 70 103 70 103 70 221 c 2,19,-1
 70 470 l 1,0,-1
EndSplineSet
EndChar

StartChar: Rcommaaccent
Encoding: 342 342 173
Width: 424
GlyphClass: 2
Flags: W
LayerCount: 2
Fore
SplineSet
339 382 m 1,0,1
 306 398 306 398 279 404 c 128,-1,2
 252 410 252 410 225 410 c 0,3,4
 177 410 177 410 154 392.5 c 128,-1,5
 131 375 131 375 131 346 c 0,6,7
 131 322 131 322 147 308 c 128,-1,8
 163 294 163 294 214 279 c 2,9,-1
 244 270 l 2,10,11
 311 250 311 250 345.5 218.5 c 128,-1,12
 380 187 380 187 380 133 c 0,13,14
 380 69 380 69 332.5 30 c 128,-1,15
 285 -9 285 -9 200 -9 c 0,16,17
 155 -9 155 -9 113.5 -1 c 128,-1,18
 72 7 72 7 42 21 c 1,19,-1
 63 90 l 1,20,21
 92 76 92 76 126 67.5 c 128,-1,22
 160 59 160 59 195 59 c 0,23,24
 240 59 240 59 266.5 75 c 128,-1,25
 293 91 293 91 293 128 c 0,26,27
 293 160 293 160 270 173.5 c 128,-1,28
 247 187 247 187 204 200 c 2,29,-1
 173 210 l 2,30,31
 108 231 108 231 76.5 261 c 128,-1,32
 45 291 45 291 45 344 c 0,33,34
 45 374 45 374 58 399 c 128,-1,35
 71 424 71 424 93.5 441 c 128,-1,36
 116 458 116 458 147 467.5 c 128,-1,37
 178 477 178 477 215 477 c 0,38,39
 250 477 250 477 287.5 470.5 c 128,-1,40
 325 464 325 464 359 449 c 1,41,-1
 339 382 l 1,0,1
EndSplineSet
EndChar

StartChar: Sacute
Encoding: 346 346 174
Width: 668
GlyphClass: 2
Flags: W
LayerCount: 2
Fore
SplineSet
98 470 m 1,0,-1
 174 209 l 2,1,2
 177 200 177 200 180 187 c 128,-1,3
 183 174 183 174 186.5 159.5 c 128,-1,4
 190 145 190 145 193.5 130 c 128,-1,5
 197 115 197 115 199 102 c 1,6,-1
 201 102 l 1,7,8
 206 127 206 127 211.5 154.5 c 128,-1,9
 217 182 217 182 225 208 c 2,10,-1
 304 470 l 1,11,-1
 365 470 l 1,12,-1
 447 207 l 2,13,14
 450 199 450 199 453.5 186.5 c 128,-1,15
 457 174 457 174 460.5 159.5 c 128,-1,16
 464 145 464 145 467.5 130 c 128,-1,17
 471 115 471 115 473 102 c 1,18,-1
 475 102 l 1,19,20
 479 129 479 129 485.5 160 c 128,-1,21
 492 191 492 191 497 211 c 2,22,-1
 570 470 l 1,23,-1
 660 470 l 1,24,-1
 521 0 l 1,25,-1
 432 0 l 1,26,-1
 360 251 l 2,27,28
 357 260 357 260 353.5 274 c 128,-1,29
 350 288 350 288 346 303 c 128,-1,30
 342 318 342 318 339 332.5 c 128,-1,31
 336 347 336 347 334 359 c 1,32,-1
 332 359 l 1,33,34
 330 348 330 348 327.5 333.5 c 128,-1,35
 325 319 325 319 321.5 304 c 128,-1,36
 318 289 318 289 314.5 275 c 128,-1,37
 311 261 311 261 308 251 c 2,38,-1
 239 0 l 1,39,-1
 150 0 l 1,40,-1
 8 470 l 1,41,-1
 98 470 l 1,0,-1
EndSplineSet
EndChar

StartChar: Scircumflex
Encoding: 348 348 175
Width: 401
GlyphClass: 2
Flags: W
LayerCount: 2
Fore
SplineSet
95 470 m 1,0,-1
 200 252 l 1,1,-1
 309 470 l 1,2,-1
 401 470 l 1,3,-1
 239 180 l 1,4,-1
 239 0 l 1,5,-1
 154 0 l 1,6,-1
 154 180 l 1,7,-1
 -2 470 l 1,8,-1
 95 470 l 1,0,-1
EndSplineSet
EndChar

StartChar: Tbar
Encoding: 358 358 176
Width: 510
GlyphClass: 2
Flags: W
LayerCount: 2
Fore
SplineSet
451 630 m 1,0,-1
 451 568 l 1,1,-1
 179 -18 l 1,2,-1
 104 15 l 1,3,-1
 363 557 l 1,4,-1
 59 557 l 1,5,-1
 59 630 l 1,6,-1
 451 630 l 1,0,-1
EndSplineSet
EndChar

StartChar: Tcaron
Encoding: 356 356 177
Width: 510
GlyphClass: 2
Flags: W
LayerCount: 2
Fore
SplineSet
425 632 m 1,0,-1
 425 559 l 1,1,-1
 192 557 l 1,2,-1
 173 391 l 1,3,4
 185 393 185 393 200 394.5 c 128,-1,5
 215 396 215 396 232 396 c 0,6,7
 269 396 269 396 307.5 386 c 128,-1,8
 346 376 346 376 377 353.5 c 128,-1,9
 408 331 408 331 428 294.5 c 128,-1,10
 448 258 448 258 448 205 c 0,11,12
 448 160 448 160 432 121 c 128,-1,13
 416 82 416 82 384.5 53 c 128,-1,14
 353 24 353 24 306.5 7.5 c 128,-1,15
 260 -9 260 -9 199 -9 c 0,16,17
 164 -9 164 -9 127 -1 c 128,-1,18
 90 7 90 7 61 21 c 1,19,-1
 81 92 l 1,20,21
 105 80 105 80 135 72 c 128,-1,22
 165 64 165 64 197 64 c 0,23,24
 273 64 273 64 314.5 98.5 c 128,-1,25
 356 133 356 133 356 202 c 0,26,27
 356 235 356 235 344.5 259.5 c 128,-1,28
 333 284 333 284 312.5 300 c 128,-1,29
 292 316 292 316 264 324 c 128,-1,30
 236 332 236 332 203 332 c 0,31,32
 176 332 176 332 148 328.5 c 128,-1,33
 120 325 120 325 91 319 c 1,34,-1
 122 630 l 1,35,-1
 425 632 l 1,0,-1
EndSplineSet
EndChar

StartChar: Tcommaaccent
Encoding: 354 354 178
Width: 510
GlyphClass: 2
Flags: W
LayerCount: 2
Fore
SplineSet
73 592 m 1,0,1
 112 618 112 618 154 628.5 c 128,-1,2
 196 639 196 639 234 639 c 0,3,4
 276 639 276 639 311.5 627 c 128,-1,5
 347 615 347 615 372 593.5 c 128,-1,6
 397 572 397 572 411 542.5 c 128,-1,7
 425 513 425 513 425 478 c 0,8,9
 425 419 425 419 394.5 380 c 128,-1,10
 364 341 364 341 320 325 c 1,11,12
 375 313 375 313 411 272.5 c 128,-1,13
 447 232 447 232 447 175 c 0,14,15
 447 124 447 124 427 89 c 128,-1,16
 407 54 407 54 375 32.5 c 128,-1,17
 343 11 343 11 302.5 1 c 128,-1,18
 262 -9 262 -9 220 -9 c 256,19,20
 178 -9 178 -9 136 -1 c 128,-1,21
 94 7 94 7 62 22 c 1,22,-1
 82 90 l 1,23,24
 99 84 99 84 114 78.5 c 128,-1,25
 129 73 129 73 145 69.5 c 128,-1,26
 161 66 161 66 178.5 64 c 128,-1,27
 196 62 196 62 219 62 c 0,28,29
 244 62 244 62 268.5 68 c 128,-1,30
 293 74 293 74 312 88 c 128,-1,31
 331 102 331 102 343 123.5 c 128,-1,32
 355 145 355 145 355 177 c 0,33,34
 355 205 355 205 344.5 226 c 128,-1,35
 334 247 334 247 315.5 260 c 128,-1,36
 297 273 297 273 272 279.5 c 128,-1,37
 247 286 247 286 217 286 c 2,38,-1
 142 286 l 1,39,-1
 142 354 l 1,40,-1
 200 354 l 2,41,42
 258 354 258 354 296.5 382 c 128,-1,43
 335 410 335 410 335 468 c 0,44,45
 335 489 335 489 326.5 507.5 c 128,-1,46
 318 526 318 526 303.5 539.5 c 128,-1,47
 289 553 289 553 269.5 561 c 128,-1,48
 250 569 250 569 227 569 c 0,49,50
 195 569 195 569 167 561 c 128,-1,51
 139 553 139 553 101 531 c 1,52,-1
 73 592 l 1,0,1
EndSplineSet
EndChar

StartChar: Ubreve
Encoding: 364 364 179
Width: 480
GlyphClass: 2
Flags: W
LayerCount: 2
Fore
SplineSet
70 440 m 1,0,1
 105 461 105 461 140.5 469 c 128,-1,2
 176 477 176 477 218 477 c 0,3,4
 258 477 258 477 290.5 466 c 128,-1,5
 323 455 323 455 345.5 435.5 c 128,-1,6
 368 416 368 416 380 388.5 c 128,-1,7
 392 361 392 361 392 329 c 0,8,9
 392 306 392 306 384 285.5 c 128,-1,10
 376 265 376 265 362 249 c 128,-1,11
 348 233 348 233 329.5 221 c 128,-1,12
 311 209 311 209 290 203 c 1,13,-1
 290 201 l 1,14,15
 342 192 342 192 378 153 c 128,-1,16
 414 114 414 114 414 50 c 0,17,18
 414 3 414 3 395 -36 c 128,-1,19
 376 -75 376 -75 341 -102.5 c 128,-1,20
 306 -130 306 -130 256.5 -145 c 128,-1,21
 207 -160 207 -160 146 -160 c 0,22,23
 132 -160 132 -160 114.5 -159 c 128,-1,24
 97 -158 97 -158 77 -155 c 1,25,-1
 65 -92 l 1,26,27
 82 -94 82 -94 98 -94.5 c 128,-1,28
 114 -95 114 -95 126 -95 c 0,29,30
 227 -95 227 -95 278.5 -55 c 128,-1,31
 330 -15 330 -15 330 52 c 0,32,33
 330 106 330 106 292 134 c 128,-1,34
 254 162 254 162 185 162 c 0,35,36
 176 162 176 162 162 161.5 c 128,-1,37
 148 161 148 161 127 159 c 1,38,-1
 127 230 l 1,39,-1
 151 230 l 2,40,41
 238 230 238 230 274 257.5 c 128,-1,42
 310 285 310 285 310 329 c 0,43,44
 310 367 310 367 281.5 388 c 128,-1,45
 253 409 253 409 213 409 c 0,46,47
 186 409 186 409 158.5 402.5 c 128,-1,48
 131 396 131 396 102 379 c 1,49,-1
 70 440 l 1,0,1
EndSplineSet
EndChar

StartChar: Uhungarumlaut
Encoding: 368 368 180
Width: 480
GlyphClass: 2
Flags: W
LayerCount: 2
Fore
SplineSet
419 470 m 1,0,-1
 419 410 l 1,1,2
 372 336 372 336 331 258.5 c 128,-1,3
 290 181 290 181 256 106.5 c 128,-1,4
 222 32 222 32 196 -35 c 128,-1,5
 170 -102 170 -102 154 -156 c 1,6,-1
 76 -136 l 1,7,8
 94 -80 94 -80 122 -12.5 c 128,-1,9
 150 55 150 55 183 126 c 128,-1,10
 216 197 216 197 252.5 267.5 c 128,-1,11
 289 338 289 338 324 400 c 1,12,-1
 57 400 l 1,13,-1
 57 470 l 1,14,-1
 419 470 l 1,0,-1
EndSplineSet
EndChar

StartChar: Umacron
Encoding: 362 362 181
Width: 480
GlyphClass: 2
Flags: W
LayerCount: 2
Fore
SplineSet
247 470 m 1,0,-1
 288 470 l 1,1,-1
 288 66 l 1,2,-1
 393 66 l 1,3,-1
 393 0 l 1,4,-1
 97 0 l 1,5,-1
 97 66 l 1,6,-1
 206 66 l 1,7,-1
 206 306 l 1,8,-1
 209 382 l 1,9,-1
 105 349 l 1,10,-1
 86 417 l 1,11,-1
 247 470 l 1,0,-1
EndSplineSet
EndChar

StartChar: Uogonek
Encoding: 370 370 182
Width: 480
GlyphClass: 2
Flags: W
LayerCount: 2
Fore
SplineSet
76 -96 m 0,0,1
 139 -96 139 -96 189 -76.5 c 128,-1,2
 239 -57 239 -57 275.5 -25.5 c 128,-1,3
 312 6 312 6 334 46.5 c 128,-1,4
 356 87 356 87 364 129 c 1,5,-1
 362 131 l 1,6,7
 338 101 338 101 300.5 85 c 128,-1,8
 263 69 263 69 221 69 c 0,9,10
 175 69 175 69 139 83.5 c 128,-1,11
 103 98 103 98 78 124.5 c 128,-1,12
 53 151 53 151 40 187 c 128,-1,13
 27 223 27 223 27 265 c 0,14,15
 27 313 27 313 44 352 c 128,-1,16
 61 391 61 391 89.5 418.5 c 128,-1,17
 118 446 118 446 156.5 461.5 c 128,-1,18
 195 477 195 477 239 477 c 0,19,20
 284 477 284 477 323 461 c 128,-1,21
 362 445 362 445 390.5 412.5 c 128,-1,22
 419 380 419 380 435 331 c 128,-1,23
 451 282 451 282 451 215 c 0,24,25
 451 138 451 138 427 69.5 c 128,-1,26
 403 1 403 1 357.5 -50 c 128,-1,27
 312 -101 312 -101 245 -130.5 c 128,-1,28
 178 -160 178 -160 91 -160 c 0,29,30
 80 -160 80 -160 68 -159 c 128,-1,31
 56 -158 56 -158 45 -156 c 1,32,-1
 38 -93 l 1,33,34
 47 -95 47 -95 55 -95.5 c 128,-1,35
 63 -96 63 -96 76 -96 c 0,0,1
369 251 m 0,36,37
 369 283 369 283 361 312 c 128,-1,38
 353 341 353 341 337 362.5 c 128,-1,39
 321 384 321 384 296 397 c 128,-1,40
 271 410 271 410 237 410 c 0,41,42
 181 410 181 410 146 371 c 128,-1,43
 111 332 111 332 111 269 c 0,44,45
 111 207 111 207 144.5 171 c 128,-1,46
 178 135 178 135 235 135 c 0,47,48
 283 135 283 135 310.5 152.5 c 128,-1,49
 338 170 338 170 352 193 c 0,50,51
 369 220 369 220 369 251 c 0,36,37
EndSplineSet
EndChar

StartChar: Uring
Encoding: 366 366 183
Width: 480
GlyphClass: 2
Flags: W
LayerCount: 2
Fore
SplineSet
121 470 m 1,0,-1
 391 474 l 1,1,-1
 382 406 l 1,2,-1
 183 406 l 1,3,-1
 159 252 l 1,4,5
 170 254 170 254 183 254 c 128,-1,6
 196 254 196 254 204 254 c 0,7,8
 253 254 253 254 292 239.5 c 128,-1,9
 331 225 331 225 358 200 c 128,-1,10
 385 175 385 175 399.5 141 c 128,-1,11
 414 107 414 107 414 67 c 0,12,13
 414 20 414 20 395.5 -21.5 c 128,-1,14
 377 -63 377 -63 342 -94 c 128,-1,15
 307 -125 307 -125 256.5 -142.5 c 128,-1,16
 206 -160 206 -160 141 -160 c 0,17,18
 127 -160 127 -160 112 -159 c 128,-1,19
 97 -158 97 -158 77 -155 c 1,20,-1
 65 -92 l 1,21,22
 98 -95 98 -95 121 -95 c 0,23,24
 175 -95 175 -95 214.5 -82.5 c 128,-1,25
 254 -70 254 -70 279.5 -48.5 c 128,-1,26
 305 -27 305 -27 317.5 2.5 c 128,-1,27
 330 32 330 32 330 65 c 0,28,29
 330 95 330 95 317.5 117.5 c 128,-1,30
 305 140 305 140 283 155.5 c 128,-1,31
 261 171 261 171 230.5 179 c 128,-1,32
 200 187 200 187 163 187 c 0,33,34
 140 187 140 187 122.5 185.5 c 128,-1,35
 105 184 105 184 80 181 c 1,36,-1
 121 470 l 1,0,-1
EndSplineSet
EndChar

StartChar: Utilde
Encoding: 360 360 184
Width: 510
GlyphClass: 2
Flags: W
LayerCount: 2
Fore
SplineSet
206 -9 m 0,0,1
 161 -9 161 -9 129.5 -2.5 c 128,-1,2
 98 4 98 4 75 15 c 1,3,-1
 96 86 l 1,4,5
 117 77 117 77 140.5 69.5 c 128,-1,6
 164 62 164 62 203 62 c 0,7,8
 291 62 291 62 334 117.5 c 128,-1,9
 377 173 377 173 380 279 c 1,10,11
 355 250 355 250 316.5 233 c 128,-1,12
 278 216 278 216 236 216 c 256,13,14
 194 216 194 216 157.5 229.5 c 128,-1,15
 121 243 121 243 94.5 269.5 c 128,-1,16
 68 296 68 296 53 334 c 128,-1,17
 38 372 38 372 38 421 c 256,18,19
 38 470 38 470 54 510.5 c 128,-1,20
 70 551 70 551 99 579.5 c 128,-1,21
 128 608 128 608 167.5 623.5 c 128,-1,22
 207 639 207 639 255 639 c 0,23,24
 298 639 298 639 337 622.5 c 128,-1,25
 376 606 376 606 406 570 c 128,-1,26
 436 534 436 534 454 477.5 c 128,-1,27
 472 421 472 421 472 341 c 0,28,29
 472 244 472 244 451.5 177.5 c 128,-1,30
 431 111 431 111 395.5 69.5 c 128,-1,31
 360 28 360 28 311.5 9.5 c 128,-1,32
 263 -9 263 -9 206 -9 c 0,0,1
380 392 m 0,33,34
 380 428 380 428 370.5 460 c 128,-1,35
 361 492 361 492 344 517 c 128,-1,36
 327 542 327 542 302 556.5 c 128,-1,37
 277 571 277 571 247 571 c 0,38,39
 189 571 189 571 157.5 531.5 c 128,-1,40
 126 492 126 492 126 428 c 0,41,42
 126 357 126 357 160 321.5 c 128,-1,43
 194 286 194 286 254 286 c 0,44,45
 296 286 296 286 325 304.5 c 128,-1,46
 354 323 354 323 370 351 c 0,47,48
 376 362 376 362 378 371.5 c 128,-1,49
 380 381 380 381 380 392 c 0,33,34
EndSplineSet
EndChar

StartChar: Wcircumflex
Encoding: 372 372 185
Width: 394
GlyphClass: 2
Flags: W
LayerCount: 2
Fore
SplineSet
202 636 m 0,0,1
 245 636 245 636 277 619.5 c 128,-1,2
 309 603 309 603 330 574.5 c 128,-1,3
 351 546 351 546 361 507.5 c 128,-1,4
 371 469 371 469 371 425 c 0,5,6
 371 330 371 330 323.5 274 c 128,-1,7
 276 218 276 218 195 218 c 0,8,9
 159 218 159 218 127.5 232 c 128,-1,10
 96 246 96 246 72.5 273 c 128,-1,11
 49 300 49 300 36 338.5 c 128,-1,12
 23 377 23 377 23 425 c 0,13,14
 23 525 23 525 72 580.5 c 128,-1,15
 121 636 121 636 202 636 c 0,0,1
94 426 m 0,16,17
 94 351 94 351 121.5 313 c 128,-1,18
 149 275 149 275 197 275 c 0,19,20
 251 275 251 275 275.5 311 c 128,-1,21
 300 347 300 347 300 425 c 0,22,23
 300 497 300 497 277.5 538.5 c 128,-1,24
 255 580 255 580 199 580 c 0,25,26
 148 580 148 580 121 544.5 c 128,-1,27
 94 509 94 509 94 426 c 0,16,17
EndSplineSet
EndChar

StartChar: Ycircumflex
Encoding: 374 374 186
Width: 316
GlyphClass: 2
Flags: W
LayerCount: 2
Fore
SplineSet
140 578 m 0,0,1
 117 578 117 578 95.5 572 c 128,-1,2
 74 566 74 566 46 549 c 1,3,-1
 15 598 l 1,4,5
 45 618 45 618 76 627 c 128,-1,6
 107 636 107 636 142 636 c 0,7,8
 211 636 211 636 248.5 600.5 c 128,-1,9
 286 565 286 565 286 510 c 0,10,11
 286 472 286 472 261.5 428.5 c 128,-1,12
 237 385 237 385 170 334 c 2,13,-1
 101 281 l 1,14,-1
 286 281 l 1,15,-1
 286 223 l 1,16,-1
 27 223 l 1,17,-1
 16 273 l 1,18,-1
 97 342 l 2,19,20
 128 368 128 368 150.5 389.5 c 128,-1,21
 173 411 173 411 187.5 430.5 c 128,-1,22
 202 450 202 450 209 469 c 128,-1,23
 216 488 216 488 216 508 c 0,24,25
 216 539 216 539 195.5 558.5 c 128,-1,26
 175 578 175 578 140 578 c 0,0,1
EndSplineSet
EndChar

StartChar: Zacute
Encoding: 377 377 187
Width: 330
GlyphClass: 2
Flags: W
LayerCount: 2
Fore
SplineSet
285 631 m 1,0,-1
 285 575 l 1,1,-1
 115 575 l 1,2,-1
 104 480 l 1,3,4
 113 482 113 482 125 483 c 128,-1,5
 137 484 137 484 151 484 c 0,6,7
 224 484 224 484 262 449.5 c 128,-1,8
 300 415 300 415 300 361 c 0,9,10
 300 328 300 328 287.5 301.5 c 128,-1,11
 275 275 275 275 252 256.5 c 128,-1,12
 229 238 229 238 197.5 228 c 128,-1,13
 166 218 166 218 129 218 c 0,14,15
 97 218 97 218 72 221.5 c 128,-1,16
 47 225 47 225 22 236 c 1,17,-1
 38 293 l 1,18,19
 58 285 58 285 77 280.5 c 128,-1,20
 96 276 96 276 130 276 c 0,21,22
 178 276 178 276 203.5 300 c 128,-1,23
 229 324 229 324 229 358 c 0,24,25
 229 396 229 396 201 414 c 128,-1,26
 173 432 173 432 125 432 c 0,27,28
 99 432 99 432 82 429 c 128,-1,29
 65 426 65 426 43 421 c 1,30,-1
 62 629 l 1,31,-1
 285 631 l 1,0,-1
EndSplineSet
EndChar

StartChar: Zdotaccent
Encoding: 379 379 188
Width: 310
GlyphClass: 2
Flags: W
LayerCount: 2
Fore
SplineSet
298 630 m 1,0,-1
 298 581 l 1,1,-1
 109 213 l 1,2,-1
 49 239 l 1,3,-1
 231 571 l 1,4,-1
 18 571 l 1,5,-1
 18 630 l 1,6,-1
 298 630 l 1,0,-1
EndSplineSet
EndChar

StartChar: abreve
Encoding: 259 259 189
Width: 682
GlyphClass: 2
Flags: W
LayerCount: 2
Fore
SplineSet
345 639 m 256,0,1
 409 639 409 639 463 618.5 c 128,-1,2
 517 598 517 598 556.5 557.5 c 128,-1,3
 596 517 596 517 618 456.5 c 128,-1,4
 640 396 640 396 640 315 c 0,5,6
 640 210 640 210 597 136 c 128,-1,7
 554 62 554 62 458 8 c 2,8,-1
 322 -68 l 1,9,10
 352 -68 352 -68 377.5 -75.5 c 128,-1,11
 403 -83 403 -83 429 -92 c 128,-1,12
 455 -101 455 -101 483 -108.5 c 128,-1,13
 511 -116 511 -116 545 -116 c 0,14,15
 565 -116 565 -116 587.5 -109.5 c 128,-1,16
 610 -103 610 -103 630 -89 c 1,17,-1
 666 -156 l 1,18,19
 638 -174 638 -174 604.5 -183 c 128,-1,20
 571 -192 571 -192 542 -192 c 0,21,22
 507 -192 507 -192 472.5 -182.5 c 128,-1,23
 438 -173 438 -173 404 -161.5 c 128,-1,24
 370 -150 370 -150 337 -140.5 c 128,-1,25
 304 -131 304 -131 271 -131 c 0,26,27
 245 -131 245 -131 219.5 -139 c 128,-1,28
 194 -147 194 -147 168 -162 c 1,29,-1
 130 -93 l 1,30,-1
 284 -4 l 1,31,32
 231 4 231 4 187.5 28.5 c 128,-1,33
 144 53 144 53 112.5 92.5 c 128,-1,34
 81 132 81 132 63.5 188 c 128,-1,35
 46 244 46 244 46 315 c 0,36,37
 46 394 46 394 69 454.5 c 128,-1,38
 92 515 92 515 132 556 c 128,-1,39
 172 597 172 597 226.5 618 c 128,-1,40
 281 639 281 639 345 639 c 256,0,1
146 315 m 256,41,42
 146 251 146 251 160 203.5 c 128,-1,43
 174 156 174 156 199.5 124 c 128,-1,44
 225 92 225 92 260 76 c 128,-1,45
 295 60 295 60 336 60 c 256,46,47
 377 60 377 60 414 76.5 c 128,-1,48
 451 93 451 93 479 125.5 c 128,-1,49
 507 158 507 158 523.5 205.5 c 128,-1,50
 540 253 540 253 540 315 c 0,51,52
 540 381 540 381 524.5 428 c 128,-1,53
 509 475 509 475 482 505.5 c 128,-1,54
 455 536 455 536 418.5 550.5 c 128,-1,55
 382 565 382 565 341 565 c 256,56,57
 300 565 300 565 264 550 c 128,-1,58
 228 535 228 535 202 504 c 128,-1,59
 176 473 176 473 161 426 c 128,-1,60
 146 379 146 379 146 315 c 256,41,42
EndSplineSet
EndChar

StartChar: amacron
Encoding: 257 257 190
Width: 686
GlyphClass: 2
Flags: W
LayerCount: 2
Fore
SplineSet
345 639 m 256,0,1
 409 639 409 639 463 618.5 c 128,-1,2
 517 598 517 598 556.5 557.5 c 128,-1,3
 596 517 596 517 618 456.5 c 128,-1,4
 640 396 640 396 640 315 c 0,5,6
 640 236 640 236 617 175.5 c 128,-1,7
 594 115 594 115 554 74 c 128,-1,8
 514 33 514 33 459.5 12 c 128,-1,9
 405 -9 405 -9 341 -9 c 256,10,11
 277 -9 277 -9 223 11.5 c 128,-1,12
 169 32 169 32 129.5 72.5 c 128,-1,13
 90 113 90 113 68 173.5 c 128,-1,14
 46 234 46 234 46 315 c 0,15,16
 46 394 46 394 69 454.5 c 128,-1,17
 92 515 92 515 132 556 c 128,-1,18
 172 597 172 597 226.5 618 c 128,-1,19
 281 639 281 639 345 639 c 256,0,1
146 315 m 256,20,21
 146 251 146 251 161.5 204 c 128,-1,22
 177 157 177 157 204 126 c 128,-1,23
 231 95 231 95 267.5 80 c 128,-1,24
 304 65 304 65 345 65 c 256,25,26
 386 65 386 65 421.5 80 c 128,-1,27
 457 95 457 95 483.5 126 c 128,-1,28
 510 157 510 157 525 204 c 128,-1,29
 540 251 540 251 540 315 c 0,30,31
 540 381 540 381 524.5 428 c 128,-1,32
 509 475 509 475 482 505.5 c 128,-1,33
 455 536 455 536 418.5 550.5 c 128,-1,34
 382 565 382 565 341 565 c 256,35,36
 300 565 300 565 264 550 c 128,-1,37
 228 535 228 535 202 504 c 128,-1,38
 176 473 176 473 161 426 c 128,-1,39
 146 379 146 379 146 315 c 256,20,21
EndSplineSet
EndChar

StartChar: aogonek
Encoding: 261 261 191
Width: 505
GlyphClass: 2
Flags: W
LayerCount: 2
Fore
SplineSet
257 639 m 0,0,1
 303 639 303 639 346 631.5 c 128,-1,2
 389 624 389 624 431 604 c 1,3,-1
 409 528 l 1,4,5
 366 548 366 548 331.5 556.5 c 128,-1,6
 297 565 297 565 261 565 c 0,7,8
 204 565 204 565 171 540 c 128,-1,9
 138 515 138 515 138 470 c 0,10,11
 138 432 138 432 162.5 409 c 128,-1,12
 187 386 187 386 243 369 c 2,13,-1
 306 349 l 2,14,15
 392 322 392 322 427.5 275.5 c 128,-1,16
 463 229 463 229 463 171 c 0,17,18
 463 130 463 130 446.5 96.5 c 128,-1,19
 430 63 430 63 400.5 39.5 c 128,-1,20
 371 16 371 16 331 3.5 c 128,-1,21
 291 -9 291 -9 243 -9 c 256,22,23
 195 -9 195 -9 145.5 -0.5 c 128,-1,24
 96 8 96 8 47 31 c 1,25,-1
 69 106 l 1,26,27
 112 85 112 85 153 75 c 128,-1,28
 194 65 194 65 239 65 c 0,29,30
 293 65 293 65 331 90 c 128,-1,31
 369 115 369 115 369 164 c 0,32,33
 369 182 369 182 363.5 197.5 c 128,-1,34
 358 213 358 213 344.5 227 c 128,-1,35
 331 241 331 241 308 253 c 128,-1,36
 285 265 285 265 250 276 c 2,37,-1
 187 296 l 2,38,39
 118 318 118 318 81 356 c 128,-1,40
 44 394 44 394 44 459 c 0,41,42
 44 542 44 542 98.5 590.5 c 128,-1,43
 153 639 153 639 257 639 c 0,0,1
EndSplineSet
EndChar

StartChar: cacute
Encoding: 263 263 192
Width: 640
GlyphClass: 2
Flags: W
LayerCount: 2
Fore
SplineSet
72 630 m 1,0,-1
 164 630 l 1,1,-1
 164 253 l 2,2,3
 164 152 164 152 201 109 c 128,-1,4
 238 66 238 66 320 66 c 0,5,6
 401 66 401 66 438.5 114 c 128,-1,7
 476 162 476 162 476 241 c 2,8,-1
 476 630 l 1,9,-1
 568 630 l 1,10,-1
 568 244 l 2,11,12
 568 115 568 115 502 53 c 128,-1,13
 436 -9 436 -9 320 -9 c 0,14,15
 203 -9 203 -9 137.5 52.5 c 128,-1,16
 72 114 72 114 72 249 c 2,17,-1
 72 630 l 1,0,-1
EndSplineSet
EndChar

StartChar: ccaron
Encoding: 269 269 193
Width: 301
GlyphClass: 2
Flags: W
LayerCount: 2
Fore
SplineSet
81 -155 m 1,0,-1
 81 720 l 1,1,-1
 271 720 l 1,2,-1
 271 654 l 1,3,-1
 167 654 l 1,4,-1
 167 -88 l 1,5,-1
 271 -88 l 1,6,-1
 271 -155 l 1,7,-1
 81 -155 l 1,0,-1
EndSplineSet
EndChar

StartChar: ccircumflex
Encoding: 265 265 194
Width: 859
GlyphClass: 2
Flags: W
LayerCount: 2
Fore
SplineSet
102 630 m 1,0,-1
 209 259 l 2,1,2
 213 247 213 247 217.5 228.5 c 128,-1,3
 222 210 222 210 227 189.5 c 128,-1,4
 232 169 232 169 236 148.5 c 128,-1,5
 240 128 240 128 242 110 c 1,6,-1
 244 110 l 1,7,8
 247 128 247 128 251.5 148.5 c 128,-1,9
 256 169 256 169 261 189.5 c 128,-1,10
 266 210 266 210 270.5 228 c 128,-1,11
 275 246 275 246 279 259 c 2,12,-1
 389 630 l 1,13,-1
 471 630 l 1,14,-1
 585 259 l 2,15,16
 589 246 589 246 593.5 228 c 128,-1,17
 598 210 598 210 602.5 190 c 128,-1,18
 607 170 607 170 611.5 149 c 128,-1,19
 616 128 616 128 619 110 c 1,20,-1
 621 110 l 1,21,22
 624 129 624 129 628.5 150 c 128,-1,23
 633 171 633 171 638 191.5 c 128,-1,24
 643 212 643 212 647.5 229.5 c 128,-1,25
 652 247 652 247 655 259 c 2,26,-1
 758 630 l 1,27,-1
 851 630 l 1,28,-1
 666 0 l 1,29,-1
 573 0 l 1,30,-1
 477 335 l 2,31,32
 470 360 470 360 463.5 382 c 128,-1,33
 457 404 457 404 451.5 424 c 128,-1,34
 446 444 446 444 440.5 464.5 c 128,-1,35
 435 485 435 485 429 508 c 1,36,-1
 427 508 l 1,37,38
 417 463 417 463 405 418 c 128,-1,39
 393 373 393 373 382 335 c 2,40,-1
 289 0 l 1,41,-1
 197 0 l 1,42,-1
 8 630 l 1,43,-1
 102 630 l 1,0,-1
EndSplineSet
EndChar

StartChar: cdotaccent
Encoding: 267 267 195
Width: 523
GlyphClass: 2
Flags: W
LayerCount: 2
Fore
SplineSet
111 630 m 1,0,-1
 268 348 l 1,1,-1
 426 630 l 1,2,-1
 523 630 l 1,3,-1
 310 264 l 1,4,-1
 310 0 l 1,5,-1
 218 0 l 1,6,-1
 218 264 l 1,7,-1
 10 630 l 1,8,-1
 111 630 l 1,0,-1
EndSplineSet
EndChar

StartChar: dcaron
Encoding: 271 271 196
Width: 301
GlyphClass: 2
Flags: W
LayerCount: 2
Fore
SplineSet
30 -155 m 1,0,-1
 30 -88 l 1,1,-1
 134 -88 l 1,2,-1
 134 654 l 1,3,-1
 30 654 l 1,4,-1
 30 720 l 1,5,-1
 220 720 l 1,6,-1
 220 -155 l 1,7,-1
 30 -155 l 1,0,-1
EndSplineSet
EndChar

StartChar: periodcentered
Encoding: 183 183 197
Width: 184
GlyphClass: 2
Flags: W
LayerCount: 2
Fore
SplineSet
33 332 m 0,0,1
 33 356 33 356 50.5 375 c 128,-1,2
 68 394 68 394 93 394 c 256,3,4
 118 394 118 394 135 375 c 128,-1,5
 152 356 152 356 152 332 c 0,6,7
 152 306 152 306 135 287.5 c 128,-1,8
 118 269 118 269 93 269 c 256,9,10
 68 269 68 269 50.5 287.5 c 128,-1,11
 33 306 33 306 33 332 c 0,0,1
EndSplineSet
EndChar

StartChar: dcroat
Encoding: 273 273 198
Width: 366
GlyphClass: 2
Flags: W
LayerCount: 2
Fore
SplineSet
356 -190 m 1,0,-1
 356 -250 l 1,1,-1
 10 -250 l 1,2,-1
 10 -190 l 1,3,-1
 356 -190 l 1,0,-1
EndSplineSet
EndChar

StartChar: ebreve
Encoding: 277 277 199
Width: 442
GlyphClass: 2
Flags: W
LayerCount: 2
Fore
SplineSet
291 59 m 0,0,1
 323 59 323 59 347 66 c 128,-1,2
 371 73 371 73 394 84 c 1,3,-1
 413 18 l 1,4,5
 359 -9 359 -9 284 -9 c 0,6,7
 233 -9 233 -9 188.5 6 c 128,-1,8
 144 21 144 21 110.5 51.5 c 128,-1,9
 77 82 77 82 58 127.5 c 128,-1,10
 39 173 39 173 39 234 c 0,11,12
 39 290 39 290 57 335 c 128,-1,13
 75 380 75 380 107 411.5 c 128,-1,14
 139 443 139 443 184 460 c 128,-1,15
 229 477 229 477 283 477 c 0,16,17
 314 477 314 477 343.5 472.5 c 128,-1,18
 373 468 373 468 411 451 c 1,19,-1
 391 384 l 1,20,21
 345 410 345 410 292 410 c 0,22,23
 219 410 219 410 174 364.5 c 128,-1,24
 129 319 129 319 129 237 c 0,25,26
 129 186 129 186 143 152 c 128,-1,27
 157 118 157 118 180 97.5 c 128,-1,28
 203 77 203 77 232 68 c 128,-1,29
 261 59 261 59 291 59 c 0,0,1
EndSplineSet
EndChar

StartChar: ecaron
Encoding: 283 283 200
Width: 246
GlyphClass: 2
Flags: W
LayerCount: 2
Fore
SplineSet
82 0 m 1,0,-1
 82 470 l 1,1,-1
 170 470 l 1,2,-1
 170 0 l 1,3,-1
 82 0 l 1,0,-1
126 591 m 0,4,5
 103 591 103 591 86.5 606.5 c 128,-1,6
 70 622 70 622 70 645 c 256,7,8
 70 668 70 668 86.5 684 c 128,-1,9
 103 700 103 700 126 700 c 0,10,11
 148 700 148 700 165 684 c 128,-1,12
 182 668 182 668 182 645 c 256,13,14
 182 622 182 622 165 606.5 c 128,-1,15
 148 591 148 591 126 591 c 0,4,5
EndSplineSet
EndChar

StartChar: edotaccent
Encoding: 279 279 201
Width: 504
GlyphClass: 2
Flags: W
LayerCount: 2
Fore
SplineSet
468 225 m 1,0,-1
 131 225 l 1,1,-1
 131 221 l 2,2,3
 131 143 131 143 173.5 101 c 128,-1,4
 216 59 216 59 289 59 c 0,5,6
 327 59 327 59 356.5 65 c 128,-1,7
 386 71 386 71 421 85 c 1,8,-1
 439 20 l 1,9,10
 410 7 410 7 370.5 -1 c 128,-1,11
 331 -9 331 -9 286 -9 c 0,12,13
 235 -9 235 -9 190.5 5 c 128,-1,14
 146 19 146 19 112 48.5 c 128,-1,15
 78 78 78 78 58.5 124 c 128,-1,16
 39 170 39 170 39 234 c 0,17,18
 39 289 39 289 55.5 334 c 128,-1,19
 72 379 72 379 102 410.5 c 128,-1,20
 132 442 132 442 174.5 459.5 c 128,-1,21
 217 477 217 477 270 477 c 0,22,23
 315 477 315 477 351.5 462 c 128,-1,24
 388 447 388 447 414 420 c 128,-1,25
 440 393 440 393 454 355 c 128,-1,26
 468 317 468 317 468 271 c 2,27,-1
 468 225 l 1,0,-1
377 288 m 1,28,29
 377 314 377 314 370.5 336.5 c 128,-1,30
 364 359 364 359 350.5 376 c 128,-1,31
 337 393 337 393 316 403 c 128,-1,32
 295 413 295 413 265 413 c 0,33,34
 210 413 210 413 175.5 378 c 128,-1,35
 141 343 141 343 133 286 c 1,36,-1
 377 288 l 1,28,29
EndSplineSet
EndChar

StartChar: emacron
Encoding: 275 275 202
Width: 489
GlyphClass: 2
Flags: W
LayerCount: 2
Fore
SplineSet
73 428 m 1,0,1
 97 440 97 440 118 449.5 c 128,-1,2
 139 459 139 459 160 465 c 128,-1,3
 181 471 181 471 203 474 c 128,-1,4
 225 477 225 477 251 477 c 0,5,6
 290 477 290 477 322.5 468.5 c 128,-1,7
 355 460 355 460 378.5 440 c 128,-1,8
 402 420 402 420 415 387.5 c 128,-1,9
 428 355 428 355 428 306 c 2,10,-1
 428 0 l 1,11,-1
 355 0 l 1,12,-1
 344 52 l 1,13,-1
 342 52 l 1,14,15
 311 19 311 19 274 5 c 128,-1,16
 237 -9 237 -9 192 -9 c 0,17,18
 158 -9 158 -9 129.5 0.5 c 128,-1,19
 101 10 101 10 80 27.5 c 128,-1,20
 59 45 59 45 47.5 70 c 128,-1,21
 36 95 36 95 36 126 c 0,22,23
 36 200 36 200 94.5 238.5 c 128,-1,24
 153 277 153 277 249 277 c 2,25,-1
 339 277 l 1,26,-1
 339 317 l 2,27,28
 339 368 339 368 313 386.5 c 128,-1,29
 287 405 287 405 243 405 c 0,30,31
 217 405 217 405 183.5 396.5 c 128,-1,32
 150 388 150 388 107 364 c 1,33,-1
 73 428 l 1,0,1
340 217 m 1,34,-1
 266 215 l 2,35,36
 191 213 191 213 159.5 188.5 c 128,-1,37
 128 164 128 164 128 129 c 0,38,39
 128 108 128 108 135 93.5 c 128,-1,40
 142 79 142 79 153.5 71 c 128,-1,41
 165 63 165 63 180.5 59.5 c 128,-1,42
 196 56 196 56 213 56 c 0,43,44
 246 56 246 56 280 71.5 c 128,-1,45
 314 87 314 87 340 121 c 1,46,-1
 340 217 l 1,34,-1
EndSplineSet
EndChar

StartChar: eogonek
Encoding: 281 281 203
Width: 541
GlyphClass: 2
Flags: W
LayerCount: 2
Fore
SplineSet
61 314 m 0,0,1
 61 353 61 353 75 383.5 c 128,-1,2
 89 414 89 414 114.5 435 c 128,-1,3
 140 456 140 456 175 466.5 c 128,-1,4
 210 477 210 477 251 477 c 0,5,6
 266 477 266 477 280 475 c 128,-1,7
 294 473 294 473 308 470 c 2,8,-1
 511 470 l 1,9,-1
 511 405 l 1,10,-1
 480 405 l 1,11,-1
 400 416 l 1,12,13
 419 396 419 396 429.5 370 c 128,-1,14
 440 344 440 344 440 315 c 0,15,16
 440 276 440 276 426 245.5 c 128,-1,17
 412 215 412 215 387 194 c 128,-1,18
 362 173 362 173 327 162.5 c 128,-1,19
 292 152 292 152 251 152 c 0,20,21
 220 152 220 152 197 156 c 1,22,23
 174 148 174 148 165 135.5 c 128,-1,24
 156 123 156 123 156 109 c 0,25,26
 156 86 156 86 171.5 78 c 128,-1,27
 187 70 187 70 213 70 c 2,28,-1
 337 70 l 2,29,30
 415 70 415 70 456.5 34.5 c 128,-1,31
 498 -1 498 -1 498 -62 c 0,32,33
 498 -101 498 -101 481 -132 c 128,-1,34
 464 -163 464 -163 432.5 -185 c 128,-1,35
 401 -207 401 -207 356 -218.5 c 128,-1,36
 311 -230 311 -230 255 -230 c 0,37,38
 153 -230 153 -230 92.5 -193.5 c 128,-1,39
 32 -157 32 -157 32 -86 c 0,40,41
 32 -49 32 -49 55.5 -24 c 128,-1,42
 79 1 79 1 117 14 c 1,43,44
 97 28 97 28 87 43.5 c 128,-1,45
 77 59 77 59 77 85 c 0,46,47
 77 116 77 116 95.5 138 c 128,-1,48
 114 160 114 160 146 173 c 1,49,50
 106 191 106 191 83.5 225.5 c 128,-1,51
 61 260 61 260 61 314 c 0,0,1
168 0 m 1,52,53
 117 -23 117 -23 117 -72 c 0,54,55
 117 -160 117 -160 259 -160 c 0,56,57
 301 -160 301 -160 330 -152 c 128,-1,58
 359 -144 359 -144 377 -131 c 128,-1,59
 395 -118 395 -118 403.5 -102 c 128,-1,60
 412 -86 412 -86 412 -69 c 0,61,62
 412 -27 412 -27 383.5 -13.5 c 128,-1,63
 355 0 355 0 312 0 c 2,64,-1
 168 0 l 1,52,53
351 312 m 0,65,66
 351 365 351 365 323.5 390 c 128,-1,67
 296 415 296 415 251 415 c 256,68,69
 206 415 206 415 178.5 390 c 128,-1,70
 151 365 151 365 151 316 c 0,71,72
 151 264 151 264 178.5 239.5 c 128,-1,73
 206 215 206 215 251 215 c 256,74,75
 296 215 296 215 323.5 239 c 128,-1,76
 351 263 351 263 351 312 c 0,65,66
EndSplineSet
EndChar

StartChar: gbreve
Encoding: 287 287 204
Width: 824
GlyphClass: 2
Flags: W
LayerCount: 2
Fore
SplineSet
156 0 m 1,0,-1
 68 0 l 1,1,-1
 68 470 l 1,2,-1
 136 470 l 1,3,-1
 149 405 l 1,4,5
 182 438 182 438 220 457.5 c 128,-1,6
 258 477 258 477 311 477 c 0,7,8
 361 477 361 477 393 456.5 c 128,-1,9
 425 436 425 436 441 400 c 1,10,11
 476 437 476 437 518 457 c 128,-1,12
 560 477 560 477 611 477 c 0,13,14
 683 477 683 477 719.5 436.5 c 128,-1,15
 756 396 756 396 756 324 c 2,16,-1
 756 0 l 1,17,-1
 668 0 l 1,18,-1
 668 308 l 2,19,20
 668 355 668 355 648 380 c 128,-1,21
 628 405 628 405 582 405 c 0,22,23
 514 405 514 405 455 344 c 1,24,25
 456 339 456 339 456 334 c 128,-1,26
 456 329 456 329 456 324 c 2,27,-1
 456 0 l 1,28,-1
 368 0 l 1,29,-1
 368 308 l 2,30,31
 368 355 368 355 348 380 c 128,-1,32
 328 405 328 405 282 405 c 0,33,34
 214 405 214 405 156 341 c 1,35,-1
 156 0 l 1,0,-1
EndSplineSet
EndChar

StartChar: gcircumflex
Encoding: 285 285 205
Width: 467
GlyphClass: 2
Flags: W
LayerCount: 2
Fore
SplineSet
156 172 m 1,0,-1
 156 0 l 1,1,-1
 69 0 l 1,2,-1
 69 710 l 1,3,-1
 156 710 l 1,4,-1
 156 268 l 1,5,-1
 345 470 l 1,6,-1
 454 470 l 1,7,-1
 261 272 l 1,8,-1
 463 0 l 1,9,-1
 359 0 l 1,10,-1
 203 219 l 1,11,-1
 156 172 l 1,0,-1
EndSplineSet
EndChar

StartChar: gcommaaccent
Encoding: 291 291 206
Width: 536
GlyphClass: 2
Flags: W
LayerCount: 2
Fore
SplineSet
380 34 m 1,0,1
 354 11 354 11 322.5 1 c 128,-1,2
 291 -9 291 -9 251 -9 c 0,3,4
 201 -9 201 -9 161.5 8.5 c 128,-1,5
 122 26 122 26 95 57.5 c 128,-1,6
 68 89 68 89 53.5 134 c 128,-1,7
 39 179 39 179 39 235 c 0,8,9
 39 287 39 287 53 331.5 c 128,-1,10
 67 376 67 376 94.5 408 c 128,-1,11
 122 440 122 440 162.5 458.5 c 128,-1,12
 203 477 203 477 255 477 c 0,13,14
 270 477 270 477 288 473.5 c 128,-1,15
 306 470 306 470 323.5 463 c 128,-1,16
 341 456 341 456 357 445.5 c 128,-1,17
 373 435 373 435 385 422 c 1,18,-1
 395 470 l 1,19,-1
 468 470 l 1,20,-1
 468 -230 l 1,21,-1
 380 -230 l 1,22,-1
 380 34 l 1,0,1
380 350 m 1,23,24
 362 375 362 375 333.5 392.5 c 128,-1,25
 305 410 305 410 270 410 c 0,26,27
 241 410 241 410 215.5 400.5 c 128,-1,28
 190 391 190 391 170.5 370 c 128,-1,29
 151 349 151 349 139.5 316.5 c 128,-1,30
 128 284 128 284 128 238 c 0,31,32
 128 149 128 149 165.5 104 c 128,-1,33
 203 59 203 59 263 59 c 0,34,35
 300 59 300 59 330 73.5 c 128,-1,36
 360 88 360 88 380 111 c 1,37,-1
 380 350 l 1,23,24
EndSplineSet
EndChar

StartChar: gdotaccent
Encoding: 289 289 207
Width: 538
GlyphClass: 2
Flags: W
LayerCount: 2
Fore
SplineSet
499 240 m 0,0,1
 499 181 499 181 481 134.5 c 128,-1,2
 463 88 463 88 431.5 56 c 128,-1,3
 400 24 400 24 358 7.5 c 128,-1,4
 316 -9 316 -9 267 -9 c 256,5,6
 218 -9 218 -9 176.5 6.5 c 128,-1,7
 135 22 135 22 104.5 52.5 c 128,-1,8
 74 83 74 83 56.5 127.5 c 128,-1,9
 39 172 39 172 39 230 c 0,10,11
 39 289 39 289 57 335 c 128,-1,12
 75 381 75 381 106.5 412.5 c 128,-1,13
 138 444 138 444 180 460.5 c 128,-1,14
 222 477 222 477 271 477 c 256,15,16
 320 477 320 477 361.5 462 c 128,-1,17
 403 447 403 447 433.5 417 c 128,-1,18
 464 387 464 387 481.5 342.5 c 128,-1,19
 499 298 499 298 499 240 c 0,0,1
407 235 m 0,20,21
 407 282 407 282 395 315 c 128,-1,22
 383 348 383 348 363.5 369 c 128,-1,23
 344 390 344 390 319 399.5 c 128,-1,24
 294 409 294 409 268 409 c 256,25,26
 242 409 242 409 217 401 c 128,-1,27
 192 393 192 393 173 373 c 128,-1,28
 154 353 154 353 142.5 319.5 c 128,-1,29
 131 286 131 286 131 235 c 0,30,31
 131 188 131 188 143 154.5 c 128,-1,32
 155 121 155 121 174.5 100 c 128,-1,33
 194 79 194 79 219 69 c 128,-1,34
 244 59 244 59 270 59 c 256,35,36
 296 59 296 59 321 67.5 c 128,-1,37
 346 76 346 76 365 96.5 c 128,-1,38
 384 117 384 117 395.5 150.5 c 128,-1,39
 407 184 407 184 407 235 c 0,20,21
EndSplineSet
EndChar

StartChar: hbar
Encoding: 295 295 208
Width: 539
GlyphClass: 2
Flags: W
LayerCount: 2
Fore
SplineSet
383 470 m 1,0,-1
 471 470 l 1,1,-1
 471 0 l 1,2,-1
 402 0 l 1,3,-1
 390 59 l 1,4,-1
 386 59 l 1,5,6
 360 30 360 30 321.5 10.5 c 128,-1,7
 283 -9 283 -9 232 -9 c 0,8,9
 159 -9 159 -9 113.5 32.5 c 128,-1,10
 68 74 68 74 68 158 c 2,11,-1
 68 470 l 1,12,-1
 156 470 l 1,13,-1
 156 169 l 2,14,15
 156 139 156 139 163.5 118 c 128,-1,16
 171 97 171 97 183.5 84.5 c 128,-1,17
 196 72 196 72 213 66.5 c 128,-1,18
 230 61 230 61 250 61 c 0,19,20
 290 61 290 61 322 78 c 128,-1,21
 354 95 354 95 383 125 c 1,22,-1
 383 470 l 1,0,-1
EndSplineSet
EndChar

StartChar: hcircumflex
Encoding: 293 293 209
Width: 407
GlyphClass: 2
Flags: W
LayerCount: 2
Fore
SplineSet
332 382 m 1,0,1
 299 398 299 398 272 404 c 128,-1,2
 245 410 245 410 218 410 c 0,3,4
 170 410 170 410 147 392.5 c 128,-1,5
 124 375 124 375 124 346 c 0,6,7
 124 325 124 325 140 309.5 c 128,-1,8
 156 294 156 294 207 279 c 2,9,-1
 237 270 l 2,10,11
 304 250 304 250 338.5 218.5 c 128,-1,12
 373 187 373 187 373 133 c 0,13,14
 373 69 373 69 325.5 30 c 128,-1,15
 278 -9 278 -9 193 -9 c 0,16,17
 148 -9 148 -9 106.5 -1 c 128,-1,18
 65 7 65 7 35 21 c 1,19,-1
 56 90 l 1,20,21
 85 76 85 76 119 67.5 c 128,-1,22
 153 59 153 59 188 59 c 0,23,24
 233 59 233 59 259.5 75 c 128,-1,25
 286 91 286 91 286 128 c 0,26,27
 286 160 286 160 263 173.5 c 128,-1,28
 240 187 240 187 197 200 c 2,29,-1
 166 210 l 2,30,31
 101 231 101 231 69.5 262.5 c 128,-1,32
 38 294 38 294 38 344 c 0,33,34
 38 374 38 374 51 399 c 128,-1,35
 64 424 64 424 86.5 441 c 128,-1,36
 109 458 109 458 140 467.5 c 128,-1,37
 171 477 171 477 208 477 c 0,38,39
 243 477 243 477 280.5 470.5 c 128,-1,40
 318 464 318 464 352 449 c 1,41,-1
 332 382 l 1,0,1
EndSplineSet
EndChar

StartChar: imacron
Encoding: 299 299 210
Width: 461
GlyphClass: 2
Flags: W
LayerCount: 2
Fore
SplineSet
9 470 m 1,0,-1
 103 470 l 1,1,-1
 203 201 l 1,2,-1
 237 89 l 1,3,-1
 239 89 l 1,4,-1
 273 201 l 1,5,-1
 364 470 l 1,6,-1
 454 470 l 1,7,-1
 273 -40 l 2,8,9
 243 -125 243 -125 197.5 -173 c 128,-1,10
 152 -221 152 -221 89 -243 c 1,11,-1
 51 -173 l 1,12,13
 98 -155 98 -155 134.5 -121 c 128,-1,14
 171 -87 171 -87 191 -27 c 2,15,-1
 200 0 l 1,16,-1
 9 470 l 1,0,-1
EndSplineSet
EndChar

StartChar: itilde
Encoding: 297 297 211
Width: 712
GlyphClass: 2
Flags: W
LayerCount: 2
Fore
SplineSet
11 470 m 1,0,-1
 105 470 l 1,1,-1
 185 174 l 1,2,-1
 203 69 l 1,3,-1
 207 69 l 1,4,-1
 229 174 l 1,5,-1
 310 470 l 1,6,-1
 405 470 l 1,7,-1
 488 174 l 1,8,-1
 509 69 l 1,9,-1
 513 69 l 1,10,-1
 535 174 l 1,11,-1
 613 470 l 1,12,-1
 703 470 l 1,13,-1
 560 0 l 1,14,-1
 460 0 l 1,15,-1
 380 288 l 1,16,-1
 357 404 l 1,17,-1
 333 288 l 1,18,-1
 251 0 l 1,19,-1
 156 0 l 1,20,-1
 11 470 l 1,0,-1
EndSplineSet
EndChar

StartChar: nacute
Encoding: 324 324 212
Width: 465
GlyphClass: 2
Flags: W
LayerCount: 2
Fore
SplineSet
2 0 m 1,0,-1
 190 470 l 1,1,-1
 272 470 l 1,2,-1
 464 0 l 1,3,-1
 374 0 l 1,4,-1
 327 124 l 1,5,-1
 137 124 l 1,6,-1
 88 0 l 1,7,-1
 2 0 l 1,0,-1
161 191 m 1,8,-1
 303 191 l 1,9,-1
 273 270 l 2,10,11
 262 298 262 298 252 325.5 c 128,-1,12
 242 353 242 353 234 377 c 1,13,-1
 233 377 l 1,14,15
 225 354 225 354 214 326 c 128,-1,16
 203 298 203 298 192 270 c 2,17,-1
 161 191 l 1,8,-1
EndSplineSet
EndChar

StartChar: napostrophe
Encoding: 329 329 213
Width: 423
GlyphClass: 2
Flags: W
LayerCount: 2
Fore
SplineSet
388 470 m 1,0,-1
 388 402 l 1,1,-1
 168 402 l 1,2,-1
 168 265 l 1,3,-1
 370 265 l 1,4,-1
 370 197 l 1,5,-1
 168 197 l 1,6,-1
 168 0 l 1,7,-1
 80 0 l 1,8,-1
 80 470 l 1,9,-1
 388 470 l 1,0,-1
EndSplineSet
EndChar

StartChar: ncaron
Encoding: 328 328 214
Width: 443
GlyphClass: 2
Flags: W
LayerCount: 2
Fore
SplineSet
80 470 m 1,0,-1
 397 470 l 1,1,-1
 397 402 l 1,2,-1
 166 402 l 1,3,-1
 166 276 l 1,4,-1
 375 276 l 1,5,-1
 375 209 l 1,6,-1
 166 209 l 1,7,-1
 166 68 l 1,8,-1
 399 68 l 1,9,-1
 399 0 l 1,10,-1
 80 0 l 1,11,-1
 80 470 l 1,0,-1
EndSplineSet
EndChar

StartChar: ncommaaccent
Encoding: 326 326 215
Width: 449
GlyphClass: 2
Flags: W
LayerCount: 2
Fore
SplineSet
302 59 m 256,0,1
 334 59 334 59 358 66 c 128,-1,2
 382 73 382 73 405 84 c 1,3,-1
 424 18 l 1,4,5
 370 -9 370 -9 295 -9 c 0,6,7
 242 -9 242 -9 196.5 6 c 128,-1,8
 151 21 151 21 117 51.5 c 128,-1,9
 83 82 83 82 64 127.5 c 128,-1,10
 45 173 45 173 45 234 c 0,11,12
 45 290 45 290 63 335 c 128,-1,13
 81 380 81 380 113.5 411.5 c 128,-1,14
 146 443 146 443 192 460 c 128,-1,15
 238 477 238 477 294 477 c 0,16,17
 325 477 325 477 354.5 472.5 c 128,-1,18
 384 468 384 468 422 451 c 1,19,-1
 402 384 l 1,20,21
 356 410 356 410 303 410 c 0,22,23
 226 410 226 410 180.5 364.5 c 128,-1,24
 135 319 135 319 135 237 c 0,25,26
 135 186 135 186 149 152 c 128,-1,27
 163 118 163 118 186.5 97.5 c 128,-1,28
 210 77 210 77 240 68 c 128,-1,29
 270 59 270 59 302 59 c 256,0,1
EndSplineSet
EndChar

StartChar: obreve
Encoding: 335 335 216
Width: 399
GlyphClass: 2
Flags: W
LayerCount: 2
Fore
SplineSet
80 470 m 1,0,-1
 168 470 l 1,1,-1
 168 72 l 1,2,-1
 384 72 l 1,3,-1
 384 0 l 1,4,-1
 80 0 l 1,5,-1
 80 470 l 1,0,-1
EndSplineSet
EndChar

StartChar: ohungarumlaut
Encoding: 337 337 217
Width: 561
GlyphClass: 2
Flags: W
LayerCount: 2
Fore
SplineSet
80 470 m 1,0,-1
 159 470 l 1,1,-1
 344 217 l 2,2,3
 351 207 351 207 359 194.5 c 128,-1,4
 367 182 367 182 374.5 169 c 128,-1,5
 382 156 382 156 388.5 144.5 c 128,-1,6
 395 133 395 133 398 126 c 1,7,-1
 400 126 l 1,8,9
 398 160 398 160 397 191.5 c 128,-1,10
 396 223 396 223 396 251 c 2,11,-1
 396 470 l 1,12,-1
 482 470 l 1,13,-1
 482 0 l 1,14,-1
 404 0 l 1,15,-1
 217 259 l 2,16,17
 202 282 202 282 188.5 303.5 c 128,-1,18
 175 325 175 325 165 348 c 1,19,-1
 163 348 l 1,20,21
 165 312 165 312 165.5 276 c 128,-1,22
 166 240 166 240 166 204 c 2,23,-1
 166 0 l 1,24,-1
 80 0 l 1,25,-1
 80 470 l 1,0,-1
EndSplineSet
EndChar

StartChar: omacron
Encoding: 333 333 218
Width: 247
GlyphClass: 2
Flags: W
LayerCount: 2
Fore
SplineSet
175 470 m 1,0,-1
 175 73 l 2,1,2
 175 22 175 22 170.5 -18 c 128,-1,3
 166 -58 166 -58 146 -91 c 0,4,5
 122 -131 122 -131 84 -147 c 128,-1,6
 46 -163 46 -163 0 -163 c 1,7,-1
 0 -91 l 1,8,9
 18 -91 18 -91 37 -84 c 128,-1,10
 56 -77 56 -77 68 -58 c 0,11,12
 80 -38 80 -38 83.5 -8 c 128,-1,13
 87 22 87 22 87 44 c 2,14,-1
 87 470 l 1,15,-1
 175 470 l 1,0,-1
EndSplineSet
EndChar

StartChar: racute
Encoding: 341 341 219
Width: 447
GlyphClass: 2
Flags: W
LayerCount: 2
Fore
SplineSet
80 470 m 1,0,-1
 256 470 l 2,1,2
 288 470 288 470 317.5 461 c 128,-1,3
 347 452 347 452 369.5 434.5 c 128,-1,4
 392 417 392 417 405.5 390 c 128,-1,5
 419 363 419 363 419 327 c 0,6,7
 419 273 419 273 393.5 239 c 128,-1,8
 368 205 368 205 321 186 c 1,9,-1
 432 0 l 1,10,-1
 334 0 l 1,11,-1
 248 170 l 1,12,-1
 163 170 l 1,13,-1
 163 0 l 1,14,-1
 80 0 l 1,15,-1
 80 470 l 1,0,-1
162 237 m 1,16,-1
 226 237 l 2,17,18
 273 237 273 237 302 257 c 128,-1,19
 331 277 331 277 331 322 c 256,20,21
 331 367 331 367 302.5 384.5 c 128,-1,22
 274 402 274 402 224 402 c 2,23,-1
 162 402 l 1,24,-1
 162 237 l 1,16,-1
EndSplineSet
EndChar

